<svg width="90" height="52" viewBox="0 0 90 52" fill="none" xmlns="http://www.w3.org/2000/svg">
<path d="M86.1502 51H1V3.84319C1 2.27107 2.274 1 3.84974 1H88.9999V48.1635C88.9999 49.7289 87.7259 51 86.1502 51Z" fill="white"/>
<path fill-rule="evenodd" clip-rule="evenodd" d="M28.5654 23.1684H27.6267C27.6267 23.1684 25.1927 23.4427 23.7309 21.3354C23.0403 20.265 16.0601 9.88237 16.0601 9.88237L11.1854 23.1684H7.99365L13.492 7.58105H18.2929L28.5654 23.1684Z" fill="#FBAA21"/>
<path fill-rule="evenodd" clip-rule="evenodd" d="M12.6685 23.1684H13.6072C13.6072 23.1684 16.0412 23.4427 17.5097 21.3354C18.2003 20.265 25.1805 9.88237 25.1805 9.88237L30.0552 23.1684H33.2469L27.7419 7.58105H22.9409L12.6685 23.1684Z" fill="#59BA47"/>
<path d="M20.6196 16.6838L18.7622 13.9142L20.6196 11.1045L22.4769 13.9142L20.6196 16.6838Z" fill="#008ECB"/>
<path d="M88.725 29.7676L88.8859 48.051C88.8859 49.6231 87.6119 50.8942 86.0362 50.8942L1 50.7202V29.7676H88.725Z" fill="#B8CF47"/>
<path d="M86.1502 51H1V3.84319C1 2.27107 2.274 1 3.84974 1H88.9999V48.1635C88.9999 49.7289 87.7259 51 86.1502 51Z" stroke="#4A4C4E" stroke-width="0.5" stroke-miterlimit="10"/>
<path d="M17.4008 40.4493C17.3693 40.2343 17.3535 40.0003 17.3535 39.7473C17.3535 39.4943 17.3693 39.2603 17.4008 39.0453C17.4323 38.8304 17.4909 38.6154 17.5765 38.4004C17.6643 38.1832 17.7769 37.9996 17.9143 37.8496C18.0517 37.6974 18.2352 37.5742 18.4649 37.4802C18.6946 37.3861 18.9593 37.3391 19.2588 37.3391C19.8196 37.3391 20.3038 37.3872 20.7114 37.4835V38.115H19.3973C18.6451 38.115 18.269 38.6591 18.269 39.7473C18.269 40.8378 18.5989 41.383 19.2588 41.383H19.8263V40.1806H19.1203V39.5592H20.7114V42.0077C20.3038 42.104 19.8196 42.1521 19.2588 42.1521C18.9593 42.1521 18.6946 42.1051 18.4649 42.0111C18.2352 41.917 18.0517 41.795 17.9143 41.645C17.7769 41.495 17.6643 41.3125 17.5765 41.0975C17.4909 40.8803 17.4323 40.6642 17.4008 40.4493Z" fill="white"/>
<path d="M21.2622 40.3653C21.2622 39.8033 21.3996 39.3655 21.6743 39.052C21.9513 38.7363 22.3725 38.5785 22.9378 38.5785C23.163 38.5785 23.3645 38.6087 23.5425 38.6691C23.7204 38.7296 23.8634 38.8113 23.9715 38.9143C24.0818 39.0151 24.1652 39.1282 24.2215 39.2536C24.2778 39.3767 24.3059 39.5066 24.3059 39.6432C24.3059 39.7753 24.2902 39.8951 24.2586 40.0026C24.2271 40.11 24.1753 40.2119 24.1032 40.3082C24.0312 40.4045 23.9253 40.4795 23.7857 40.5332C23.6461 40.587 23.4783 40.6138 23.2823 40.6138H22.1405C22.1563 40.8825 22.2182 41.0919 22.3263 41.2419C22.4367 41.392 22.6123 41.467 22.8533 41.467H24.0627V42.0077C23.6551 42.104 23.2519 42.1521 22.8533 42.1521C21.7926 42.1521 21.2622 41.5565 21.2622 40.3653ZM22.154 40.0899H23.0188C23.1742 40.0899 23.2891 40.0518 23.3634 39.9757C23.4377 39.8996 23.4749 39.8044 23.4749 39.6902C23.4749 39.5738 23.4242 39.4741 23.3229 39.3913C23.2238 39.3062 23.0898 39.2636 22.9209 39.2636C22.6867 39.2636 22.5065 39.3375 22.3804 39.4853C22.2543 39.6331 22.1788 39.8346 22.154 40.0899Z" fill="white"/>
<path d="M24.7182 42.0077V41.467H26.0053C26.2035 41.467 26.3465 41.4289 26.4343 41.3528C26.5221 41.2744 26.5661 41.186 26.5661 41.0874C26.5661 40.9934 26.5289 40.915 26.4546 40.8523C26.3803 40.7896 26.2395 40.737 26.0323 40.6945C25.9175 40.6721 25.824 40.653 25.7519 40.6374C25.6799 40.6217 25.5931 40.5982 25.4918 40.5668C25.3905 40.5355 25.3071 40.503 25.2418 40.4694C25.1788 40.4358 25.1112 40.3922 25.0391 40.3384C24.9693 40.2825 24.9141 40.2209 24.8736 40.1537C24.8331 40.0865 24.7993 40.0059 24.7723 39.9119C24.7452 39.8156 24.7317 39.7104 24.7317 39.5962C24.7317 39.3633 24.7959 39.1696 24.9243 39.0151C25.0549 38.8584 25.2249 38.7464 25.4344 38.6792C25.6438 38.612 25.8893 38.5785 26.1708 38.5785C26.3713 38.5785 26.5503 38.5885 26.7079 38.6087C26.8656 38.6288 27.0627 38.6669 27.2991 38.7229V39.2636H26.2046C25.9974 39.2636 25.8499 39.2961 25.7621 39.361C25.6742 39.426 25.6303 39.5043 25.6303 39.5962C25.6303 39.6924 25.6675 39.7753 25.7418 39.8447C25.8184 39.9119 25.9591 39.9667 26.1641 40.0093C26.2722 40.0294 26.3645 40.0485 26.4411 40.0664C26.5199 40.0843 26.6077 40.1089 26.7046 40.1403C26.8014 40.1716 26.8836 40.2052 26.9512 40.241C27.0187 40.2769 27.0863 40.3228 27.1539 40.3787C27.2237 40.4325 27.28 40.4918 27.3228 40.5568C27.3656 40.6217 27.3993 40.7001 27.4241 40.7919C27.4511 40.8814 27.4647 40.98 27.4647 41.0874C27.4647 41.2755 27.4297 41.439 27.3599 41.5778C27.2901 41.7166 27.1899 41.8275 27.0593 41.9103C26.9309 41.9932 26.7823 42.0536 26.6134 42.0917C26.4444 42.132 26.2553 42.1521 26.0458 42.1521C25.5639 42.1521 25.1213 42.104 24.7182 42.0077Z" fill="white"/>
<path d="M27.6675 39.2838V38.7833L28.1877 38.6456L28.5695 37.6817H29.0187V38.6456H29.8836V39.2838H29.0187V41.158C29.0187 41.2722 29.0446 41.3528 29.0964 41.3998C29.1482 41.4446 29.2372 41.467 29.3633 41.467H29.8836V42.0077C29.6088 42.104 29.3667 42.1521 29.1573 42.1521C28.5109 42.1521 28.1877 41.8431 28.1877 41.2251V39.2838H27.6675Z" fill="white"/>
<path d="M30.1202 41.1076C30.1202 40.9486 30.1427 40.8075 30.1877 40.6844C30.2328 40.559 30.2913 40.4582 30.3634 40.3821C30.4377 40.3037 30.5267 40.2399 30.6303 40.1906C30.7339 40.1391 30.8386 40.1044 30.9444 40.0865C31.0525 40.0664 31.1685 40.0563 31.2924 40.0563H32.164V39.754C32.164 39.5861 32.1234 39.4629 32.0423 39.3846C31.9613 39.3039 31.8126 39.2636 31.5964 39.2636H30.3499V38.7229C30.8408 38.6266 31.2834 38.5785 31.6775 38.5785C31.8982 38.5785 32.0851 38.5964 32.2383 38.6322C32.3937 38.6658 32.5299 38.724 32.647 38.8069C32.7642 38.8897 32.8509 39.0061 32.9072 39.1562C32.9635 39.3062 32.9916 39.4932 32.9916 39.7171V42.085H32.2315L32.164 41.692H32.1471C32.0142 41.8667 31.8712 41.9876 31.718 42.0547C31.5672 42.1197 31.3814 42.1521 31.1606 42.1521C30.8386 42.1521 30.5841 42.0547 30.3972 41.8599C30.2125 41.6651 30.1202 41.4143 30.1202 41.1076ZM30.5492 37.7388C30.7519 37.4947 30.994 37.3727 31.2755 37.3727C31.3881 37.3727 31.5367 37.4107 31.7214 37.4869C31.9061 37.563 32.0345 37.6011 32.1065 37.6011C32.2079 37.6011 32.3092 37.5798 32.4106 37.5373C32.5119 37.4925 32.5997 37.4376 32.6741 37.3727L32.8328 37.8194C32.6301 38.0635 32.388 38.1855 32.1065 38.1855C32.0142 38.1855 31.8712 38.1474 31.6775 38.0713C31.4861 37.9952 31.3521 37.9571 31.2755 37.9571C31.0616 37.9571 30.8701 38.0332 30.7012 38.1855L30.5492 37.7388ZM30.9512 41.0538C30.9512 41.2106 31.003 41.327 31.1066 41.4032C31.2124 41.477 31.3453 41.514 31.5052 41.514C31.6674 41.514 31.8171 41.4602 31.9545 41.3528C32.0941 41.2431 32.164 41.0863 32.164 40.8825V40.5769H31.5187C31.3363 40.5769 31.1956 40.6172 31.0965 40.6978C30.9996 40.7762 30.9512 40.8949 30.9512 41.0538Z" fill="white"/>
<path d="M35.1234 42.1521C34.0626 42.1521 33.5323 41.5565 33.5323 40.3653C33.5323 39.1741 34.0626 38.5785 35.1234 38.5785C36.1841 38.5785 36.7145 39.1741 36.7145 40.3653C36.7145 41.5565 36.1841 42.1521 35.1234 42.1521ZM34.4038 40.3653C34.4038 40.7303 34.4567 41.0079 34.5626 41.1983C34.6684 41.3864 34.8554 41.4804 35.1234 41.4804C35.2608 41.4804 35.3767 41.4547 35.4713 41.4032C35.5659 41.3517 35.6402 41.2755 35.6943 41.1748C35.7483 41.0718 35.7866 40.9553 35.8091 40.8254C35.8317 40.6956 35.8429 40.5422 35.8429 40.3653C35.8429 40.0048 35.7889 39.7305 35.6808 39.5424C35.5749 39.3521 35.3891 39.2569 35.1234 39.2569C34.8554 39.2569 34.6684 39.351 34.5626 39.5391C34.4567 39.7271 34.4038 40.0026 34.4038 40.3653Z" fill="white"/>
<path d="M38.2349 40.3653C38.2349 39.8033 38.3611 39.3655 38.6133 39.052C38.8678 38.7363 39.254 38.5785 39.772 38.5785C39.977 38.5785 40.2022 38.5964 40.4476 38.6322V37.2686H41.2787V42.085H40.5186L40.4476 41.692H40.4341C40.308 41.8555 40.1751 41.973 40.0355 42.0447C39.8959 42.1163 39.727 42.1521 39.5288 42.1521C39.2315 42.1521 38.9849 42.0771 38.789 41.9271C38.593 41.7771 38.4511 41.5722 38.3633 41.3125C38.2777 41.0505 38.2349 40.7348 38.2349 40.3653ZM39.1065 40.3653C39.1065 40.5064 39.1121 40.6306 39.1234 40.7381C39.1347 40.8434 39.1549 40.9452 39.1842 41.0438C39.2157 41.1423 39.2563 41.224 39.3058 41.289C39.3576 41.3517 39.4252 41.402 39.5085 41.4401C39.5941 41.4759 39.6932 41.4938 39.8058 41.4938C39.9702 41.4938 40.1177 41.439 40.2483 41.3293C40.3812 41.2195 40.4476 41.0662 40.4476 40.8691V39.2636H39.8598C39.5896 39.2636 39.3959 39.3599 39.2788 39.5525C39.1639 39.7428 39.1065 40.0138 39.1065 40.3653Z" fill="white"/>
<path d="M41.7653 40.3653C41.7653 39.8033 41.9026 39.3655 42.1774 39.052C42.4544 38.7363 42.8756 38.5785 43.4408 38.5785C43.6661 38.5785 43.8676 38.6087 44.0455 38.6691C44.2234 38.7296 44.3665 38.8113 44.4746 38.9143C44.5849 39.0151 44.6682 39.1282 44.7245 39.2536C44.7808 39.3767 44.809 39.5066 44.809 39.6432C44.809 39.7753 44.7932 39.8951 44.7617 40.0026C44.7302 40.11 44.6784 40.2119 44.6063 40.3082C44.5342 40.4045 44.4284 40.4795 44.2888 40.5332C44.1491 40.587 43.9813 40.6138 43.7854 40.6138H42.6436C42.6594 40.8825 42.7213 41.0919 42.8294 41.2419C42.9397 41.392 43.1154 41.467 43.3564 41.467H44.5658V42.0077C44.1581 42.104 43.755 42.1521 43.3564 42.1521C42.2956 42.1521 41.7653 41.5565 41.7653 40.3653ZM42.6571 40.0899H43.5219C43.6773 40.0899 43.7922 40.0518 43.8665 39.9757C43.9408 39.8996 43.978 39.8044 43.978 39.6902C43.978 39.5738 43.9273 39.4741 43.826 39.3913C43.7269 39.3062 43.5929 39.2636 43.424 39.2636C43.1897 39.2636 43.0096 39.3375 42.8834 39.4853C42.7573 39.6331 42.6819 39.8346 42.6571 40.0899Z" fill="white"/>
<path d="M46.4646 42.085V37.4063H48.228C48.6829 37.4063 49.0444 37.5451 49.3124 37.8227C49.5804 38.0982 49.7144 38.4486 49.7144 38.874C49.7144 39.1942 49.6378 39.4685 49.4847 39.6969C49.3315 39.9253 49.1131 40.0821 48.8293 40.1671L49.9373 42.085H48.9881L47.9712 40.3183H47.3429V42.085H46.4646ZM47.3429 39.5592H47.9104C48.0568 39.5592 48.1807 39.5503 48.282 39.5323C48.3834 39.5144 48.4746 39.4808 48.5557 39.4316C48.6367 39.3823 48.6964 39.3118 48.7347 39.22C48.7752 39.1282 48.7955 39.0129 48.7955 38.874C48.7955 38.6524 48.7358 38.4788 48.6165 38.3534C48.4971 38.228 48.3327 38.1653 48.1233 38.1653H47.3429V39.5592Z" fill="white"/>
<path d="M50.2145 40.3653C50.2145 39.8033 50.3519 39.3655 50.6266 39.052C50.9036 38.7363 51.3248 38.5785 51.8901 38.5785C52.1153 38.5785 52.3168 38.6087 52.4947 38.6691C52.6727 38.7296 52.8157 38.8113 52.9238 38.9143C53.0341 39.0151 53.1175 39.1282 53.1738 39.2536C53.2301 39.3767 53.2582 39.5066 53.2582 39.6432C53.2582 39.7753 53.2424 39.8951 53.2109 40.0026C53.1794 40.11 53.1276 40.2119 53.0555 40.3082C52.9835 40.4045 52.8776 40.4795 52.738 40.5332C52.5983 40.587 52.4306 40.6138 52.2346 40.6138H51.0928C51.1086 40.8825 51.1705 41.0919 51.2786 41.2419C51.389 41.392 51.5646 41.467 51.8056 41.467H53.015V42.0077C52.6074 42.104 52.2042 42.1521 51.8056 42.1521C50.7449 42.1521 50.2145 41.5565 50.2145 40.3653ZM51.1063 40.0899H51.9711C52.1265 40.0899 52.2414 40.0518 52.3157 39.9757C52.39 39.8996 52.4272 39.8044 52.4272 39.6902C52.4272 39.5738 52.3765 39.4741 52.2752 39.3913C52.1761 39.3062 52.0421 39.2636 51.8732 39.2636C51.6389 39.2636 51.4588 39.3375 51.3327 39.4853C51.2065 39.6331 51.1311 39.8346 51.1063 40.0899Z" fill="white"/>
<path d="M55.2616 42.1521C54.2009 42.1521 53.6705 41.5565 53.6705 40.3653C53.6705 39.1741 54.2009 38.5785 55.2616 38.5785C55.5679 38.5785 55.9249 38.6266 56.3325 38.7229V39.2636H55.2616C54.9936 39.2636 54.8067 39.3566 54.7008 39.5424C54.595 39.7283 54.5421 40.0026 54.5421 40.3653C54.5421 40.7303 54.595 41.0057 54.7008 41.1916C54.8067 41.3752 54.9936 41.467 55.2616 41.467H56.3325V42.0077C55.9249 42.104 55.5679 42.1521 55.2616 42.1521Z" fill="white"/>
<path d="M56.7144 41.0874V38.6456H57.5454V41.0203C57.5454 41.1792 57.6006 41.3013 57.7109 41.3864C57.8213 41.4714 57.9553 41.514 58.1129 41.514C58.2796 41.514 58.4338 41.4591 58.5757 41.3494C58.7199 41.2375 58.7919 41.0818 58.7919 40.8825V38.6456H59.623V42.085H58.8595L58.7919 41.692H58.7784C58.5284 41.9988 58.1872 42.1521 57.7548 42.1521C57.4103 42.1521 57.1501 42.0559 56.9745 41.8633C56.8011 41.6685 56.7144 41.4099 56.7144 41.0874Z" fill="white"/>
<path d="M60.1704 42.085V38.6456H60.9338L61.0014 39.2166H61.0149C61.123 38.9972 61.275 38.836 61.471 38.733C61.6669 38.63 61.8797 38.5785 62.1094 38.5785V39.3879H61.9C61.6004 39.3879 61.3752 39.4528 61.2243 39.5827C61.0757 39.7126 61.0014 39.8816 61.0014 40.0899V42.085H60.1704Z" fill="white"/>
<path d="M62.5251 42.0077V41.467H63.8122C64.0103 41.467 64.1534 41.4289 64.2412 41.3528C64.329 41.2744 64.3729 41.186 64.3729 41.0874C64.3729 40.9934 64.3358 40.915 64.2615 40.8523C64.1871 40.7896 64.0464 40.737 63.8392 40.6945C63.7243 40.6721 63.6309 40.653 63.5588 40.6374C63.4867 40.6217 63.4 40.5982 63.2987 40.5668C63.1973 40.5355 63.114 40.503 63.0487 40.4694C62.9856 40.4358 62.9181 40.3922 62.846 40.3384C62.7762 40.2825 62.721 40.2209 62.6805 40.1537C62.6399 40.0865 62.6062 40.0059 62.5791 39.9119C62.5521 39.8156 62.5386 39.7104 62.5386 39.5962C62.5386 39.3633 62.6028 39.1696 62.7311 39.0151C62.8618 38.8584 63.0318 38.7464 63.2412 38.6792C63.4507 38.612 63.6962 38.5785 63.9777 38.5785C64.1781 38.5785 64.3572 38.5885 64.5148 38.6087C64.6725 38.6288 64.8695 38.6669 65.106 38.7229V39.2636H64.0115C63.8043 39.2636 63.6568 39.2961 63.5689 39.361C63.4811 39.426 63.4372 39.5043 63.4372 39.5962C63.4372 39.6924 63.4743 39.7753 63.5487 39.8447C63.6252 39.9119 63.766 39.9667 63.9709 40.0093C64.079 40.0294 64.1714 40.0485 64.2479 40.0664C64.3268 40.0843 64.4146 40.1089 64.5114 40.1403C64.6083 40.1716 64.6905 40.2052 64.758 40.241C64.8256 40.2769 64.8932 40.3228 64.9607 40.3787C65.0306 40.4325 65.0869 40.4918 65.1296 40.5568C65.1724 40.6217 65.2062 40.7001 65.231 40.7919C65.258 40.8814 65.2715 40.98 65.2715 41.0874C65.2715 41.2755 65.2366 41.439 65.1668 41.5778C65.097 41.7166 64.9968 41.8275 64.8661 41.9103C64.7378 41.9932 64.5891 42.0536 64.4202 42.0917C64.2513 42.132 64.0621 42.1521 63.8527 42.1521C63.3707 42.1521 62.9282 42.104 62.5251 42.0077Z" fill="white"/>
<path d="M67.2749 42.1521C66.2142 42.1521 65.6838 41.5565 65.6838 40.3653C65.6838 39.1741 66.2142 38.5785 67.2749 38.5785C68.3357 38.5785 68.866 39.1741 68.866 40.3653C68.866 41.5565 68.3357 42.1521 67.2749 42.1521ZM66.5554 40.3653C66.5554 40.7303 66.6083 41.0079 66.7141 41.1983C66.82 41.3864 67.0069 41.4804 67.2749 41.4804C67.4123 41.4804 67.5283 41.4547 67.6229 41.4032C67.7175 41.3517 67.7918 41.2755 67.8458 41.1748C67.8999 41.0718 67.9382 40.9553 67.9607 40.8254C67.9832 40.6956 67.9945 40.5422 67.9945 40.3653C67.9945 40.0048 67.9404 39.7305 67.8323 39.5424C67.7265 39.3521 67.5407 39.2569 67.2749 39.2569C67.0069 39.2569 66.82 39.351 66.7141 39.5391C66.6083 39.7271 66.5554 40.0026 66.5554 40.3653Z" fill="white"/>
<path d="M69.2817 42.0077V41.467H70.5688C70.767 41.467 70.91 41.4289 70.9978 41.3528C71.0856 41.2744 71.1296 41.186 71.1296 41.0874C71.1296 40.9934 71.0924 40.915 71.0181 40.8523C70.9438 40.7896 70.803 40.737 70.5958 40.6945C70.4809 40.6721 70.3875 40.653 70.3154 40.6374C70.2433 40.6217 70.1566 40.5982 70.0553 40.5668C69.9539 40.5355 69.8706 40.503 69.8053 40.4694C69.7423 40.4358 69.6747 40.3922 69.6026 40.3384C69.5328 40.2825 69.4776 40.2209 69.4371 40.1537C69.3965 40.0865 69.3628 40.0059 69.3357 39.9119C69.3087 39.8156 69.2952 39.7104 69.2952 39.5962C69.2952 39.3633 69.3594 39.1696 69.4878 39.0151C69.6184 38.8584 69.7884 38.7464 69.9979 38.6792C70.2073 38.612 70.4528 38.5785 70.7343 38.5785C70.9347 38.5785 71.1138 38.5885 71.2714 38.6087C71.4291 38.6288 71.6261 38.6669 71.8626 38.7229V39.2636H70.7681C70.5609 39.2636 70.4134 39.2961 70.3256 39.361C70.2377 39.426 70.1938 39.5043 70.1938 39.5962C70.1938 39.6924 70.231 39.7753 70.3053 39.8447C70.3819 39.9119 70.5226 39.9667 70.7276 40.0093C70.8357 40.0294 70.928 40.0485 71.0046 40.0664C71.0834 40.0843 71.1712 40.1089 71.2681 40.1403C71.3649 40.1716 71.4471 40.2052 71.5147 40.241C71.5822 40.2769 71.6498 40.3228 71.7174 40.3787C71.7872 40.4325 71.8435 40.4918 71.8863 40.5568C71.9291 40.6217 71.9628 40.7001 71.9876 40.7919C72.0146 40.8814 72.0281 40.98 72.0281 41.0874C72.0281 41.2755 71.9932 41.439 71.9234 41.5778C71.8536 41.7166 71.7534 41.8275 71.6228 41.9103C71.4944 41.9932 71.3458 42.0536 71.1768 42.0917C71.0079 42.132 70.8188 42.1521 70.6093 42.1521C70.1274 42.1521 69.6848 42.104 69.2817 42.0077Z" fill="white"/>
<path fill-rule="evenodd" clip-rule="evenodd" d="M43.2161 16.4004C43.0417 16.4004 42.8942 16.4071 42.7869 16.4138C42.6796 16.4138 42.5925 16.4271 42.5321 16.4472C42.4718 16.4673 42.4248 16.494 42.398 16.5342C42.3712 16.5676 42.3444 16.6145 42.3243 16.6747L40.2322 22.6688C40.192 22.7892 40.1652 22.8896 40.1585 22.9631C40.145 23.0367 40.1585 23.0969 40.192 23.1371C40.2255 23.1772 40.2926 23.1973 40.3797 23.2107C40.4736 23.2174 40.5943 23.224 40.7552 23.224C40.9027 23.224 41.0234 23.224 41.1173 23.2107C41.2112 23.204 41.2849 23.1906 41.3319 23.1772C41.3855 23.1571 41.4191 23.1304 41.4459 23.0969C41.4727 23.0635 41.4928 23.0233 41.5062 22.9698L41.9354 21.6519H44.4834L44.9393 23.01C44.9527 23.0568 44.9661 23.0902 44.993 23.117C45.0131 23.1438 45.0533 23.1638 45.1002 23.1839C45.1539 23.204 45.2276 23.2107 45.3282 23.2107C45.4288 23.2174 45.5696 23.224 45.7439 23.224C45.9183 23.224 46.0524 23.2174 46.1463 23.2107C46.2468 23.204 46.3072 23.1839 46.3474 23.1438C46.3877 23.1036 46.4011 23.0501 46.3944 22.9765C46.3809 22.9029 46.3541 22.8026 46.3139 22.6755L44.2219 16.6814C44.2017 16.6145 44.1749 16.5676 44.1481 16.5275C44.1213 16.4874 44.0676 16.4606 44.0006 16.4405C43.9335 16.4205 43.8397 16.4071 43.719 16.4071C43.5916 16.4004 43.4239 16.4004 43.2161 16.4004ZM42.2371 20.5949L43.2027 17.725L44.1615 20.5949H42.2371ZM52.9923 16.4138C52.8649 16.4138 52.7644 16.4205 52.6839 16.4271C52.6034 16.4338 52.5364 16.4472 52.4894 16.4673C52.4358 16.4874 52.4023 16.5074 52.3822 16.5409C52.362 16.5676 52.3486 16.6011 52.3486 16.6345V19.8055C52.3486 20.0464 52.3486 20.2939 52.3553 20.5615C52.362 20.8224 52.3688 21.0833 52.3755 21.3174C52.3084 21.1769 52.2481 21.0432 52.181 20.9027L51.9731 20.4812C51.9061 20.334 51.8323 20.1868 51.7519 20.0464L51.5306 19.5981L50.2097 17.1296C50.1426 16.9958 50.0823 16.8821 50.0152 16.7951C49.9482 16.7014 49.8811 16.6278 49.8073 16.5743C49.7403 16.5208 49.6598 16.4874 49.566 16.4673C49.4721 16.4405 49.3648 16.4271 49.2307 16.4271H48.4931C48.3523 16.4271 48.2316 16.4673 48.1377 16.5476C48.0439 16.6278 47.9969 16.7483 47.9969 16.9155V22.9899C47.9969 23.0233 48.0036 23.0568 48.0237 23.0836C48.0439 23.1103 48.0774 23.1371 48.1176 23.1571C48.1645 23.1772 48.2316 23.1839 48.3054 23.1973C48.3858 23.204 48.4864 23.2107 48.6071 23.2107C48.7345 23.2107 48.8351 23.204 48.9155 23.1973C48.996 23.1839 49.0563 23.1705 49.1033 23.1571C49.1502 23.1371 49.1838 23.1103 49.2039 23.0836C49.224 23.0568 49.2374 23.0233 49.2374 22.9899V19.4577C49.2374 19.1901 49.2374 18.9358 49.224 18.6883C49.2173 18.4408 49.2106 18.1866 49.2039 17.9391C49.2843 18.1464 49.3715 18.3538 49.4788 18.5746C49.5794 18.7887 49.6799 18.9961 49.7805 19.1834L51.4635 22.341C51.5574 22.5149 51.6312 22.6554 51.6982 22.7691C51.772 22.8762 51.839 22.9631 51.9128 23.03C51.9866 23.0969 52.0737 23.1371 52.1542 23.1638C52.2414 23.1839 52.3553 23.1973 52.476 23.1973H53.0594C53.1264 23.1973 53.1868 23.1906 53.2538 23.1705C53.3209 23.1505 53.3745 23.117 53.4215 23.0769C53.4684 23.0367 53.5086 22.9832 53.5355 22.9163C53.5623 22.8561 53.5757 22.7825 53.5757 22.7022V16.6345C53.5757 16.6011 53.569 16.5743 53.5489 16.5409C53.5288 16.5141 53.4952 16.4874 53.455 16.4673C53.4081 16.4405 53.3477 16.4271 53.274 16.4271C53.2069 16.4138 53.1063 16.4138 52.9923 16.4138ZM57.9945 16.4338H56.2913C56.1773 16.4338 56.0768 16.4673 55.9963 16.5409C55.9225 16.6078 55.8823 16.7148 55.8823 16.8687V22.7624C55.8823 22.9163 55.9225 23.03 55.9963 23.0969C56.0768 23.1638 56.1706 23.1973 56.2913 23.1973H58.0951C58.3633 23.1973 58.6114 23.1839 58.8326 23.1505C59.0539 23.117 59.2685 23.0635 59.4562 22.9966C59.6507 22.9297 59.8317 22.836 59.9926 22.729C60.1536 22.622 60.2944 22.4949 60.4084 22.341C60.5291 22.1871 60.6229 22.0199 60.6833 21.8259C60.7503 21.6319 60.7839 21.4111 60.7839 21.1703C60.7839 20.9361 60.7503 20.7354 60.6766 20.5481C60.6095 20.3675 60.5157 20.2069 60.3883 20.0664C60.2743 19.9326 60.1268 19.8122 59.9658 19.7252C59.8049 19.6383 59.6306 19.5781 59.4361 19.5379C59.5836 19.4844 59.7177 19.4108 59.8317 19.3172C59.9524 19.2302 60.053 19.1232 60.1267 19.0027C60.2072 18.8823 60.2676 18.7552 60.3145 18.6147C60.3614 18.4676 60.3748 18.3137 60.3748 18.1464C60.3748 17.8521 60.3212 17.5979 60.2206 17.3838C60.1133 17.1697 59.9591 16.9891 59.7647 16.8486C59.5702 16.7081 59.3288 16.6011 59.0405 16.5342C58.7589 16.4673 58.4102 16.4338 57.9945 16.4338ZM57.2368 19.2101V17.4574H57.9341C58.1487 17.4574 58.3163 17.4775 58.4437 17.5109C58.5711 17.551 58.6784 17.6046 58.7656 17.6782C58.846 17.7451 58.9131 17.832 58.9533 17.9391C58.9936 18.0461 59.0137 18.1665 59.0137 18.307C59.0137 18.4274 58.9936 18.5411 58.96 18.6549C58.9198 18.7619 58.8595 18.8623 58.779 18.9425C58.7052 19.0228 58.6047 19.083 58.484 19.1365C58.3633 19.1834 58.209 19.2034 58.0079 19.2034H57.2368V19.2101ZM57.2368 22.1403V20.2203H58.0548C58.3029 20.2203 58.5108 20.2471 58.665 20.2872C58.8192 20.334 58.9533 20.3942 59.0539 20.4812C59.1545 20.5682 59.2282 20.6685 59.2819 20.7956C59.3355 20.916 59.3623 21.0565 59.3623 21.2171C59.3623 21.3643 59.3355 21.4981 59.2819 21.6185C59.2282 21.7322 59.1545 21.8326 59.0606 21.9128C58.9667 21.9864 58.8527 22.0466 58.7186 22.0868C58.5912 22.1269 58.4303 22.147 58.2359 22.147H57.2368V22.1403ZM63.2916 16.4004C63.1575 16.4004 63.0502 16.4071 62.9631 16.4205C62.8759 16.4338 62.8021 16.4472 62.7485 16.4606C62.6949 16.4807 62.6613 16.5007 62.6345 16.5275C62.6144 16.5543 62.601 16.5877 62.601 16.6212V23.0033C62.601 23.0367 62.6144 23.0702 62.6345 23.0969C62.6613 23.1237 62.6949 23.1505 62.7485 23.1638C62.8021 23.1839 62.8692 23.1906 62.9564 23.204C63.0502 23.2107 63.1575 23.2174 63.2916 23.2174C63.4257 23.2174 63.5397 23.2107 63.6269 23.204C63.7141 23.1906 63.7878 23.1772 63.8348 23.1638C63.8884 23.1438 63.9286 23.1237 63.942 23.0969C63.9689 23.0702 63.9823 23.0367 63.9823 23.0033V16.6212C63.9823 16.5877 63.9689 16.5543 63.942 16.5275C63.9219 16.5007 63.8884 16.4807 63.8348 16.4606C63.7811 16.4472 63.7141 16.4338 63.6269 16.4205C63.5397 16.4071 63.4257 16.4004 63.2916 16.4004ZM73.5976 16.4338H72.6723C72.5449 16.4338 72.4309 16.4472 72.3303 16.474C72.2365 16.5007 72.1493 16.5409 72.0755 16.6011C72.0018 16.6613 71.9414 16.7416 71.8878 16.8486C71.8341 16.949 71.7805 17.0761 71.7403 17.2232L70.1981 21.2372L68.7296 17.2099C68.6894 17.0627 68.6357 16.9423 68.5821 16.8486C68.5285 16.7483 68.4547 16.668 68.3742 16.6078C68.2938 16.5476 68.1932 16.5007 68.0792 16.4807C67.9652 16.4539 67.8244 16.4405 67.6635 16.4405H66.7583C66.604 16.4405 66.4766 16.4874 66.3828 16.581C66.2889 16.6747 66.242 16.8085 66.242 16.9891V23.01C66.242 23.0434 66.2487 23.0769 66.2688 23.1036C66.2956 23.1304 66.3291 23.1571 66.3761 23.1705C66.4297 23.1906 66.4967 23.1973 66.5772 23.2107C66.6577 23.2174 66.765 23.224 66.8924 23.224C67.0265 23.224 67.127 23.2174 67.2075 23.2107C67.288 23.1973 67.3617 23.1839 67.4087 23.1705C67.4623 23.1505 67.5025 23.1304 67.516 23.1036C67.5361 23.0769 67.5495 23.0434 67.5495 23.01L67.5629 17.5042L69.4538 23.0033C69.4672 23.0434 69.4873 23.0769 69.5141 23.1036C69.5477 23.1304 69.5879 23.1571 69.6415 23.1772C69.6952 23.1973 69.7689 23.2107 69.8494 23.2174C69.9299 23.224 70.0304 23.2307 70.1511 23.2307C70.2718 23.2307 70.3724 23.2307 70.4529 23.2174C70.5333 23.2174 70.6071 23.204 70.654 23.1906C70.7144 23.1705 70.7546 23.1505 70.7881 23.1237C70.8217 23.0902 70.8418 23.0568 70.8552 23.01L72.8332 17.5109V23.0167C72.8332 23.0501 72.8399 23.0836 72.8601 23.1103C72.8802 23.1371 72.9137 23.1638 72.9673 23.1772C73.0143 23.1973 73.0813 23.204 73.1618 23.2174C73.2423 23.224 73.3495 23.2307 73.4769 23.2307C73.6043 23.2307 73.7116 23.224 73.7988 23.2174C73.8793 23.204 73.9463 23.1906 73.9932 23.1772C74.0469 23.1571 74.0804 23.1371 74.1005 23.1103C74.1273 23.0836 74.1341 23.0501 74.1341 23.0167V16.9958C74.1341 16.9088 74.1206 16.8352 74.0938 16.7683C74.0737 16.7014 74.0402 16.6412 73.9932 16.5944C73.953 16.5476 73.8994 16.5074 73.8256 16.4874C73.772 16.4405 73.6915 16.4338 73.5976 16.4338ZM78.7875 16.4004C78.6065 16.4004 78.4657 16.4071 78.3584 16.4138C78.2511 16.4138 78.1706 16.4271 78.1036 16.4472C78.0432 16.4673 77.9963 16.494 77.9762 16.5342C77.9493 16.5676 77.9225 16.6145 77.9024 16.6747L75.8104 22.6688C75.7701 22.7892 75.7433 22.8896 75.7366 22.9631C75.7299 23.0367 75.7366 23.0969 75.7701 23.1371C75.8037 23.1772 75.8707 23.1973 75.9579 23.2107C76.0518 23.2174 76.1725 23.224 76.3334 23.224C76.4809 23.224 76.6016 23.224 76.6955 23.2107C76.7893 23.204 76.8631 23.1906 76.91 23.1772C76.9637 23.1571 76.9972 23.1304 77.0173 23.0969C77.0441 23.0635 77.0643 23.0233 77.0777 22.9698L77.5001 21.6519H80.0481L80.5041 23.01C80.5175 23.0568 80.5376 23.0902 80.5577 23.117C80.5778 23.1438 80.618 23.1638 80.665 23.1839C80.7186 23.204 80.7924 23.2107 80.893 23.2107C80.9935 23.2174 81.1343 23.224 81.3087 23.224C81.483 23.224 81.6104 23.2174 81.711 23.2107C81.8116 23.204 81.8786 23.1839 81.9122 23.1438C81.9524 23.1036 81.9658 23.0501 81.9524 22.9765C81.9457 22.9029 81.9189 22.8026 81.8786 22.6755L79.7799 16.6814C79.7598 16.6145 79.733 16.5676 79.6994 16.5275C79.6726 16.4874 79.6257 16.4606 79.5586 16.4405C79.4916 16.4205 79.3977 16.4071 79.2703 16.4071C79.1563 16.4004 78.9887 16.4004 78.7875 16.4004ZM77.8085 20.5949L78.7741 17.725L79.733 20.5949H77.8085Z" fill="#4D4D4F"/>
<path d="M43.6922 12.2281H43.0552L42.6797 11.0239H41.0302L40.6614 12.2281H40.0244L41.4593 7.64551H42.2506L43.6922 12.2281ZM41.1509 10.5556H42.559L41.855 8.33456H41.8482L41.1509 10.5556Z" fill="#4A4C4E"/>
<path d="M46.8097 8.88477V12.2297H46.3068L46.2733 11.8216H46.2599C45.985 12.1628 45.6229 12.2966 45.2004 12.2966C44.5232 12.2966 44.1611 11.8818 44.1611 11.2797V8.88477H44.6976V11.2463C44.6976 11.641 45.0127 11.8618 45.4083 11.8618C45.7972 11.8618 46.2733 11.5875 46.2733 11.079V8.88477H46.8097Z" fill="#4A4C4E"/>
<path d="M47.8288 11.5139V9.31297H47.2793V8.98517L47.8288 8.88482L48.0499 7.94824H48.3649V8.88482H49.2897V9.31297H48.3649V11.4805C48.3649 11.7548 48.4788 11.8284 48.7335 11.8284H49.2897V12.1762C49.0216 12.2565 48.8675 12.2966 48.6329 12.2966C47.9896 12.2966 47.8288 11.9354 47.8288 11.5139Z" fill="#4A4C4E"/>
<path d="M49.707 10.5577C49.707 9.52748 50.0959 8.81836 51.1621 8.81836C52.2349 8.81836 52.6238 9.52748 52.6238 10.5577C52.6238 11.5946 52.2349 12.2971 51.1621 12.2971C50.0959 12.2971 49.707 11.5946 49.707 10.5577ZM50.2703 10.5577C50.2703 11.2869 50.4714 11.8422 51.1621 11.8422C51.8594 11.8422 52.0606 11.2869 52.0606 10.5577C52.0606 9.82853 51.8594 9.27327 51.1621 9.27327C50.4714 9.27327 50.2703 9.82853 50.2703 10.5577Z" fill="#4A4C4E"/>
<path d="M53.3623 12.2302V8.88526H53.8649L53.8984 9.44721H53.9118C54.1329 9.00568 54.5819 8.81836 55.0041 8.81836V9.36024H54.8701C54.267 9.36024 53.8984 9.75494 53.8984 10.2232V12.2302H53.3623Z" fill="#4A4C4E"/>
<path d="M55.5742 12.2302V8.88526H56.0768L56.1103 9.44721H56.1237C56.3449 9.00568 56.7938 8.81836 57.216 8.81836V9.36024H57.082C56.4789 9.36024 56.1103 9.75494 56.1103 10.2232V12.2302H55.5742Z" fill="#4A4C4E"/>
<path d="M58.2218 10.7183C58.2352 11.3471 58.4565 11.8288 59.1069 11.8288H60.2133V12.1767C59.7908 12.2636 59.4355 12.2971 59.1069 12.2971C58.0408 12.2971 57.6519 11.5946 57.6519 10.5577C57.6519 9.52748 58.1078 8.81836 59.1874 8.81836C60.0255 8.81836 60.4345 9.31341 60.4345 9.80846C60.4345 10.2567 60.2334 10.7183 59.4556 10.7183H58.2218ZM58.2285 10.3436H59.3215C59.7707 10.3436 59.8981 10.0761 59.8981 9.82853C59.8981 9.55424 59.6433 9.28665 59.174 9.28665C58.5437 9.28665 58.2687 9.74825 58.2285 10.3436Z" fill="#4A4C4E"/>
<path d="M63.2502 11.8216H63.2368C62.9753 12.1628 62.6936 12.2966 62.2846 12.2966C61.3526 12.2966 61.0039 11.6008 61.0039 10.5639C61.0039 9.53368 61.4599 8.88477 62.4858 8.88477H63.7866V11.8952C63.7866 12.9321 63.3977 13.6346 62.3248 13.6346C61.9963 13.6346 61.7013 13.6011 61.2721 13.5141V13.1663H62.3517C63.049 13.1663 63.2502 12.6244 63.2502 11.9487V11.8216ZM63.2502 9.33299H62.5126C61.8152 9.33299 61.5672 9.86149 61.5672 10.5639C61.5672 11.2797 61.7348 11.8551 62.4522 11.8551C62.8412 11.8551 63.2502 11.5808 63.2502 11.0657V9.33299Z" fill="#4A4C4E"/>
<path d="M67.2414 8.88477V12.2297H66.7385L66.7049 11.8216H66.6915C66.4166 12.1628 66.0545 12.2966 65.6321 12.2966C64.9549 12.2966 64.5928 11.8818 64.5928 11.2797V8.88477H65.1292V11.2463C65.1292 11.641 65.4443 11.8618 65.84 11.8618C66.2289 11.8618 66.7049 11.5875 66.7049 11.079V8.88477H67.2414Z" fill="#4A4C4E"/>
<path d="M68.0444 7.54688H68.5805V11.4805C68.5805 11.7682 68.6475 11.8284 69.0831 11.8284V12.2632C68.1785 12.3301 68.0444 12.096 68.0444 11.4805V7.54688Z" fill="#4A4C4E"/>
<path d="M69.6547 9.28665V8.93878C70.0839 8.86519 70.5063 8.81836 70.855 8.81836C71.606 8.81836 72.0418 9.06588 72.0418 9.90881V12.2302H71.5389L71.5054 11.8221H71.492C71.1969 12.1967 70.8885 12.2971 70.4594 12.2971C69.8291 12.2971 69.4268 11.9091 69.4268 11.3204C69.4268 10.5845 69.9297 10.3236 70.5667 10.3236H71.5054V9.93556C71.5054 9.52079 71.3713 9.28665 70.808 9.28665H69.6547ZM71.5054 10.7049H70.6874C70.218 10.7049 69.9632 10.8989 69.9632 11.2936C69.9632 11.695 70.2716 11.8622 70.6672 11.8622C71.036 11.8622 71.5054 11.6147 71.5054 11.0795V10.7049Z" fill="#4A4C4E"/>
<path d="M74.0279 12.2837C73.116 12.2034 72.7808 11.5278 72.7808 10.5577C72.7808 9.52748 73.1697 8.81836 74.2358 8.81836C74.5644 8.81836 74.8192 8.85181 75.2416 8.93878V9.28665H74.2358C73.5452 9.28665 73.344 9.82853 73.344 10.5577C73.344 11.2869 73.5452 11.8288 74.2358 11.8288H75.2416V12.1767C74.8527 12.2569 74.6046 12.2904 74.3163 12.2971V12.5714C74.5375 12.5981 74.8661 12.7319 74.8661 13.053C74.8661 13.3675 74.6381 13.5682 74.2157 13.5682C74.0615 13.5682 73.9207 13.5548 73.753 13.508V13.2939H74.1486C74.3364 13.2939 74.4504 13.2203 74.4504 13.0664C74.4504 12.9192 74.3431 12.7921 74.0279 12.7654V12.2837Z" fill="#4A4C4E"/>
<path d="M75.8706 9.28623V8.93836C76.2997 8.86477 76.7221 8.81794 77.0708 8.81794C77.8218 8.81794 78.2576 9.06546 78.2576 9.90839V12.2298H77.7547L77.7212 11.8217H77.7078C77.4128 12.1963 77.1043 12.2967 76.6752 12.2967C76.0449 12.2967 75.6426 11.9087 75.6426 11.3199C75.6426 10.5841 76.1455 10.3232 76.7825 10.3232H77.7212V9.93515C77.7212 9.52038 77.5871 9.28623 77.0239 9.28623H75.8706ZM76.6886 8.11551C76.5009 8.11551 76.3131 8.20916 76.1589 8.35634L76.0181 8.0553C76.2259 7.80108 76.4338 7.70073 76.6886 7.70073C76.997 7.70073 77.2384 7.9215 77.4597 7.9215C77.6475 7.9215 77.8352 7.82784 77.9894 7.68066L78.1302 7.98171C77.9157 8.23592 77.7145 8.34296 77.4597 8.34296C77.2183 8.34296 76.9032 8.11551 76.6886 8.11551ZM77.7212 10.7045H76.9032C76.4338 10.7045 76.179 10.8985 76.179 11.2932C76.179 11.6946 76.4874 11.8618 76.8831 11.8618C77.2518 11.8618 77.7212 11.6143 77.7212 11.0791V10.7045Z" fill="#4A4C4E"/>
<path d="M79.0225 10.5577C79.0225 9.52748 79.4114 8.81836 80.4775 8.81836C81.5503 8.81836 81.9393 9.52748 81.9393 10.5577C81.9393 11.5946 81.5503 12.2971 80.4775 12.2971C79.4114 12.2971 79.0225 11.5946 79.0225 10.5577ZM79.5857 10.5577C79.5857 11.2869 79.7869 11.8422 80.4775 11.8422C81.1749 11.8422 81.376 11.2869 81.376 10.5577C81.376 9.82853 81.1749 9.27327 80.4775 9.27327C79.7869 9.27327 79.5857 9.82853 79.5857 10.5577Z" fill="#4A4C4E"/>
</svg>
