<svg width="90" height="52" viewBox="0 0 90 52" fill="none" xmlns="http://www.w3.org/2000/svg">
<path d="M86.1502 51H1V3.84319C1 2.27107 2.274 1 3.84974 1H88.9999V48.1635C88.9999 49.7289 87.7259 51 86.1502 51Z" fill="white"/>
<path fill-rule="evenodd" clip-rule="evenodd" d="M28.563 23.1694H27.6242C27.6242 23.1694 25.1902 23.4437 23.7285 21.3364C23.0378 20.266 16.0576 9.88334 16.0576 9.88334L11.1829 23.1694H7.99121L13.4895 7.58203H18.2905L28.563 23.1694Z" fill="#FBAA21"/>
<path fill-rule="evenodd" clip-rule="evenodd" d="M12.6689 23.1704H13.6077C13.6077 23.1704 16.0417 23.4447 17.5101 21.3374C18.2008 20.267 25.181 9.88432 25.181 9.88432L30.0557 23.1704H33.2474L27.7424 7.58301H22.9414L12.6689 23.1704Z" fill="#59BA47"/>
<path d="M20.622 16.6868L18.7646 13.9172L20.622 11.1074L22.4794 13.9172L20.622 16.6868Z" fill="#008ECB"/>
<path d="M88.725 29.7676L88.8859 48.051C88.8859 49.6231 87.6119 50.8942 86.0362 50.8942L1 50.7202V29.7676H88.725Z" fill="#2E4A84"/>
<path d="M86.1502 51H1V3.84319C1 2.27107 2.274 1 3.84974 1H88.9999V48.1635C88.9999 49.7289 87.7259 51 86.1502 51Z" stroke="#4A4C4E" stroke-width="0.5" stroke-miterlimit="10"/>
<path fill-rule="evenodd" clip-rule="evenodd" d="M43.2156 16.3994C43.0412 16.3994 42.8937 16.4061 42.7864 16.4128C42.6792 16.4128 42.592 16.4262 42.5316 16.4462C42.4713 16.4663 42.4244 16.4931 42.3975 16.5332C42.3707 16.5667 42.3439 16.6135 42.3238 16.6737L40.2317 22.6678C40.1915 22.7882 40.1647 22.8886 40.158 22.9622C40.1446 23.0358 40.158 23.096 40.1915 23.1361C40.225 23.1762 40.2921 23.1963 40.3792 23.2097C40.4731 23.2164 40.5938 23.2231 40.7547 23.2231C40.9023 23.2231 41.023 23.2231 41.1168 23.2097C41.2107 23.203 41.2845 23.1896 41.3314 23.1762C41.385 23.1562 41.4186 23.1294 41.4454 23.096C41.4722 23.0625 41.4923 23.0224 41.5057 22.9689L41.9349 21.651H44.4829L44.9388 23.009C44.9522 23.0558 44.9657 23.0893 44.9925 23.116C45.0126 23.1428 45.0528 23.1629 45.0998 23.1829C45.1534 23.203 45.2272 23.2097 45.3277 23.2097C45.4283 23.2164 45.5691 23.2231 45.7435 23.2231C45.9178 23.2231 46.0519 23.2164 46.1458 23.2097C46.2464 23.203 46.3067 23.1829 46.3469 23.1428C46.3872 23.1027 46.4006 23.0491 46.3939 22.9755C46.3805 22.902 46.3536 22.8016 46.3134 22.6745L44.2214 16.6804C44.2012 16.6135 44.1744 16.5667 44.1476 16.5265C44.1208 16.4864 44.0671 16.4596 44.0001 16.4396C43.933 16.4195 43.8392 16.4061 43.7185 16.4061C43.5911 16.3994 43.4234 16.3994 43.2156 16.3994ZM42.2366 20.594L43.2022 17.724L44.161 20.594H42.2366ZM52.9919 16.4128C52.8645 16.4128 52.7639 16.4195 52.6834 16.4262C52.603 16.4329 52.5359 16.4462 52.489 16.4663C52.4353 16.4864 52.4018 16.5065 52.3817 16.5399C52.3616 16.5667 52.3482 16.6001 52.3482 16.6336V19.8046C52.3482 20.0454 52.3481 20.2929 52.3549 20.5605C52.3616 20.8214 52.3683 21.0823 52.375 21.3165C52.3079 21.176 52.2476 21.0422 52.1805 20.9017L51.9727 20.4802C51.9056 20.3331 51.8318 20.1859 51.7514 20.0454L51.5301 19.5972L50.2092 17.1286C50.1421 16.9948 50.0818 16.8811 50.0147 16.7941C49.9477 16.7005 49.8806 16.6269 49.8069 16.5734C49.7398 16.5198 49.6593 16.4864 49.5655 16.4663C49.4716 16.4396 49.3643 16.4262 49.2302 16.4262H48.4926C48.3518 16.4262 48.2311 16.4663 48.1372 16.5466C48.0434 16.6269 47.9964 16.7473 47.9964 16.9145V22.9889C47.9964 23.0224 48.0031 23.0558 48.0232 23.0826C48.0434 23.1093 48.0769 23.1361 48.1171 23.1562C48.1641 23.1762 48.2311 23.1829 48.3049 23.1963C48.3853 23.203 48.4859 23.2097 48.6066 23.2097C48.734 23.2097 48.8346 23.203 48.9151 23.1963C48.9955 23.1829 49.0559 23.1695 49.1028 23.1562C49.1497 23.1361 49.1833 23.1093 49.2034 23.0826C49.2235 23.0558 49.2369 23.0224 49.2369 22.9889V19.4567C49.2369 19.1891 49.2369 18.9349 49.2235 18.6873C49.2168 18.4398 49.2101 18.1856 49.2034 17.9381C49.2838 18.1455 49.371 18.3529 49.4783 18.5736C49.5789 18.7877 49.6795 18.9951 49.78 19.1824L51.4631 22.34C51.5569 22.5139 51.6307 22.6544 51.6977 22.7682C51.7715 22.8752 51.8385 22.9622 51.9123 23.0291C51.9861 23.096 52.0732 23.1361 52.1537 23.1629C52.2409 23.1829 52.3549 23.1963 52.4755 23.1963H53.0589C53.126 23.1963 53.1863 23.1896 53.2534 23.1695C53.3204 23.1495 53.3741 23.116 53.421 23.0759C53.4679 23.0358 53.5082 22.9822 53.535 22.9153C53.5618 22.8551 53.5752 22.7815 53.5752 22.7013V16.6336C53.5752 16.6001 53.5685 16.5733 53.5484 16.5399C53.5283 16.5131 53.4947 16.4864 53.4545 16.4663C53.4076 16.4396 53.3472 16.4262 53.2735 16.4262C53.2064 16.4128 53.1058 16.4128 52.9919 16.4128ZM57.994 16.4329H56.2908C56.1769 16.4329 56.0763 16.4663 55.9958 16.5399C55.9221 16.6068 55.8818 16.7138 55.8818 16.8677V22.7615C55.8818 22.9153 55.9221 23.0291 55.9958 23.096C56.0763 23.1629 56.1702 23.1963 56.2908 23.1963H58.0946C58.3628 23.1963 58.6109 23.1829 58.8321 23.1495C59.0534 23.116 59.268 23.0625 59.4557 22.9956C59.6502 22.9287 59.8312 22.8351 59.9922 22.728C60.1531 22.621 60.2939 22.4939 60.4079 22.34C60.5286 22.1861 60.6225 22.0189 60.6828 21.8249C60.7499 21.6309 60.7834 21.4101 60.7834 21.1693C60.7834 20.9351 60.7499 20.7344 60.6761 20.5471C60.609 20.3665 60.5152 20.2059 60.3878 20.0655C60.2738 19.9317 60.1263 19.8112 59.9653 19.7243C59.8044 19.6373 59.6301 19.5771 59.4356 19.537C59.5831 19.4834 59.7172 19.4098 59.8312 19.3162C59.9519 19.2292 60.0525 19.1222 60.1263 19.0018C60.2067 18.8814 60.2671 18.7542 60.314 18.6138C60.3609 18.4666 60.3744 18.3127 60.3744 18.1455C60.3744 17.8511 60.3207 17.5969 60.2201 17.3828C60.1129 17.1687 59.9586 16.9881 59.7642 16.8476C59.5697 16.7071 59.3283 16.6001 59.04 16.5332C58.7584 16.4663 58.4097 16.4329 57.994 16.4329ZM57.2363 19.2092V17.4564H57.9336C58.1482 17.4564 58.3158 17.4765 58.4432 17.5099C58.5706 17.5501 58.6779 17.6036 58.7651 17.6772C58.8456 17.7441 58.9126 17.831 58.9528 17.9381C58.9931 18.0451 59.0132 18.1655 59.0132 18.306C59.0132 18.4264 58.9931 18.5402 58.9595 18.6539C58.9193 18.7609 58.859 18.8613 58.7785 18.9416C58.7047 19.0218 58.6042 19.082 58.4835 19.1356C58.3628 19.1824 58.2086 19.2025 58.0074 19.2025H57.2363V19.2092ZM57.2363 22.1393V20.2193H58.0543C58.3024 20.2193 58.5103 20.2461 58.6645 20.2862C58.8187 20.333 58.9528 20.3933 59.0534 20.4802C59.154 20.5672 59.2278 20.6675 59.2814 20.7947C59.335 20.9151 59.3619 21.0556 59.3619 21.2161C59.3619 21.3633 59.335 21.4971 59.2814 21.6175C59.2278 21.7312 59.154 21.8316 59.0601 21.9119C58.9662 21.9854 58.8523 22.0457 58.7182 22.0858C58.5908 22.1259 58.4298 22.146 58.2354 22.146H57.2363V22.1393ZM63.2911 16.3994C63.157 16.3994 63.0498 16.4061 62.9626 16.4195C62.8754 16.4329 62.8017 16.4462 62.748 16.4596C62.6944 16.4797 62.6609 16.4998 62.634 16.5265C62.6139 16.5533 62.6005 16.5867 62.6005 16.6202V23.0023C62.6005 23.0358 62.6139 23.0692 62.634 23.096C62.6609 23.1227 62.6944 23.1495 62.748 23.1629C62.8017 23.1829 62.8687 23.1896 62.9559 23.203C63.0498 23.2097 63.157 23.2164 63.2911 23.2164C63.4253 23.2164 63.5392 23.2097 63.6264 23.203C63.7136 23.1896 63.7873 23.1762 63.8343 23.1629C63.8879 23.1428 63.9282 23.1227 63.9416 23.096C63.9684 23.0692 63.9818 23.0358 63.9818 23.0023V16.6202C63.9818 16.5867 63.9684 16.5533 63.9416 16.5265C63.9214 16.4998 63.8879 16.4797 63.8343 16.4596C63.7806 16.4462 63.7136 16.4329 63.6264 16.4195C63.5392 16.4061 63.4253 16.3994 63.2911 16.3994ZM73.5971 16.4329H72.6718C72.5444 16.4329 72.4304 16.4462 72.3298 16.473C72.236 16.4998 72.1488 16.5399 72.075 16.6001C72.0013 16.6603 71.9409 16.7406 71.8873 16.8476C71.8337 16.948 71.78 17.0751 71.7398 17.2223L70.1976 21.2362L68.7291 17.2089C68.6889 17.0617 68.6352 16.9413 68.5816 16.8476C68.528 16.7473 68.4542 16.667 68.3737 16.6068C68.2933 16.5466 68.1927 16.4998 68.0787 16.4797C67.9647 16.4529 67.8239 16.4396 67.663 16.4396H66.7578C66.6035 16.4396 66.4762 16.4864 66.3823 16.58C66.2884 16.6737 66.2415 16.8075 66.2415 16.9881V23.009C66.2415 23.0424 66.2482 23.0759 66.2683 23.1027C66.2951 23.1294 66.3286 23.1562 66.3756 23.1695C66.4292 23.1896 66.4963 23.1963 66.5767 23.2097C66.6572 23.2164 66.7645 23.2231 66.8919 23.2231C67.026 23.2231 67.1266 23.2164 67.207 23.2097C67.2875 23.1963 67.3612 23.1829 67.4082 23.1695C67.4618 23.1495 67.5021 23.1294 67.5155 23.1027C67.5356 23.0759 67.549 23.0424 67.549 23.009L67.5624 17.5032L69.4533 23.0023C69.4667 23.0424 69.4868 23.0759 69.5136 23.1027C69.5472 23.1294 69.5874 23.1562 69.641 23.1762C69.6947 23.1963 69.7684 23.2097 69.8489 23.2164C69.9294 23.2231 70.0299 23.2298 70.1506 23.2298C70.2713 23.2298 70.3719 23.2298 70.4524 23.2164C70.5328 23.2164 70.6066 23.203 70.6535 23.1896C70.7139 23.1695 70.7541 23.1495 70.7876 23.1227C70.8212 23.0893 70.8413 23.0558 70.8547 23.009L72.8327 17.5099V23.0157C72.8327 23.0491 72.8394 23.0826 72.8596 23.1093C72.8797 23.1361 72.9132 23.1629 72.9669 23.1762C73.0138 23.1963 73.0808 23.203 73.1613 23.2164C73.2418 23.2231 73.349 23.2298 73.4764 23.2298C73.6038 23.2298 73.7111 23.2231 73.7983 23.2164C73.8788 23.203 73.9458 23.1896 73.9928 23.1762C74.0464 23.1562 74.0799 23.1361 74.1 23.1093C74.1269 23.0826 74.1336 23.0491 74.1336 23.0157V16.9948C74.1336 16.9078 74.1202 16.8343 74.0933 16.7674C74.0732 16.7005 74.0397 16.6402 73.9928 16.5934C73.9525 16.5466 73.8989 16.5065 73.8251 16.4864C73.7715 16.4396 73.691 16.4329 73.5971 16.4329ZM78.787 16.3994C78.606 16.3994 78.4652 16.4061 78.3579 16.4128C78.2506 16.4128 78.1701 16.4262 78.1031 16.4462C78.0427 16.4663 77.9958 16.4931 77.9757 16.5332C77.9489 16.5667 77.922 16.6135 77.9019 16.6737L75.8099 22.6678C75.7696 22.7882 75.7428 22.8886 75.7361 22.9622C75.7294 23.0358 75.7361 23.096 75.7697 23.1361C75.8032 23.1762 75.8702 23.1963 75.9574 23.2097C76.0513 23.2164 76.172 23.2231 76.3329 23.2231C76.4804 23.2231 76.6011 23.2231 76.695 23.2097C76.7889 23.203 76.8626 23.1896 76.9095 23.1762C76.9632 23.1562 76.9967 23.1294 77.0168 23.096C77.0437 23.0625 77.0638 23.0224 77.0772 22.9689L77.4996 21.651H80.0476L80.5036 23.009C80.517 23.0558 80.5371 23.0893 80.5572 23.116C80.5773 23.1428 80.6176 23.1629 80.6645 23.1829C80.7181 23.203 80.7919 23.2097 80.8925 23.2097C80.9931 23.2164 81.1339 23.2231 81.3082 23.2231C81.4825 23.2231 81.6099 23.2164 81.7105 23.2097C81.8111 23.203 81.8781 23.1829 81.9117 23.1428C81.9519 23.1027 81.9653 23.0491 81.9519 22.9755C81.9452 22.902 81.9184 22.8016 81.8782 22.6745L79.7794 16.6804C79.7593 16.6135 79.7325 16.5667 79.6989 16.5265C79.6721 16.4864 79.6252 16.4596 79.5581 16.4396C79.4911 16.4195 79.3972 16.4061 79.2698 16.4061C79.1558 16.3994 78.9882 16.3994 78.787 16.3994ZM77.808 20.594L78.7736 17.724L79.7325 20.594H77.808Z" fill="#4D4D4F"/>
<path d="M11.0645 42.084L12.463 37.3717H13.6994L15.1115 42.084H14.142L13.8177 40.9823H12.3448L12.034 42.084H11.0645ZM12.5036 40.2972H13.6521L13.0846 38.3692H13.0711L12.5036 40.2972Z" fill="white"/>
<path d="M15.3886 40.3643C15.3886 39.8023 15.5148 39.3645 15.767 39.0511C16.0215 38.7353 16.4077 38.5775 16.9257 38.5775C17.1307 38.5775 17.3559 38.5954 17.6013 38.6312V37.2676H18.4324V42.084H17.6723L17.6013 41.691H17.5878C17.4617 41.8545 17.3288 41.972 17.1892 42.0437C17.0496 42.1153 16.8807 42.1512 16.6825 42.1512C16.3852 42.1512 16.1386 42.0762 15.9427 41.9261C15.7467 41.7761 15.6049 41.5712 15.517 41.3115C15.4314 41.0495 15.3886 40.7338 15.3886 40.3643ZM16.2602 40.3643C16.2602 40.5054 16.2658 40.6297 16.2771 40.7371C16.2884 40.8424 16.3086 40.9443 16.3379 41.0428C16.3694 41.1413 16.41 41.223 16.4595 41.288C16.5113 41.3507 16.5789 41.4011 16.6622 41.4391C16.7478 41.4749 16.8469 41.4929 16.9595 41.4929C17.1239 41.4929 17.2714 41.438 17.402 41.3283C17.5349 41.2186 17.6013 41.0652 17.6013 40.8681V39.2627H17.0135C16.7433 39.2627 16.5496 39.3589 16.4325 39.5515C16.3176 39.7418 16.2602 40.0128 16.2602 40.3643Z" fill="white"/>
<path d="M18.9865 42.084V38.6447H19.75L19.8176 39.0443H19.8311C20.0811 38.7331 20.4223 38.5775 20.8547 38.5775C21.0956 38.5775 21.2961 38.6279 21.456 38.7286C21.6159 38.8294 21.7319 38.9693 21.8039 39.1485H21.831C22.0832 38.7678 22.4503 38.5775 22.9322 38.5775C23.2723 38.5775 23.5302 38.6749 23.7058 38.8697C23.8815 39.0623 23.9693 39.3198 23.9693 39.6422V42.084H23.1383V39.7094C23.1383 39.5504 23.0831 39.4295 22.9728 39.3466C22.8624 39.2638 22.7262 39.2224 22.564 39.2224C22.4041 39.2224 22.2544 39.275 22.1147 39.3802C21.9773 39.4832 21.9041 39.6276 21.8951 39.8135V42.084H21.0641V39.7094C21.0641 39.5504 21.0089 39.4295 20.8986 39.3466C20.7882 39.2638 20.652 39.2224 20.4898 39.2224C20.3232 39.2224 20.1689 39.2772 20.027 39.3869C19.8874 39.4967 19.8176 39.65 19.8176 39.8471V42.084H18.9865Z" fill="white"/>
<path d="M24.5235 42.084V38.6447H25.3545V42.084H24.5235ZM24.5235 38.1979V37.2676H25.3545V38.1979H24.5235Z" fill="white"/>
<path d="M25.9053 42.084V38.6447H26.6688L26.7363 39.0443H26.7498C26.9998 38.7331 27.341 38.5775 27.7734 38.5775C28.1135 38.5775 28.3714 38.6749 28.547 38.8697C28.7249 39.0623 28.8139 39.3198 28.8139 39.6422V42.084H27.9829V39.7094C27.9829 39.5504 27.9277 39.4295 27.8173 39.3466C27.707 39.2638 27.5707 39.2224 27.4086 39.2224C27.2419 39.2224 27.0877 39.2772 26.9458 39.3869C26.8061 39.4967 26.7363 39.65 26.7363 39.8471V42.084H25.9053Z" fill="white"/>
<path d="M29.3613 42.084V38.6447H30.1923V42.084H29.3613ZM29.3613 38.1979V37.2676H30.1923V38.1979H29.3613Z" fill="white"/>
<path d="M30.6755 42.0067V41.466H31.9626C32.1608 41.466 32.3038 41.4279 32.3917 41.3518C32.4795 41.2734 32.5234 41.185 32.5234 41.0865C32.5234 40.9924 32.4862 40.914 32.4119 40.8513C32.3376 40.7886 32.1969 40.736 31.9897 40.6935C31.8748 40.6711 31.7813 40.6521 31.7093 40.6364C31.6372 40.6207 31.5505 40.5972 31.4491 40.5659C31.3478 40.5345 31.2645 40.502 31.1992 40.4684C31.1361 40.4349 31.0685 40.3912 30.9965 40.3375C30.9267 40.2815 30.8715 40.2199 30.8309 40.1527C30.7904 40.0856 30.7566 40.0049 30.7296 39.9109C30.7026 39.8146 30.6891 39.7094 30.6891 39.5952C30.6891 39.3623 30.7532 39.1686 30.8816 39.0141C31.0122 38.8574 31.1823 38.7454 31.3917 38.6782C31.6012 38.6111 31.8466 38.5775 32.1282 38.5775C32.3286 38.5775 32.5076 38.5876 32.6653 38.6077C32.8229 38.6279 33.02 38.6659 33.2565 38.7219V39.2627H32.1619C31.9547 39.2627 31.8072 39.2951 31.7194 39.3601C31.6316 39.425 31.5877 39.5034 31.5877 39.5952C31.5877 39.6915 31.6248 39.7743 31.6991 39.8437C31.7757 39.9109 31.9165 39.9658 32.1214 40.0083C32.2295 40.0285 32.3218 40.0475 32.3984 40.0654C32.4772 40.0833 32.5651 40.1079 32.6619 40.1393C32.7588 40.1706 32.841 40.2042 32.9085 40.2401C32.9761 40.2759 33.0436 40.3218 33.1112 40.3778C33.181 40.4315 33.2373 40.4908 33.2801 40.5558C33.3229 40.6207 33.3567 40.6991 33.3815 40.7909C33.4085 40.8805 33.422 40.979 33.422 41.0865C33.422 41.2745 33.3871 41.438 33.3173 41.5768C33.2475 41.7157 33.1472 41.8265 33.0166 41.9093C32.8883 41.9922 32.7396 42.0526 32.5707 42.0907C32.4018 42.131 32.2126 42.1512 32.0032 42.1512C31.5212 42.1512 31.0787 42.103 30.6755 42.0067Z" fill="white"/>
<path d="M33.6248 39.2828V38.7824L34.1451 38.6447L34.5268 37.6807H34.9761V38.6447H35.8409V39.2828H34.9761V41.157C34.9761 41.2712 35.002 41.3518 35.0538 41.3988C35.1056 41.4436 35.1945 41.466 35.3207 41.466H35.8409V42.0067C35.5661 42.103 35.324 42.1512 35.1146 42.1512C34.4682 42.1512 34.1451 41.8422 34.1451 41.2242V39.2828H33.6248Z" fill="white"/>
<path d="M36.2228 42.084V38.6447H36.9862L37.0538 39.2156H37.0673C37.1754 38.9962 37.3274 38.835 37.5234 38.732C37.7193 38.629 37.9321 38.5775 38.1618 38.5775V39.3869H37.9524C37.6529 39.3869 37.4277 39.4519 37.2768 39.5817C37.1281 39.7116 37.0538 39.8807 37.0538 40.0889V42.084H36.2228Z" fill="white"/>
<path d="M38.5572 41.1066C38.5572 40.9476 38.5797 40.8066 38.6248 40.6834C38.6698 40.558 38.7284 40.4573 38.8005 40.3811C38.8725 40.3027 38.9604 40.2389 39.064 40.1897C39.1675 40.1382 39.2723 40.1035 39.3781 40.0856C39.4862 40.0654 39.6022 40.0553 39.7261 40.0553H40.5976V39.753C40.5976 39.5851 40.5571 39.4619 40.476 39.3836C40.395 39.303 40.2463 39.2627 40.0301 39.2627H38.7836V38.7219C39.2745 38.6256 39.7182 38.5775 40.1146 38.5775C40.3353 38.5775 40.5222 38.5954 40.6753 38.6312C40.8307 38.6648 40.967 38.723 41.0841 38.8059C41.2012 38.8887 41.2879 39.0052 41.3442 39.1552C41.4005 39.3052 41.4287 39.4922 41.4287 39.7161V42.084H40.6652L40.5976 41.691H40.5841C40.4513 41.8657 40.3082 41.9866 40.1551 42.0538C40.002 42.1187 39.815 42.1512 39.5943 42.1512C39.2723 42.1512 39.0189 42.0538 38.8342 41.859C38.6496 41.6642 38.5572 41.4134 38.5572 41.1066ZM39.3883 41.0529C39.3883 41.2096 39.4401 41.326 39.5437 41.4022C39.6472 41.4761 39.779 41.513 39.9389 41.513C40.1011 41.513 40.2508 41.4593 40.3882 41.3518C40.5278 41.2421 40.5976 41.0853 40.5976 40.8816V40.5759H39.9524C39.5763 40.5759 39.3883 40.7349 39.3883 41.0529Z" fill="white"/>
<path d="M41.9119 40.3643C41.9119 39.1731 42.4423 38.5775 43.503 38.5775C43.8093 38.5775 44.1663 38.6256 44.5739 38.7219V39.2627H43.503C43.235 39.2627 43.0481 39.3556 42.9422 39.5414C42.8364 39.7273 42.7835 40.0016 42.7835 40.3643C42.7835 40.7293 42.8364 41.0047 42.9422 41.1906C43.0481 41.3742 43.235 41.466 43.503 41.466H44.5739V42.0067C44.1685 42.0986 43.8397 42.1467 43.5875 42.1512V42.4132C43.7338 42.4266 43.8678 42.4736 43.9895 42.5542C44.1133 42.6371 44.1753 42.7557 44.1753 42.9102C44.1753 43.0849 44.1156 43.2204 43.9962 43.3166C43.8769 43.4129 43.6944 43.4611 43.449 43.4611C43.2778 43.4611 43.1111 43.442 42.949 43.404V43.1017H43.3104C43.4951 43.1017 43.5875 43.0379 43.5875 42.9102C43.5875 42.8386 43.5537 42.7781 43.4861 42.7289C43.4208 42.6796 43.3273 42.6483 43.2057 42.6348V42.131C42.3432 42.0303 41.9119 41.4414 41.9119 40.3643Z" fill="white"/>
<path d="M44.8105 41.1066C44.8105 40.9476 44.833 40.8066 44.8781 40.6834C44.9231 40.558 44.9817 40.4573 45.0537 40.3811C45.128 40.3027 45.217 40.2389 45.3206 40.1897C45.4242 40.1382 45.5289 40.1035 45.6348 40.0856C45.7429 40.0654 45.8589 40.0553 45.9827 40.0553H46.8543V39.753C46.8543 39.5851 46.8137 39.4619 46.7327 39.3836C46.6516 39.303 46.503 39.2627 46.2868 39.2627H45.0402V38.7219C45.5312 38.6256 45.9737 38.5775 46.3678 38.5775C46.5885 38.5775 46.7755 38.5954 46.9286 38.6312C47.084 38.6648 47.2203 38.723 47.3374 38.8059C47.4545 38.8887 47.5412 39.0052 47.5975 39.1552C47.6538 39.3052 47.6819 39.4922 47.6819 39.7161V42.084H46.9218L46.8543 41.691H46.8374C46.7045 41.8657 46.5615 41.9866 46.4084 42.0538C46.2575 42.1187 46.0717 42.1512 45.851 42.1512C45.5289 42.1512 45.2744 42.0538 45.0875 41.859C44.9028 41.6642 44.8105 41.4134 44.8105 41.1066ZM45.2395 37.7378C45.4422 37.4937 45.6843 37.3717 45.9658 37.3717C46.0784 37.3717 46.2271 37.4098 46.4117 37.4859C46.5964 37.562 46.7248 37.6001 46.7969 37.6001C46.8982 37.6001 46.9995 37.5788 47.1009 37.5363C47.2022 37.4915 47.2901 37.4366 47.3644 37.3717L47.5232 37.8184C47.3205 38.0625 47.0784 38.1845 46.7969 38.1845C46.7045 38.1845 46.5615 38.1464 46.3678 38.0703C46.1764 37.9942 46.0424 37.9561 45.9658 37.9561C45.7519 37.9561 45.5604 38.0322 45.3915 38.1845L45.2395 37.7378ZM45.6415 41.0529C45.6415 41.2096 45.6933 41.326 45.7969 41.4022C45.9028 41.4761 46.0356 41.513 46.1955 41.513C46.3577 41.513 46.5075 41.4593 46.6448 41.3518C46.7845 41.2421 46.8543 41.0853 46.8543 40.8816V40.5759H46.2091C46.0266 40.5759 45.8859 40.6162 45.7868 40.6968C45.6899 40.7752 45.6415 40.8939 45.6415 41.0529Z" fill="white"/>
<path d="M49.8137 42.1512C48.753 42.1512 48.2226 41.5556 48.2226 40.3643C48.2226 39.1731 48.753 38.5775 49.8137 38.5775C50.8744 38.5775 51.4048 39.1731 51.4048 40.3643C51.4048 41.5556 50.8744 42.1512 49.8137 42.1512ZM49.0941 40.3643C49.0941 40.7293 49.1471 41.007 49.2529 41.1973C49.3588 41.3854 49.5457 41.4794 49.8137 41.4794C49.9511 41.4794 50.0671 41.4537 50.1617 41.4022C50.2562 41.3507 50.3306 41.2745 50.3846 41.1738C50.4387 41.0708 50.4769 40.9543 50.4995 40.8245C50.522 40.6946 50.5332 40.5412 50.5332 40.3643C50.5332 40.0038 50.4792 39.7295 50.3711 39.5414C50.2652 39.3511 50.0794 39.2559 49.8137 39.2559C49.5457 39.2559 49.3588 39.35 49.2529 39.5381C49.1471 39.7262 49.0941 40.0016 49.0941 40.3643Z" fill="white"/>
<path d="M53.0638 42.084V37.4053H55.969V38.1644H53.9421V39.5246H55.7055V40.2804H53.9421V42.084H53.0638Z" fill="white"/>
<path d="M56.415 42.084V38.6447H57.2461V42.084H56.415ZM56.415 38.1979V37.2676H57.2461V38.1979H56.415Z" fill="white"/>
<path d="M57.7293 40.3643C57.7293 39.8023 57.8554 39.3645 58.1077 39.0511C58.3621 38.7353 58.7484 38.5775 59.2664 38.5775C59.4713 38.5775 59.6965 38.5954 59.942 38.6312V37.2676H60.773V42.084H60.0129L59.942 41.691H59.9285C59.8024 41.8545 59.6695 41.972 59.5299 42.0437C59.3902 42.1153 59.2213 42.1512 59.0231 42.1512C58.7259 42.1512 58.4792 42.0762 58.2833 41.9261C58.0874 41.7761 57.9455 41.5712 57.8577 41.3115C57.7721 41.0495 57.7293 40.7338 57.7293 40.3643ZM58.6009 40.3643C58.6009 40.5054 58.6065 40.6297 58.6178 40.7371C58.629 40.8424 58.6493 40.9443 58.6786 41.0428C58.7101 41.1413 58.7506 41.223 58.8002 41.288C58.852 41.3507 58.9195 41.4011 59.0029 41.4391C59.0884 41.4749 59.1875 41.4929 59.3001 41.4929C59.4646 41.4929 59.6121 41.438 59.7427 41.3283C59.8756 41.2186 59.942 41.0652 59.942 40.8681V39.2627H59.3542C59.0839 39.2627 58.8903 39.3589 58.7732 39.5515C58.6583 39.7418 58.6009 40.0128 58.6009 40.3643Z" fill="white"/>
<path d="M61.3272 41.0865V38.6447H62.1582V41.0193C62.1582 41.1783 62.2134 41.3003 62.3237 41.3854C62.4341 41.4705 62.5681 41.513 62.7257 41.513C62.8924 41.513 63.0467 41.4582 63.1886 41.3484C63.3327 41.2365 63.4048 41.0809 63.4048 40.8816V38.6447H64.2358V42.084H63.4723L63.4048 41.691H63.3912C63.1413 41.9978 62.8001 42.1512 62.3677 42.1512C62.0231 42.1512 61.763 42.0549 61.5873 41.8623C61.4139 41.6675 61.3272 41.4089 61.3272 41.0865Z" fill="white"/>
<path d="M66.3067 42.1512C65.246 42.1512 64.7156 41.5556 64.7156 40.3643C64.7156 39.1731 65.246 38.5775 66.3067 38.5775C66.613 38.5775 66.97 38.6256 67.3776 38.7219V39.2627H66.3067C66.0387 39.2627 65.8518 39.3556 65.746 39.5414C65.6401 39.7273 65.5872 40.0016 65.5872 40.3643C65.5872 40.7293 65.6401 41.0047 65.746 41.1906C65.8518 41.3742 66.0387 41.466 66.3067 41.466H67.3776V42.0067C66.97 42.103 66.613 42.1512 66.3067 42.1512Z" fill="white"/>
<path d="M67.7595 42.084V38.6447H68.5905V42.084H67.7595ZM67.7595 38.1979V37.2676H68.5905V38.1979H67.7595Z" fill="white"/>
<path d="M68.996 41.1066C68.996 40.9476 69.0186 40.8066 69.0636 40.6834C69.1086 40.558 69.1672 40.4573 69.2393 40.3811C69.3136 40.3027 69.4025 40.2389 69.5061 40.1897C69.6097 40.1382 69.7145 40.1035 69.8203 40.0856C69.9284 40.0654 70.0444 40.0553 70.1683 40.0553H71.0398V39.753C71.0398 39.5851 70.9993 39.4619 70.9182 39.3836C70.8371 39.303 70.6885 39.2627 70.4723 39.2627H69.2257V38.7219C69.7167 38.6256 70.1593 38.5775 70.5534 38.5775C70.7741 38.5775 70.961 38.5954 71.1141 38.6312C71.2695 38.6648 71.4058 38.723 71.5229 38.8059C71.64 38.8887 71.7267 39.0052 71.783 39.1552C71.8393 39.3052 71.8675 39.4922 71.8675 39.7161V42.084H71.1074L71.0398 41.691H71.0229C70.8901 41.8657 70.7471 41.9866 70.5939 42.0538C70.443 42.1187 70.2572 42.1512 70.0365 42.1512C69.7145 42.1512 69.46 42.0538 69.273 41.859C69.0884 41.6642 68.996 41.4134 68.996 41.1066ZM69.8271 41.0529C69.8271 41.2096 69.8789 41.326 69.9825 41.4022C70.0883 41.4761 70.2212 41.513 70.3811 41.513C70.5432 41.513 70.693 41.4593 70.8304 41.3518C70.97 41.2421 71.0398 41.0853 71.0398 40.8816V40.5759H70.3946C70.2122 40.5759 70.0714 40.6162 69.9723 40.6968C69.8755 40.7752 69.8271 40.8939 69.8271 41.0529ZM70.1818 38.2315L70.5939 37.2676H71.3709L70.7831 38.2315H70.1818Z" fill="white"/>
<path d="M72.4757 42.084V38.6447H73.2392L73.3067 39.2156H73.3202C73.4283 38.9962 73.5803 38.835 73.7763 38.732C73.9722 38.629 74.185 38.5775 74.4148 38.5775V39.3869H74.2053C73.9058 39.3869 73.6806 39.4519 73.5297 39.5817C73.381 39.7116 73.3067 39.8807 73.3067 40.0889V42.084H72.4757Z" fill="white"/>
<path d="M74.898 42.084V38.6447H75.729V42.084H74.898ZM74.898 38.1979V37.2676H75.729V38.1979H74.898Z" fill="white"/>
<path d="M76.1919 41.1066C76.1919 40.9476 76.2145 40.8066 76.2595 40.6834C76.3046 40.558 76.3631 40.4573 76.4352 40.3811C76.5072 40.3027 76.5951 40.2389 76.6987 40.1897C76.8023 40.1382 76.907 40.1035 77.0128 40.0856C77.1209 40.0654 77.2369 40.0553 77.3608 40.0553H78.2324V39.753C78.2324 39.5851 78.1918 39.4619 78.1107 39.3836C78.0297 39.303 77.881 39.2627 77.6648 39.2627H76.4183V38.7219C76.9092 38.6256 77.3529 38.5775 77.7493 38.5775C77.97 38.5775 78.1569 38.5954 78.3101 38.6312C78.4655 38.6648 78.6017 38.723 78.7188 38.8059C78.8359 38.8887 78.9226 39.0052 78.9789 39.1552C79.0352 39.3052 79.0634 39.4922 79.0634 39.7161V42.084H78.2999L78.2324 41.691H78.2188C78.086 41.8657 77.943 41.9866 77.7898 42.0538C77.6367 42.1187 77.4498 42.1512 77.229 42.1512C76.907 42.1512 76.6536 42.0538 76.469 41.859C76.2843 41.6642 76.1919 41.4134 76.1919 41.1066ZM77.023 41.0529C77.023 41.2096 77.0748 41.326 77.1784 41.4022C77.282 41.4761 77.4137 41.513 77.5736 41.513C77.7358 41.513 77.8855 41.4593 78.0229 41.3518C78.1625 41.2421 78.2324 41.0853 78.2324 40.8816V40.5759H77.5871C77.211 40.5759 77.023 40.7349 77.023 41.0529Z" fill="white"/>
<path d="M43.6922 12.23H43.0552L42.6797 11.0258H41.0302L40.6614 12.23H40.0244L41.4593 7.64746H42.2506L43.6922 12.23ZM41.1509 10.5575H42.559L41.855 8.33652H41.8482L41.1509 10.5575Z" fill="#4A4C4E"/>
<path d="M46.8097 8.88477V12.2297H46.3068L46.2733 11.8216H46.2599C45.985 12.1628 45.6229 12.2966 45.2004 12.2966C44.5232 12.2966 44.1611 11.8818 44.1611 11.2797V8.88477H44.6976V11.2463C44.6976 11.641 45.0127 11.8618 45.4083 11.8618C45.7972 11.8618 46.2733 11.5875 46.2733 11.079V8.88477H46.8097Z" fill="#4A4C4E"/>
<path d="M47.8298 11.5149V9.31395H47.2803V8.98615L47.8298 8.8858L48.0509 7.94922H48.3659V8.8858H49.2906V9.31395H48.3659V11.4815C48.3659 11.7557 48.4798 11.8293 48.7344 11.8293H49.2906V12.1772C49.0226 12.2575 48.8685 12.2976 48.6339 12.2976C47.9906 12.2976 47.8298 11.9364 47.8298 11.5149Z" fill="#4A4C4E"/>
<path d="M49.7061 10.5567C49.7061 9.52651 50.095 8.81738 51.1611 8.81738C52.2339 8.81738 52.6228 9.52651 52.6228 10.5567C52.6228 11.5937 52.2339 12.2961 51.1611 12.2961C50.095 12.2961 49.7061 11.5937 49.7061 10.5567ZM50.2693 10.5567C50.2693 11.2859 50.4705 11.8412 51.1611 11.8412C51.8584 11.8412 52.0596 11.2859 52.0596 10.5567C52.0596 9.82755 51.8584 9.27229 51.1611 9.27229C50.4705 9.27229 50.2693 9.82755 50.2693 10.5567Z" fill="#4A4C4E"/>
<path d="M53.3623 12.2292V8.88428H53.8649L53.8984 9.44623H53.9118C54.1329 9.0047 54.5819 8.81738 55.0041 8.81738V9.35926H54.8701C54.267 9.35926 53.8984 9.75396 53.8984 10.2223V12.2292H53.3623Z" fill="#4A4C4E"/>
<path d="M55.5732 12.2292V8.88428H56.0758L56.1093 9.44623H56.1227C56.3439 9.0047 56.7929 8.81738 57.215 8.81738V9.35926H57.081C56.4779 9.35926 56.1093 9.75396 56.1093 10.2223V12.2292H55.5732Z" fill="#4A4C4E"/>
<path d="M58.2223 10.7173C58.2357 11.3461 58.457 11.8278 59.1074 11.8278H60.2138V12.1757C59.7913 12.2627 59.4359 12.2961 59.1074 12.2961C58.0412 12.2961 57.6523 11.5937 57.6523 10.5567C57.6523 9.52651 58.1083 8.81738 59.1879 8.81738C60.026 8.81738 60.435 9.31243 60.435 9.80748C60.435 10.2557 60.2339 10.7173 59.4561 10.7173H58.2223ZM58.229 10.3427H59.322C59.7712 10.3427 59.8986 10.0751 59.8986 9.82755C59.8986 9.55327 59.6438 9.28567 59.1744 9.28567C58.5441 9.28567 58.2692 9.74727 58.229 10.3427Z" fill="#4A4C4E"/>
<path d="M63.2507 11.8216H63.2372C62.9757 12.1628 62.6941 12.2966 62.2851 12.2966C61.3531 12.2966 61.0044 11.6008 61.0044 10.5639C61.0044 9.53368 61.4604 8.88477 62.4863 8.88477H63.7871V11.8952C63.7871 12.9321 63.3982 13.6346 62.3253 13.6346C61.9968 13.6346 61.7017 13.6011 61.2726 13.5141V13.1663H62.3522C63.0495 13.1663 63.2507 12.6244 63.2507 11.9487V11.8216ZM63.2507 9.33299H62.5131C61.8157 9.33299 61.5676 9.86149 61.5676 10.5639C61.5676 11.2797 61.7353 11.8551 62.4527 11.8551C62.8416 11.8551 63.2507 11.5808 63.2507 11.0657V9.33299Z" fill="#4A4C4E"/>
<path d="M67.2418 8.88477V12.2297H66.739L66.7054 11.8216H66.692C66.4171 12.1628 66.055 12.2966 65.6326 12.2966C64.9553 12.2966 64.5933 11.8818 64.5933 11.2797V8.88477H65.1297V11.2463C65.1297 11.641 65.4448 11.8618 65.8404 11.8618C66.2293 11.8618 66.7054 11.5875 66.7054 11.079V8.88477H67.2418Z" fill="#4A4C4E"/>
<path d="M68.0449 7.54688H68.581V11.4805C68.581 11.7682 68.648 11.8284 69.0836 11.8284V12.2632C68.1789 12.3301 68.0449 12.096 68.0449 11.4805V7.54688Z" fill="#4A4C4E"/>
<path d="M69.6547 9.28567V8.9378C70.0839 8.86421 70.5063 8.81738 70.855 8.81738C71.606 8.81738 72.0418 9.06491 72.0418 9.90783V12.2292H71.5389L71.5054 11.8211H71.492C71.1969 12.1958 70.8885 12.2961 70.4594 12.2961C69.8291 12.2961 69.4268 11.9081 69.4268 11.3194C69.4268 10.5835 69.9297 10.3226 70.5667 10.3226H71.5054V9.93459C71.5054 9.51982 71.3713 9.28567 70.808 9.28567H69.6547ZM71.5054 10.7039H70.6874C70.218 10.7039 69.9632 10.8979 69.9632 11.2926C69.9632 11.694 70.2716 11.8613 70.6672 11.8613C71.036 11.8613 71.5054 11.6137 71.5054 11.0786V10.7039Z" fill="#4A4C4E"/>
<path d="M74.027 12.2827C73.115 12.2025 72.7798 11.5268 72.7798 10.5567C72.7798 9.52651 73.1687 8.81738 74.2348 8.81738C74.5634 8.81738 74.8182 8.85083 75.2406 8.9378V9.28567H74.2348C73.5442 9.28567 73.343 9.82755 73.343 10.5567C73.343 11.2859 73.5442 11.8278 74.2348 11.8278H75.2406V12.1757C74.8517 12.256 74.6036 12.2894 74.3153 12.2961V12.5704C74.5366 12.5972 74.8651 12.7309 74.8651 13.0521C74.8651 13.3665 74.6371 13.5672 74.2147 13.5672C74.0605 13.5672 73.9197 13.5538 73.7521 13.507V13.2929H74.1477C74.3354 13.2929 74.4494 13.2193 74.4494 13.0654C74.4494 12.9183 74.3421 12.7912 74.027 12.7644V12.2827Z" fill="#4A4C4E"/>
<path d="M75.8706 9.28721V8.93933C76.2997 8.86575 76.7221 8.81892 77.0708 8.81892C77.8218 8.81892 78.2576 9.06644 78.2576 9.90936V12.2307H77.7547L77.7212 11.8227H77.7078C77.4128 12.1973 77.1043 12.2976 76.6752 12.2976C76.0449 12.2976 75.6426 11.9096 75.6426 11.3209C75.6426 10.585 76.1455 10.3241 76.7825 10.3241H77.7212V9.93612C77.7212 9.52135 77.5871 9.28721 77.0239 9.28721H75.8706ZM76.6886 8.11648C76.5009 8.11648 76.3131 8.21014 76.1589 8.35732L76.0181 8.05627C76.2259 7.80206 76.4338 7.70171 76.6886 7.70171C76.997 7.70171 77.2384 7.92248 77.4597 7.92248C77.6475 7.92248 77.8352 7.82882 77.9894 7.68164L78.1302 7.98268C77.9157 8.2369 77.7145 8.34394 77.4597 8.34394C77.2183 8.34394 76.9032 8.11648 76.6886 8.11648ZM77.7212 10.7055H76.9032C76.4338 10.7055 76.179 10.8995 76.179 11.2942C76.179 11.6956 76.4874 11.8628 76.8831 11.8628C77.2518 11.8628 77.7212 11.6153 77.7212 11.0801V10.7055Z" fill="#4A4C4E"/>
<path d="M79.0225 10.5567C79.0225 9.52651 79.4114 8.81738 80.4775 8.81738C81.5503 8.81738 81.9393 9.52651 81.9393 10.5567C81.9393 11.5937 81.5503 12.2961 80.4775 12.2961C79.4114 12.2961 79.0225 11.5937 79.0225 10.5567ZM79.5857 10.5567C79.5857 11.2859 79.7869 11.8412 80.4775 11.8412C81.1749 11.8412 81.376 11.2859 81.376 10.5567C81.376 9.82755 81.1749 9.27229 80.4775 9.27229C79.7869 9.27229 79.5857 9.82755 79.5857 10.5567Z" fill="#4A4C4E"/>
</svg>
