<svg width="90" height="52" viewBox="0 0 90 52" fill="none" xmlns="http://www.w3.org/2000/svg">
<path d="M86.0976 50.974H1V3.84171C1 2.27041 2.27321 1 3.84798 1H88.9456V48.139C88.9456 49.7036 87.6724 50.974 86.0976 50.974Z" fill="white"/>
<path fill-rule="evenodd" clip-rule="evenodd" d="M28.5488 23.1593H27.6106C27.6106 23.1593 25.1781 23.4335 23.7173 21.3273C23.0271 20.2574 16.0512 9.88019 16.0512 9.88019L11.1795 23.1593H7.98975L13.4847 7.58008H18.2827L28.5488 23.1593Z" fill="#FBAA21"/>
<path fill-rule="evenodd" clip-rule="evenodd" d="M12.6602 23.1593H13.5983C13.5983 23.1593 16.0308 23.4335 17.4984 21.3273C18.1886 20.2574 25.1645 9.88019 25.1645 9.88019L30.0362 23.1593H33.2259L27.7243 7.58008H22.9263L12.6602 23.1593Z" fill="#59BA47"/>
<path d="M20.6077 16.68L18.7515 13.9118L20.6077 11.1035L22.4639 13.9118L20.6077 16.68Z" fill="#008ECB"/>
<path d="M88.8393 29.8848L89.0001 48.1586C89.0001 49.7299 87.7269 51.0003 86.1521 51.0003L1.16846 50.8265V29.8848H88.8393Z" fill="#FBAA21"/>
<path d="M86.0976 50.974H1V3.84171C1 2.27041 2.27321 1 3.84798 1H88.9456V48.1389C88.9456 49.7036 87.6724 50.974 86.0976 50.974Z" stroke="#4A4C4E" stroke-width="0.5" stroke-miterlimit="10"/>
<path d="M11.0918 38.4413V33.8945H12.7001C14.2078 33.8945 14.5429 35.0312 14.5429 36.1679C14.5429 37.3046 14.2078 38.4413 12.7001 38.4413H11.0918ZM12.5996 37.7058C13.5042 37.7058 13.6516 36.89 13.6516 36.1679C13.6516 35.4525 13.5042 34.63 12.5996 34.63H11.9428V37.7058H12.5996Z" fill="white"/>
<path d="M15.9838 33.7656V34.6683H15.1797V33.7656H15.9838ZM15.9838 35.1029V38.4461H15.1797V35.1029H15.9838Z" fill="white"/>
<path d="M17.9946 35.0361C18.3833 35.0361 18.6312 35.0696 19.0869 35.1765V35.7048H18.0281C17.5859 35.7048 17.472 35.8786 17.472 36.0257C17.472 36.1929 17.5591 36.34 17.9879 36.4269C18.6178 36.5473 19.2478 36.7211 19.2478 37.4767C19.2478 38.2255 18.6648 38.513 17.874 38.513C17.4854 38.513 17.0364 38.4796 16.5874 38.3726V37.8444H17.8338C18.2627 37.8444 18.3766 37.6304 18.3766 37.4767C18.3766 37.3095 18.2895 37.1825 17.8606 37.0955C17.2307 36.9752 16.6008 36.8281 16.6008 36.0257C16.6008 35.3236 17.2106 35.0361 17.9946 35.0361Z" fill="white"/>
<path d="M20.0177 37.6027V35.7171H19.5151V35.229L20.0177 35.0953L20.3863 34.1592H20.8219V35.0953H21.6595V35.7171H20.8219V37.5358C20.8219 37.7565 20.9157 37.8367 21.1569 37.8367H21.6595V38.3649C21.3915 38.4585 21.2172 38.5053 20.9559 38.5053C20.2389 38.5053 20.0177 38.1108 20.0177 37.6027Z" fill="white"/>
<path d="M22.0957 38.4384V35.0952H22.8328L22.8998 35.6502H22.9132C23.1344 35.1955 23.5632 35.0283 23.972 35.0283V35.8173H23.771C23.1612 35.8173 22.8998 36.1182 22.8998 36.4993V38.4384H22.0957Z" fill="white"/>
<path d="M25.2451 33.7656V34.6683H24.4409V33.7656H25.2451ZM25.2451 35.1029V38.4461H24.4409V35.1029H25.2451Z" fill="white"/>
<path d="M25.9146 38.4383V33.7578H26.7187V35.4829H26.7321C26.9666 35.162 27.2213 35.0282 27.6032 35.0282C28.4945 35.0282 28.863 35.7035 28.863 36.7533C28.863 37.8031 28.3806 38.4383 27.3352 38.4383H25.9146ZM26.7187 37.7897H27.2883C27.8311 37.7897 28.0187 37.3551 28.0187 36.7533C28.0187 36.1315 27.8981 35.6701 27.3352 35.6701C27.0537 35.6701 26.7187 35.864 26.7187 36.2853V37.7897Z" fill="white"/>
<path d="M32.2813 35.1016V38.4448H31.5441L31.4771 38.0636H31.4637C31.2091 38.3779 30.874 38.5116 30.472 38.5116C29.7817 38.5116 29.4668 38.077 29.4668 37.4752V35.1016H30.2709V37.4084C30.2709 37.736 30.539 37.8898 30.8204 37.8898C31.1019 37.8898 31.4771 37.6959 31.4771 37.2746V35.1016H32.2813Z" fill="white"/>
<path d="M33.7558 33.7656V34.6683H32.9517V33.7656H33.7558ZM33.7558 35.1029V38.4461H32.9517V35.1029H33.7558Z" fill="white"/>
<path d="M35.6105 38.4852C34.6992 38.3782 34.3574 37.7229 34.3574 36.7668C34.3574 35.717 34.7729 35.0283 35.8987 35.0283C36.2404 35.0283 36.4817 35.0618 36.9374 35.1687V35.697H35.8987C35.3492 35.697 35.2018 36.1182 35.2018 36.7668C35.2018 37.422 35.3492 37.8366 35.8987 37.8366H36.9374V38.3648C36.5152 38.4584 36.2806 38.4985 35.9791 38.5052V38.7593C36.2069 38.7794 36.5487 38.9064 36.5487 39.2407C36.5487 39.5684 36.3343 39.7756 35.8451 39.7756C35.6909 39.7756 35.5301 39.7623 35.3626 39.7222V39.428H35.711C35.8719 39.428 35.9791 39.3745 35.9791 39.2407C35.9791 39.1003 35.8451 39 35.6105 38.9733V38.4852Z" fill="white"/>
<path d="M37.4536 35.703V35.1748C37.9025 35.0879 38.3582 35.0344 38.7402 35.0344C39.551 35.0344 40.0134 35.2617 40.0134 36.1443V38.4444H39.2763L39.2093 38.0633H39.1959C38.9278 38.4177 38.6397 38.5113 38.2376 38.5113C37.601 38.5113 37.2324 38.0767 37.2324 37.495C37.2324 36.6926 37.802 36.4719 38.3649 36.4719H39.2093V36.1777C39.2093 35.8702 39.102 35.703 38.6598 35.703H37.4536ZM38.3515 34.4326C38.1371 34.4326 37.9293 34.5329 37.7953 34.6533L37.6479 34.2186C37.8489 33.9779 38.0701 33.8643 38.3515 33.8643C38.6598 33.8643 38.9278 34.0849 39.1556 34.0849C39.3634 34.0849 39.5711 33.9846 39.7051 33.8643L39.8593 34.2989C39.6582 34.5396 39.4304 34.6533 39.1556 34.6533C38.8943 34.6533 38.5793 34.4326 38.3515 34.4326ZM39.2093 36.9801H38.586C38.2376 36.9801 38.0366 37.1272 38.0366 37.4415C38.0366 37.7691 38.2912 37.8895 38.5726 37.8895C38.8407 37.8895 39.2093 37.7089 39.2093 37.2743V36.9801Z" fill="white"/>
<path d="M40.6699 36.7668C40.6699 35.717 41.0854 35.0283 42.2112 35.0283C43.337 35.0283 43.7524 35.717 43.7524 36.7668C43.7524 37.8165 43.337 38.5052 42.2112 38.5052C41.0854 38.5052 40.6699 37.8165 40.6699 36.7668ZM41.5143 36.7668C41.5143 37.422 41.6617 37.85 42.2112 37.85C42.754 37.85 42.9081 37.422 42.9081 36.7668C42.9081 36.1182 42.754 35.6903 42.2112 35.6903C41.6617 35.697 41.5143 36.1249 41.5143 36.7668Z" fill="white"/>
<path d="M47.64 33.7656H48.4441V38.4461H47.707L47.64 38.065H47.6266C47.3853 38.3792 47.1374 38.513 46.7487 38.513C45.8642 38.513 45.4956 37.8243 45.4956 36.7745C45.4956 35.7247 45.9446 35.036 46.9833 35.036C47.2178 35.036 47.3719 35.0494 47.64 35.0895V33.7656ZM47.64 35.7047H47.0704C46.5209 35.7047 46.3399 36.1393 46.3399 36.7745C46.3399 37.4097 46.4539 37.8711 47.0168 37.8711C47.2982 37.8711 47.64 37.6772 47.64 37.2626V35.7047Z" fill="white"/>
<path d="M49.8974 37.0153C49.9242 37.4967 50.0918 37.8444 50.5876 37.8444H51.7603V38.3726C51.3047 38.4796 50.9294 38.513 50.5876 38.513C49.4619 38.513 49.0464 37.8244 49.0464 36.7746C49.0464 35.7248 49.5356 35.0361 50.6681 35.0361C51.5727 35.0361 51.9949 35.5577 51.9949 36.0725C51.9949 36.5473 51.7939 37.0153 51.0031 37.0153H49.8974ZM49.9108 36.5071H50.7485C51.0701 36.5071 51.1908 36.3199 51.1908 36.1193C51.1908 35.9054 50.9964 35.7048 50.6547 35.7048C50.1789 35.7048 49.9577 36.0391 49.9108 36.5071Z" fill="white"/>
<path d="M55.5804 33.9004C56.485 33.9004 57.0211 34.4687 57.0211 35.338C57.0211 36.2273 56.485 36.7622 55.5804 36.7622H54.7226V38.4471H53.8716V33.9004H55.5804ZM54.7226 34.6359V36.0267H55.4463C55.8551 36.0267 56.1299 35.8261 56.1299 35.338C56.1299 34.8632 55.8551 34.6359 55.4463 34.6359H54.7226Z" fill="white"/>
<path d="M57.624 38.4384V35.0952H58.3611L58.4282 35.6502H58.4416C58.6627 35.1955 59.0916 35.0283 59.5003 35.0283V35.8173H59.2993C58.6895 35.8173 58.4282 36.1182 58.4282 36.4993V38.4384H57.624Z" fill="white"/>
<path d="M59.8354 36.7668C59.8354 35.717 60.2509 35.0283 61.3767 35.0283C62.5025 35.0283 62.918 35.717 62.918 36.7668C62.918 37.8165 62.5025 38.5052 61.3767 38.5052C60.2509 38.5052 59.8354 37.8165 59.8354 36.7668ZM60.6798 36.7668C60.6798 37.422 60.8272 37.85 61.3767 37.85C61.9195 37.85 62.0736 37.422 62.0736 36.7668C62.0736 36.1182 61.9195 35.6903 61.3767 35.6903C60.8272 35.697 60.6798 36.1249 60.6798 36.7668Z" fill="white"/>
<path d="M65.599 33.7656H66.4031V38.4461H65.666L65.599 38.065H65.5855C65.3443 38.3792 65.0964 38.513 64.7077 38.513C63.8232 38.513 63.4546 37.8243 63.4546 36.7745C63.4546 35.7247 63.9036 35.036 64.9422 35.036C65.1768 35.036 65.3309 35.0494 65.599 35.0895V33.7656ZM65.599 35.7047H65.0294C64.4799 35.7047 64.2989 36.1393 64.2989 36.7745C64.2989 37.4097 64.4129 37.8711 64.9757 37.8711C65.2572 37.8711 65.599 37.6772 65.599 37.2626V35.7047Z" fill="white"/>
<path d="M69.8877 35.1016V38.4448H69.1506L69.0836 38.0636H69.0702C68.8155 38.3779 68.4805 38.5116 68.0784 38.5116C67.3882 38.5116 67.0732 38.077 67.0732 37.4752V35.1016H67.8774V37.4084C67.8774 37.736 68.1454 37.8898 68.4269 37.8898C68.7083 37.8898 69.0836 37.6959 69.0836 37.2746V35.1016H69.8877Z" fill="white"/>
<path d="M70.7921 37.6027V35.7171H70.2896V35.229L70.7921 35.0953L71.1607 34.1592H71.5963V35.0953H72.4339V35.7171H71.5963V37.5358C71.5963 37.7565 71.6901 37.8367 71.9313 37.8367H72.4339V38.3649C72.1659 38.4585 71.9916 38.5053 71.7303 38.5053C71.0133 38.5053 70.7921 38.1108 70.7921 37.6027Z" fill="white"/>
<path d="M72.7686 36.7668C72.7686 35.717 73.184 35.0283 74.3098 35.0283C75.4356 35.0283 75.8511 35.717 75.8511 36.7668C75.8511 37.8165 75.4356 38.5052 74.3098 38.5052C73.184 38.5052 72.7686 37.8165 72.7686 36.7668ZM73.6129 36.7668C73.6129 37.422 73.7603 37.85 74.3098 37.85C74.8526 37.85 75.0067 37.422 75.0067 36.7668C75.0067 36.1182 74.8526 35.6903 74.3098 35.6903C73.7603 35.697 73.6129 36.1249 73.6129 36.7668Z" fill="white"/>
<path d="M77.7959 35.0361C78.1846 35.0361 78.4325 35.0696 78.8882 35.1765V35.7048H77.8294C77.3871 35.7048 77.2732 35.8786 77.2732 36.0257C77.2732 36.1929 77.3603 36.34 77.7892 36.4269C78.4191 36.5473 79.049 36.7211 79.049 37.4767C79.049 38.2255 78.466 38.513 77.6753 38.513C77.2866 38.513 76.8376 38.4796 76.3887 38.3726V37.8444H77.6351C78.064 37.8444 78.1779 37.6304 78.1779 37.4767C78.1779 37.3095 78.0908 37.1825 77.6619 37.0955C77.032 36.9752 76.4021 36.8281 76.4021 36.0257C76.4021 35.3236 77.0119 35.0361 77.7959 35.0361Z" fill="white"/>
<path d="M24.8695 41.7871H25.6736V46.4676H24.9365L24.8695 46.0864H24.8561C24.6148 46.4007 24.3669 46.5344 23.9782 46.5344C23.0937 46.5344 22.7251 45.8457 22.7251 44.796C22.7251 43.7462 23.1741 43.0575 24.2127 43.0575C24.4473 43.0575 24.6014 43.0709 24.8695 43.111V41.7871ZM24.8695 43.7262H24.2999C23.7504 43.7262 23.5694 44.1608 23.5694 44.796C23.5694 45.4312 23.6834 45.8925 24.2463 45.8925C24.5277 45.8925 24.8695 45.6986 24.8695 45.2841V43.7262Z" fill="white"/>
<path d="M27.1269 45.0387C27.1537 45.5202 27.3213 45.8678 27.8171 45.8678H28.9898V46.3961C28.5342 46.5031 28.1589 46.5365 27.8171 46.5365C26.6914 46.5365 26.2759 45.8478 26.2759 44.798C26.2759 43.7483 26.7651 43.0596 27.8976 43.0596C28.8022 43.0596 29.2244 43.5811 29.2244 44.096C29.2244 44.5707 29.0233 45.0387 28.2326 45.0387H27.1269ZM27.1403 44.5306H27.978C28.2996 44.5306 28.4202 44.3434 28.4202 44.1428C28.4202 43.9288 28.2259 43.7282 27.8842 43.7282C27.4084 43.7282 27.1872 44.0625 27.1403 44.5306Z" fill="white"/>
<path d="M31.1011 46.4608V41.9141H31.9521V46.4608H31.1011Z" fill="white"/>
<path d="M32.6904 46.4638V43.1206H33.4276L33.4946 43.5084H33.508C33.7626 43.1874 34.091 43.0537 34.4997 43.0537C35.1832 43.0537 35.5049 43.4883 35.5049 44.0901V46.4638H34.7008V44.157C34.7008 43.8293 34.4327 43.6822 34.1446 43.6822C33.8631 43.6822 33.4946 43.8761 33.4946 44.2907V46.4638H32.6904Z" fill="white"/>
<path d="M36.8708 46.4958L35.7383 43.1191H36.6429L37.3801 45.5463H37.3935L38.1507 43.1191H39.0218L37.8558 46.4958H36.8708Z" fill="white"/>
<path d="M39.9736 45.0387C40.0004 45.5202 40.1679 45.8678 40.6638 45.8678H41.8365V46.3961C41.3808 46.5031 41.0056 46.5365 40.6638 46.5365C39.538 46.5365 39.1226 45.8478 39.1226 44.798C39.1226 43.7483 39.6117 43.0596 40.7442 43.0596C41.6489 43.0596 42.0711 43.5811 42.0711 44.096C42.0711 44.5707 41.87 45.0387 41.0793 45.0387H39.9736ZM39.987 44.5306H40.8246C41.1463 44.5306 41.2669 44.3434 41.2669 44.1428C41.2669 43.9288 41.0726 43.7282 40.7308 43.7282C40.2551 43.7282 40.0339 44.0625 39.987 44.5306Z" fill="white"/>
<path d="M44.0137 43.0596C44.4023 43.0596 44.6503 43.093 45.106 43.2V43.7282H44.0472C43.6049 43.7282 43.491 43.9021 43.491 44.0492C43.491 44.2163 43.5781 44.3634 44.007 44.4503C44.6369 44.5707 45.2668 44.7445 45.2668 45.5001C45.2668 46.249 44.6838 46.5365 43.8931 46.5365C43.5044 46.5365 43.0554 46.5031 42.6064 46.3961V45.8678H43.8529C44.2817 45.8678 44.3956 45.6539 44.3956 45.5001C44.3956 45.3329 44.3085 45.2059 43.8797 45.119C43.2498 44.9986 42.6198 44.8515 42.6198 44.0492C42.6198 43.3471 43.2297 43.0596 44.0137 43.0596Z" fill="white"/>
<path d="M46.0387 45.6281V43.7425H45.5361V43.2544L46.0387 43.1207L46.4073 42.1846H46.8429V43.1207H47.6805V43.7425H46.8429V45.5612C46.8429 45.7818 46.9367 45.8621 47.1779 45.8621H47.6805V46.3903C47.4124 46.4839 47.2382 46.5307 46.9769 46.5307C46.2599 46.5307 46.0387 46.1362 46.0387 45.6281Z" fill="white"/>
<path d="M48.9199 41.7871V42.6898H48.1157V41.7871H48.9199ZM48.9199 43.1244V46.4676H48.1157V43.1244H48.9199Z" fill="white"/>
<path d="M49.5903 46.4638V43.1206H50.3275L50.3945 43.5084H50.4079C50.6625 43.1874 50.9909 43.0537 51.3996 43.0537C51.8821 43.0537 52.1837 43.2677 52.3177 43.6087H52.3445C52.6192 43.1941 53.0012 43.0537 53.41 43.0537C54.0935 43.0537 54.4151 43.4883 54.4151 44.0901V46.4638H53.611V44.157C53.611 43.8293 53.343 43.6822 53.0548 43.6822C52.7801 43.6822 52.4249 43.8694 52.4048 44.2573V46.4638H51.6007V44.157C51.6007 43.8293 51.3326 43.6822 51.0445 43.6822C50.763 43.6822 50.3945 43.8761 50.3945 44.2907V46.4638H49.5903Z" fill="white"/>
<path d="M55.8681 45.0387C55.8949 45.5202 56.0625 45.8678 56.5583 45.8678H57.731V46.3961C57.2754 46.5031 56.9001 46.5365 56.5583 46.5365C55.4326 46.5365 55.0171 45.8478 55.0171 44.798C55.0171 43.7483 55.5063 43.0596 56.6388 43.0596C57.5434 43.0596 57.9656 43.5811 57.9656 44.096C57.9656 44.5707 57.7646 45.0387 56.9738 45.0387H55.8681ZM55.8815 44.5306H56.7192C57.0408 44.5306 57.1614 44.3434 57.1614 44.1428C57.1614 43.9288 56.9671 43.7282 56.6254 43.7282C56.1496 43.7282 55.9284 44.0625 55.8815 44.5306Z" fill="white"/>
<path d="M58.5352 46.4638V43.1206H59.2723L59.3393 43.5084H59.3527C59.6073 43.1874 59.9357 43.0537 60.3445 43.0537C61.028 43.0537 61.3496 43.4883 61.3496 44.0901V46.4638H60.5455V44.157C60.5455 43.8293 60.2774 43.6822 59.9893 43.6822C59.7079 43.6822 59.3393 43.8761 59.3393 44.2907V46.4638H58.5352Z" fill="white"/>
<path d="M62.2208 45.6281V43.7425H61.7183V43.2544L62.2208 43.1207L62.5894 42.1846H63.025V43.1207H63.8626V43.7425H63.025V45.5612C63.025 45.7818 63.1188 45.8621 63.36 45.8621H63.8626V46.3903C63.5946 46.4839 63.4203 46.5307 63.159 46.5307C62.442 46.5307 62.2208 46.1362 62.2208 45.6281Z" fill="white"/>
<path d="M64.1982 44.7922C64.1982 43.7424 64.6137 43.0537 65.7395 43.0537C66.8653 43.0537 67.2808 43.7424 67.2808 44.7922C67.2808 45.8419 66.8653 46.5306 65.7395 46.5306C64.6137 46.5306 64.1982 45.8419 64.1982 44.7922ZM65.0426 44.7922C65.0426 45.4474 65.19 45.8754 65.7395 45.8754C66.2823 45.8754 66.4364 45.4474 66.4364 44.7922C66.4364 44.1436 66.2823 43.7157 65.7395 43.7157C65.19 43.7223 65.0426 44.1503 65.0426 44.7922Z" fill="white"/>
<path fill-rule="evenodd" clip-rule="evenodd" d="M43.1902 16.3916C43.016 16.3916 42.8686 16.3983 42.7614 16.405C42.6542 16.405 42.567 16.4183 42.5067 16.4384C42.4464 16.4585 42.3995 16.4852 42.3727 16.5253C42.3459 16.5588 42.3191 16.6056 42.299 16.6657L40.2082 22.6567C40.168 22.7771 40.1412 22.8774 40.1345 22.9509C40.1211 23.0245 40.1345 23.0847 40.168 23.1248C40.2015 23.1649 40.2686 23.185 40.3557 23.1983C40.4495 23.205 40.5701 23.2117 40.7309 23.2117C40.8784 23.2117 40.999 23.2117 41.0928 23.1983C41.1866 23.1916 41.2603 23.1783 41.3072 23.1649C41.3608 23.1448 41.3943 23.1181 41.4211 23.0847C41.448 23.0512 41.4681 23.0111 41.4815 22.9576L41.9103 21.6404H44.4568L44.9124 22.9977C44.9258 23.0445 44.9392 23.078 44.966 23.1047C44.9861 23.1315 45.0264 23.1515 45.0733 23.1716C45.1269 23.1916 45.2006 23.1983 45.3011 23.1983C45.4016 23.205 45.5423 23.2117 45.7166 23.2117C45.8908 23.2117 46.0248 23.205 46.1186 23.1983C46.2192 23.1916 46.2795 23.1716 46.3197 23.1315C46.3599 23.0913 46.3733 23.0379 46.3666 22.9643C46.3532 22.8908 46.3264 22.7905 46.2862 22.6634L44.1954 16.6724C44.1753 16.6056 44.1485 16.5588 44.1217 16.5186C44.0949 16.4785 44.0413 16.4518 43.9743 16.4317C43.9073 16.4117 43.8134 16.3983 43.6928 16.3983C43.5655 16.3916 43.398 16.3916 43.1902 16.3916ZM42.2119 20.584L43.1768 17.7155L44.1351 20.584H42.2119ZM52.9605 16.405C52.8332 16.405 52.7327 16.4117 52.6522 16.4183C52.5718 16.425 52.5048 16.4384 52.4579 16.4585C52.4043 16.4785 52.3708 16.4986 52.3507 16.532C52.3306 16.5588 52.3172 16.5922 52.3172 16.6256V19.795C52.3172 20.0357 52.3172 20.2831 52.3239 20.5505C52.3306 20.8113 52.3373 21.0721 52.344 21.3061C52.277 21.1657 52.2167 21.0319 52.1497 20.8915L51.9419 20.4703C51.8749 20.3232 51.8012 20.1761 51.7208 20.0357L51.4996 19.5877L50.1795 17.1204C50.1125 16.9867 50.0522 16.873 49.9852 16.7861C49.9182 16.6925 49.8512 16.6189 49.7775 16.5654C49.7104 16.512 49.63 16.4785 49.5362 16.4585C49.4424 16.4317 49.3352 16.4183 49.2012 16.4183H48.464C48.3233 16.4183 48.2027 16.4585 48.1089 16.5387C48.0151 16.6189 47.9681 16.7393 47.9681 16.9065V22.9777C47.9681 23.0111 47.9748 23.0445 47.995 23.0713C48.0151 23.098 48.0486 23.1248 48.0888 23.1448C48.1357 23.1649 48.2027 23.1716 48.2764 23.185C48.3568 23.1916 48.4573 23.1983 48.578 23.1983C48.7053 23.1983 48.8058 23.1916 48.8862 23.185C48.9666 23.1716 49.0269 23.1582 49.0738 23.1448C49.1207 23.1248 49.1542 23.098 49.1744 23.0713C49.1945 23.0445 49.2079 23.0111 49.2079 22.9777V19.4473C49.2079 19.1798 49.2079 18.9257 49.1945 18.6783C49.1878 18.4309 49.1811 18.1769 49.1744 17.9295C49.2548 18.1367 49.3419 18.344 49.4491 18.5647C49.5496 18.7786 49.6501 18.9859 49.7506 19.1731L51.4326 22.3291C51.5264 22.5029 51.6002 22.6434 51.6672 22.757C51.7409 22.864 51.8079 22.9509 51.8816 23.0178C51.9553 23.0847 52.0424 23.1248 52.1228 23.1515C52.21 23.1716 52.3239 23.185 52.4445 23.185H53.0275C53.0945 23.185 53.1548 23.1783 53.2218 23.1582C53.2888 23.1382 53.3425 23.1047 53.3894 23.0646C53.4363 23.0245 53.4765 22.971 53.5033 22.9041C53.5301 22.844 53.5435 22.7704 53.5435 22.6902V16.6256C53.5435 16.5922 53.5368 16.5654 53.5167 16.532C53.4966 16.5053 53.4631 16.4785 53.4229 16.4585C53.376 16.4317 53.3156 16.4183 53.2419 16.4183C53.1749 16.405 53.0744 16.405 52.9605 16.405ZM57.9595 16.425H56.2574C56.1435 16.425 56.043 16.4585 55.9626 16.532C55.8889 16.5989 55.8487 16.7059 55.8487 16.8596V22.7503C55.8487 22.9041 55.8889 23.0178 55.9626 23.0847C56.043 23.1515 56.1368 23.185 56.2574 23.185H58.06C58.3281 23.185 58.576 23.1716 58.7972 23.1382C59.0183 23.1047 59.2327 23.0512 59.4204 22.9844C59.6147 22.9175 59.7956 22.8239 59.9565 22.7169C60.1173 22.6099 60.258 22.4829 60.3719 22.3291C60.4926 22.1753 60.5864 22.0082 60.6467 21.8143C60.7137 21.6203 60.7472 21.3997 60.7472 21.159C60.7472 20.925 60.7137 20.7244 60.64 20.5372C60.573 20.3566 60.4792 20.1961 60.3518 20.0557C60.2379 19.922 60.0905 19.8017 59.9297 19.7147C59.7688 19.6278 59.5946 19.5676 59.4003 19.5275C59.5477 19.474 59.6817 19.4005 59.7956 19.3069C59.9163 19.2199 60.0168 19.113 60.0905 18.9926C60.1709 18.8722 60.2312 18.7452 60.2781 18.6048C60.325 18.4577 60.3384 18.3039 60.3384 18.1367C60.3384 17.8425 60.2848 17.5885 60.1843 17.3745C60.0771 17.1605 59.923 16.98 59.7286 16.8396C59.5343 16.6992 59.2931 16.5922 59.0049 16.5253C58.7235 16.4585 58.375 16.425 57.9595 16.425ZM57.2023 19.1999V17.448H57.8992C58.1137 17.448 58.2812 17.4681 58.4085 17.5015C58.5358 17.5417 58.643 17.5951 58.7302 17.6687C58.8106 17.7356 58.8776 17.8225 58.9178 17.9295C58.958 18.0364 58.9781 18.1568 58.9781 18.2972C58.9781 18.4176 58.958 18.5312 58.9245 18.6449C58.8843 18.7519 58.824 18.8522 58.7436 18.9324C58.6698 19.0127 58.5693 19.0728 58.4487 19.1263C58.3281 19.1731 58.174 19.1932 57.9729 19.1932H57.2023V19.1999ZM57.2023 22.1285V20.2095H58.0198C58.2678 20.2095 58.4755 20.2363 58.6296 20.2764C58.7838 20.3232 58.9178 20.3834 59.0183 20.4703C59.1188 20.5572 59.1925 20.6575 59.2461 20.7845C59.2998 20.9049 59.3266 21.0453 59.3266 21.2058C59.3266 21.3529 59.2998 21.4866 59.2461 21.607C59.1925 21.7206 59.1188 21.8209 59.025 21.9012C58.9312 21.9747 58.8173 22.0349 58.6833 22.075C58.5559 22.1151 58.3951 22.1352 58.2008 22.1352H57.2023V22.1285ZM63.2534 16.3916C63.1194 16.3916 63.0122 16.3983 62.9251 16.4117C62.8379 16.425 62.7642 16.4384 62.7106 16.4518C62.657 16.4718 62.6235 16.4919 62.5967 16.5186C62.5766 16.5454 62.5632 16.5788 62.5632 16.6123V22.9911C62.5632 23.0245 62.5766 23.0579 62.5967 23.0847C62.6235 23.1114 62.657 23.1382 62.7106 23.1515C62.7642 23.1716 62.8312 23.1783 62.9184 23.1916C63.0122 23.1983 63.1194 23.205 63.2534 23.205C63.3874 23.205 63.5014 23.1983 63.5885 23.1916C63.6756 23.1783 63.7493 23.1649 63.7962 23.1515C63.8498 23.1315 63.89 23.1114 63.9034 23.0847C63.9302 23.0579 63.9436 23.0245 63.9436 22.9911V16.6123C63.9436 16.5788 63.9302 16.5454 63.9034 16.5186C63.8833 16.4919 63.8498 16.4718 63.7962 16.4518C63.7426 16.4384 63.6756 16.425 63.5885 16.4117C63.5014 16.3983 63.3874 16.3916 63.2534 16.3916ZM73.553 16.425H72.6283C72.501 16.425 72.3871 16.4384 72.2865 16.4652C72.1927 16.4919 72.1056 16.532 72.0319 16.5922C71.9582 16.6524 71.8979 16.7326 71.8443 16.8396C71.7907 16.9399 71.737 17.0669 71.6968 17.214L70.1556 21.2259L68.688 17.2007C68.6478 17.0536 68.5942 16.9332 68.5406 16.8396C68.487 16.7393 68.4133 16.6591 68.3329 16.5989C68.2525 16.5387 68.1519 16.4919 68.038 16.4718C67.9241 16.4451 67.7834 16.4317 67.6226 16.4317H66.7179C66.5638 16.4317 66.4365 16.4785 66.3426 16.5721C66.2488 16.6657 66.2019 16.7995 66.2019 16.98V22.9977C66.2019 23.0312 66.2086 23.0646 66.2287 23.0913C66.2555 23.1181 66.289 23.1448 66.3359 23.1582C66.3895 23.1783 66.4566 23.185 66.537 23.1983C66.6174 23.205 66.7246 23.2117 66.8519 23.2117C66.9859 23.2117 67.0865 23.205 67.1669 23.1983C67.2473 23.185 67.321 23.1716 67.3679 23.1582C67.4215 23.1382 67.4617 23.1181 67.4751 23.0913C67.4952 23.0646 67.5086 23.0312 67.5086 22.9977L67.522 17.4949L69.4118 22.9911C69.4252 23.0312 69.4453 23.0646 69.4721 23.0913C69.5056 23.1181 69.5458 23.1448 69.5994 23.1649C69.653 23.185 69.7267 23.1983 69.8071 23.205C69.8875 23.2117 69.988 23.2184 70.1087 23.2184C70.2293 23.2184 70.3298 23.2184 70.4102 23.205C70.4906 23.205 70.5643 23.1916 70.6113 23.1783C70.6716 23.1582 70.7118 23.1382 70.7453 23.1114C70.7788 23.078 70.7989 23.0445 70.8123 22.9977L72.7891 17.5015V23.0044C72.7891 23.0379 72.7958 23.0713 72.8159 23.098C72.836 23.1248 72.8695 23.1515 72.9231 23.1649C72.9701 23.185 73.0371 23.1916 73.1175 23.205C73.1979 23.2117 73.3051 23.2184 73.4324 23.2184C73.5597 23.2184 73.667 23.2117 73.7541 23.205C73.8345 23.1916 73.9015 23.1783 73.9484 23.1649C74.002 23.1448 74.0355 23.1248 74.0556 23.098C74.0824 23.0713 74.0891 23.0379 74.0891 23.0044V16.9867C74.0891 16.8998 74.0757 16.8262 74.0489 16.7594C74.0288 16.6925 73.9953 16.6323 73.9484 16.5855C73.9082 16.5387 73.8546 16.4986 73.7809 16.4785C73.7273 16.4317 73.6469 16.425 73.553 16.425ZM78.7397 16.3916C78.5588 16.3916 78.4181 16.3983 78.3109 16.405C78.2036 16.405 78.1232 16.4183 78.0562 16.4384C77.9959 16.4585 77.949 16.4852 77.9289 16.5253C77.9021 16.5588 77.8753 16.6056 77.8552 16.6657L75.7644 22.6567C75.7242 22.7771 75.6974 22.8774 75.6907 22.9509C75.684 23.0245 75.6907 23.0847 75.7242 23.1248C75.7577 23.1649 75.8247 23.185 75.9118 23.1983C76.0057 23.205 76.1263 23.2117 76.2871 23.2117C76.4345 23.2117 76.5552 23.2117 76.649 23.1983C76.7428 23.1916 76.8165 23.1783 76.8634 23.1649C76.917 23.1448 76.9505 23.1181 76.9706 23.0847C76.9974 23.0512 77.0175 23.0111 77.0309 22.9576L77.4531 21.6404H79.9995L80.4552 22.9977C80.4686 23.0445 80.4887 23.078 80.5088 23.1047C80.5289 23.1315 80.5691 23.1515 80.616 23.1716C80.6696 23.1916 80.7434 23.1983 80.8439 23.1983C80.9444 23.205 81.0851 23.2117 81.2593 23.2117C81.4336 23.2117 81.5609 23.205 81.6614 23.1983C81.7619 23.1916 81.8289 23.1716 81.8624 23.1315C81.9027 23.0913 81.9161 23.0379 81.9027 22.9643C81.896 22.8908 81.8692 22.7905 81.8289 22.6634L79.7315 16.6724C79.7114 16.6056 79.6846 16.5588 79.6511 16.5186C79.6243 16.4785 79.5774 16.4518 79.5103 16.4317C79.4433 16.4117 79.3495 16.3983 79.2222 16.3983C79.1083 16.3916 78.9408 16.3916 78.7397 16.3916ZM77.7614 20.584L78.7263 17.7155L79.6846 20.584H77.7614Z" fill="#4D4D4F"/>
<path d="M43.6655 12.2227H43.0289L42.6536 11.0192H41.0052L40.6366 12.2227H40L41.434 7.64258H42.2248L43.6655 12.2227ZM41.1258 10.5512H42.533L41.8294 8.33127H41.8227L41.1258 10.5512Z" fill="#4A4C4E"/>
<path d="M46.7822 8.88281V12.226H46.2796L46.2461 11.8181H46.2327C45.958 12.1591 45.5961 12.2929 45.1739 12.2929C44.4971 12.2929 44.1353 11.8783 44.1353 11.2765V8.88281H44.6713V11.2431C44.6713 11.6376 44.9863 11.8582 45.3817 11.8582C45.7703 11.8582 46.2461 11.5841 46.2461 11.0759V8.88281H46.7822Z" fill="#4A4C4E"/>
<path d="M47.8005 11.5072V9.30738H47.251V8.97975L47.8005 8.87945L48.0216 7.94336H48.3366V8.87945H49.2613V9.30738H48.3366V11.4738C48.3366 11.7479 48.4505 11.8215 48.7051 11.8215H49.2613V12.1691C48.9933 12.2494 48.8391 12.2895 48.6046 12.2895C47.9613 12.2895 47.8005 11.9284 47.8005 11.5072Z" fill="#4A4C4E"/>
<path d="M49.6768 10.551C49.6768 9.52126 50.0654 8.8125 51.1309 8.8125C52.2031 8.8125 52.5917 9.52126 52.5917 10.551C52.5917 11.5873 52.2031 12.2894 51.1309 12.2894C50.0654 12.2894 49.6768 11.5873 49.6768 10.551ZM50.2397 10.551C50.2397 11.2798 50.4407 11.8347 51.1309 11.8347C51.8278 11.8347 52.0289 11.2798 52.0289 10.551C52.0289 9.82214 51.8278 9.26717 51.1309 9.26717C50.4407 9.26717 50.2397 9.82214 50.2397 10.551Z" fill="#4A4C4E"/>
<path d="M53.3291 12.2226V8.87936H53.8317L53.8652 9.44102H53.8786C54.0997 8.99972 54.5487 8.8125 54.9709 8.8125V9.3541H54.8369C54.2338 9.3541 53.8652 9.74859 53.8652 10.2166V12.2226H53.3291Z" fill="#4A4C4E"/>
<path d="M55.54 12.2226V8.87936H56.0426L56.0761 9.44102H56.0895C56.3107 8.99972 56.7596 8.8125 57.1818 8.8125V9.3541H57.0478C56.4447 9.3541 56.0761 9.74859 56.0761 10.2166V12.2226H55.54Z" fill="#4A4C4E"/>
<path d="M58.1868 10.7114C58.2002 11.3399 58.4213 11.8214 59.0713 11.8214H60.177V12.1691C59.7548 12.256 59.3997 12.2894 59.0713 12.2894C58.0059 12.2894 57.6172 11.5873 57.6172 10.551C57.6172 9.52126 58.0729 8.8125 59.1517 8.8125C59.9894 8.8125 60.3982 9.30729 60.3982 9.80208C60.3982 10.2501 60.1971 10.7114 59.4198 10.7114H58.1868ZM58.1935 10.337H59.2858C59.7347 10.337 59.8621 10.0695 59.8621 9.82214C59.8621 9.548 59.6074 9.28055 59.1383 9.28055C58.5084 9.28055 58.2337 9.74191 58.1935 10.337Z" fill="#4A4C4E"/>
<path d="M63.2126 11.8181H63.1992C62.9379 12.1591 62.6565 12.2929 62.2477 12.2929C61.3162 12.2929 60.9678 11.5975 60.9678 10.5611C60.9678 9.53139 61.4234 8.88281 62.4487 8.88281H63.7487V11.8917C63.7487 12.9281 63.3601 13.6301 62.2879 13.6301C61.9595 13.6301 61.6647 13.5967 61.2358 13.5098V13.1621H62.3147C63.0116 13.1621 63.2126 12.6205 63.2126 11.9452V11.8181ZM63.2126 9.3308H62.4755C61.7786 9.3308 61.5307 9.85902 61.5307 10.5611C61.5307 11.2765 61.6982 11.8516 62.4152 11.8516C62.8039 11.8516 63.2126 11.5774 63.2126 11.0626V9.3308Z" fill="#4A4C4E"/>
<path d="M67.2007 8.88281V12.226H66.6981L66.6646 11.8181H66.6512C66.3764 12.1591 66.0146 12.2929 65.5924 12.2929C64.9156 12.2929 64.5537 11.8783 64.5537 11.2765V8.88281H65.0898V11.2431C65.0898 11.6376 65.4048 11.8582 65.8001 11.8582C66.1888 11.8582 66.6646 11.5841 66.6646 11.0759V8.88281H67.2007Z" fill="#4A4C4E"/>
<path d="M68.0039 7.54297H68.54V11.4746C68.54 11.7621 68.607 11.8222 69.0426 11.8222V12.2569C68.1379 12.3237 68.0039 12.0897 68.0039 11.4746V7.54297Z" fill="#4A4C4E"/>
<path d="M69.6131 9.28055V8.93285C70.042 8.8593 70.4641 8.8125 70.8126 8.8125C71.5631 8.8125 71.9987 9.0599 71.9987 9.90238V12.2226H71.4961L71.4626 11.8147H71.4492C71.1544 12.1891 70.8461 12.2894 70.4172 12.2894C69.7873 12.2894 69.3853 11.9016 69.3853 11.3132C69.3853 10.5777 69.8878 10.3169 70.5244 10.3169H71.4626V9.92912C71.4626 9.51457 71.3286 9.28055 70.7657 9.28055H69.6131ZM71.4626 10.6981H70.6451C70.176 10.6981 69.9213 10.892 69.9213 11.2865C69.9213 11.6876 70.2296 11.8548 70.625 11.8548C70.9935 11.8548 71.4626 11.6074 71.4626 11.0725V10.6981Z" fill="#4A4C4E"/>
<path d="M73.9818 12.276C73.0704 12.1958 72.7354 11.5205 72.7354 10.551C72.7354 9.52126 73.124 8.8125 74.1895 8.8125C74.5179 8.8125 74.7725 8.84593 75.1947 8.93285V9.28055H74.1895C73.4993 9.28055 73.2982 9.82214 73.2982 10.551C73.2982 11.2798 73.4993 11.8214 74.1895 11.8214H75.1947V12.1691C74.806 12.2493 74.5581 12.2827 74.2699 12.2894V12.5636C74.491 12.5903 74.8194 12.724 74.8194 13.045C74.8194 13.3592 74.5916 13.5598 74.1694 13.5598C74.0153 13.5598 73.8745 13.5465 73.707 13.4996V13.2857H74.1024C74.29 13.2857 74.4039 13.2121 74.4039 13.0583C74.4039 12.9112 74.2967 12.7842 73.9818 12.7575V12.276Z" fill="#4A4C4E"/>
<path d="M75.824 9.28344V8.93575C76.2529 8.8622 76.6751 8.8154 77.0235 8.8154C77.7741 8.8154 78.2096 9.06279 78.2096 9.90527V12.2254H77.707L77.6735 11.8176H77.6601C77.3653 12.192 77.057 12.2923 76.6282 12.2923C75.9983 12.2923 75.5962 11.9045 75.5962 11.3161C75.5962 10.5806 76.0988 10.3198 76.7354 10.3198H77.6735V9.93202C77.6735 9.51746 77.5395 9.28344 76.9766 9.28344H75.824ZM76.6416 8.11333C76.4539 8.11333 76.2663 8.20693 76.1122 8.35404L75.9715 8.05315C76.1792 7.79907 76.3869 7.69877 76.6416 7.69877C76.9498 7.69877 77.1911 7.91942 77.4122 7.91942C77.5998 7.91942 77.7875 7.82581 77.9416 7.67871L78.0823 7.9796C77.8679 8.23368 77.6668 8.34066 77.4122 8.34066C77.171 8.34066 76.856 8.11333 76.6416 8.11333ZM77.6735 10.701H76.856C76.3869 10.701 76.1323 10.8949 76.1323 11.2894C76.1323 11.6905 76.4405 11.8577 76.8359 11.8577C77.2045 11.8577 77.6735 11.6103 77.6735 11.0754V10.701Z" fill="#4A4C4E"/>
<path d="M78.9736 10.551C78.9736 9.52126 79.3623 8.8125 80.4278 8.8125C81.5 8.8125 81.8886 9.52126 81.8886 10.551C81.8886 11.5873 81.5 12.2894 80.4278 12.2894C79.3623 12.2894 78.9736 11.5873 78.9736 10.551ZM79.5365 10.551C79.5365 11.2798 79.7376 11.8347 80.4278 11.8347C81.1247 11.8347 81.3257 11.2798 81.3257 10.551C81.3257 9.82214 81.1247 9.26717 80.4278 9.26717C79.7376 9.26717 79.5365 9.82214 79.5365 10.551Z" fill="#4A4C4E"/>
</svg>
