<svg width="100" height="66" viewBox="0 0 100 66" fill="none" xmlns="http://www.w3.org/2000/svg">
<path fill-rule="evenodd" clip-rule="evenodd" d="M95.0881 64.3182L95.1737 63.7631C95.3419 63.9937 95.5432 64.1157 95.7776 64.1322C95.9435 64.1204 96.0989 64.0471 96.2132 63.9268C96.271 63.8679 96.3166 63.7982 96.3473 63.7217C96.378 63.6453 96.3932 63.5635 96.3922 63.4812C96.3956 63.3384 96.3574 63.1978 96.2823 63.0762C96.1825 62.93 96.0699 62.7928 95.9458 62.6664C95.8202 62.5389 95.7063 62.4005 95.6055 62.2527C95.5281 62.1307 95.4854 61.9901 95.4819 61.8458C95.4858 61.8187 95.4917 61.7838 95.4965 61.7364C95.5014 61.6889 95.5063 61.655 95.5092 61.6337C95.5714 61.3508 95.7008 61.1299 95.8952 60.9759C96.0897 60.8208 96.3046 60.7433 96.5429 60.7433C96.8123 60.7433 97.0223 60.8228 97.1731 60.9817L97.0953 61.561H97.0787C97.0189 61.4589 96.9404 61.3688 96.8473 61.2956C96.7578 61.2277 96.6294 61.1919 96.4641 61.1919C96.4 61.1973 96.3376 61.2154 96.2805 61.245C96.2234 61.2746 96.1728 61.3151 96.1315 61.3643C96.0495 61.4537 95.9934 61.5635 95.9691 61.6821C95.9691 61.8177 95.9935 61.9311 96.0411 62.0231C96.0878 62.1161 96.1578 62.2072 96.2453 62.2944C96.3338 62.3845 96.4427 62.493 96.5692 62.6189C96.786 62.8301 96.892 63.0762 96.892 63.3581C96.892 63.5693 96.8414 63.7708 96.7374 63.9588C96.6363 64.1419 96.4896 64.296 96.3115 64.4064C96.1306 64.5187 95.9322 64.574 95.7163 64.574C95.5092 64.574 95.2981 64.4906 95.0881 64.3182ZM94.4142 61.0466L94.457 60.7947H94.9238L94.3481 64.5158H93.8696L93.928 64.2329H93.9114C93.8257 64.353 93.7082 64.4469 93.572 64.5042C93.4403 64.5534 93.3004 64.577 93.1597 64.574C92.9623 64.5672 92.8194 64.4974 92.7299 64.3628C92.6424 64.2329 92.5899 64.0276 92.5723 63.7553C92.5723 63.5354 92.5957 63.2516 92.6424 62.9028C92.689 62.554 92.725 62.3186 92.7523 62.1985C92.8203 61.8768 92.8942 61.6153 92.9759 61.4138C93.0566 61.2103 93.1714 61.0495 93.3173 60.9313C93.4795 60.8073 93.6788 60.7411 93.8832 60.7433C94.1195 60.7433 94.2946 60.8441 94.4084 61.0466H94.4142ZM94.2343 62.4814C94.2829 62.2082 94.3062 61.9708 94.3062 61.7712C94.3062 61.3363 94.1779 61.1183 93.927 61.1183C93.7237 61.126 93.5613 61.25 93.4408 61.4961C93.3106 61.7756 93.2253 62.0738 93.1879 62.3796L93.1364 62.7284C93.1101 62.9164 93.0887 63.0752 93.0741 63.2031C93.0586 63.3237 93.0479 63.4449 93.042 63.5664C93.0518 63.767 93.0839 63.922 93.1441 64.0285C93.2035 64.137 93.3046 64.1903 93.4515 64.1903C93.5289 64.1868 93.6045 64.1657 93.6725 64.1288C93.7406 64.0919 93.7993 64.04 93.8443 63.9772C93.9377 63.8512 94.0106 63.6769 94.0602 63.4569C94.1088 63.239 94.1682 62.9125 94.2353 62.4814H94.2343ZM91.3684 60.7957H91.8391L91.7613 61.2927H91.7749C91.8547 61.1435 91.9578 61.0127 92.0842 60.9051C92.1891 60.806 92.3267 60.7485 92.4712 60.7433L92.3934 61.2927H92.2476C92.1721 61.2919 92.0975 61.3084 92.0294 61.3408C91.9613 61.3732 91.9015 61.4207 91.8547 61.4796C91.7477 61.6036 91.6699 61.8381 91.6184 62.1839L91.2527 64.5158H90.7957L91.3694 60.7957H91.3684ZM88.7438 61.9001L88.4083 64.0741H88.559C88.8021 64.0741 88.9995 64.0421 89.1503 63.9772C89.3057 63.908 89.4315 63.7861 89.5052 63.6333C89.5927 63.4686 89.653 63.2332 89.69 62.9289C89.69 62.8999 89.6919 62.8534 89.6968 62.7933C89.7016 62.7303 89.7036 62.6838 89.7036 62.6461C89.7036 62.3855 89.6433 62.1946 89.5237 62.0774C89.405 61.9592 89.194 61.9001 88.8945 61.9001H88.7438ZM89.1162 59.4849L88.808 61.4583H89.1444C89.4099 61.4583 89.5976 61.3721 89.7065 61.1977C89.8145 61.0233 89.8991 60.7676 89.9545 60.4324L89.9769 60.2367C89.9905 60.1311 89.9982 60.0497 89.9982 59.9906C89.9982 59.8133 89.9506 59.6835 89.8572 59.6031C89.7639 59.5236 89.5918 59.4849 89.3389 59.4849H89.1162ZM88.6854 59.0557H89.5674C89.8854 59.0557 90.1247 59.1274 90.2842 59.2688C90.4417 59.4093 90.5205 59.6447 90.5205 59.9761C90.5205 60.1504 90.5049 60.3219 90.4728 60.4895C90.4408 60.6567 90.3885 60.8193 90.3172 60.9739C90.2474 61.1248 90.1545 61.264 90.042 61.3866C89.9282 61.5105 89.7911 61.6109 89.6384 61.6821C89.8203 61.7499 89.9623 61.8449 90.0683 61.9708C90.1752 62.0967 90.2268 62.3041 90.2268 62.5889C90.2268 62.7323 90.2219 62.8447 90.2122 62.9154C90.1577 63.3039 90.0731 63.6129 89.9564 63.8454C89.8465 64.0682 89.6632 64.2467 89.4371 64.3511C89.2076 64.4606 88.9003 64.5158 88.5133 64.5158H87.8326L88.6854 59.0557ZM83.4468 63.0471C83.4497 62.9813 83.4808 62.7894 83.5411 62.4668C83.5751 62.2266 83.6384 61.9795 83.7288 61.7238C83.8183 61.468 83.9641 61.2413 84.1606 61.0417C84.357 60.8431 84.6118 60.7433 84.9191 60.7433C85.4199 60.7598 85.6708 61.1425 85.6708 61.8875C85.6708 62.305 85.6319 62.6683 85.5551 62.9725C85.5114 63.1683 85.4575 63.3617 85.3936 63.5519C85.3346 63.7281 85.254 63.8963 85.1535 64.0527C85.0562 64.2078 84.9317 64.3318 84.782 64.4257C84.625 64.523 84.4437 64.5743 84.2588 64.574C83.7162 64.574 83.4371 64.1816 83.4196 63.3998C83.439 63.2264 83.4468 63.1072 83.4468 63.0471ZM85.1554 62.5085C85.1749 62.2392 85.1826 62.0541 85.1826 61.9524C85.1826 61.4351 85.0475 61.1774 84.7752 61.1774C84.6641 61.1939 84.5611 61.2447 84.4805 61.3227C84.3833 61.4099 84.2899 61.5504 84.2082 61.7461C84.1106 61.9912 84.043 62.2472 84.0069 62.5085C83.9622 62.8602 83.933 63.1576 83.9213 63.3998C83.932 63.6323 83.9671 63.8106 84.0303 63.9384C84.0925 64.0673 84.1975 64.1322 84.3453 64.1322C84.5923 64.1196 84.7781 63.9346 84.9026 63.5732C85.027 63.2128 85.1116 62.8582 85.1554 62.5085ZM82.3518 62.3951C82.3907 62.1064 82.4101 61.9127 82.4101 61.8148C82.4101 61.3605 82.2837 61.1338 82.0309 61.1338H81.9434C81.7372 61.1919 81.5865 61.3605 81.4902 61.6405C81.391 61.9214 81.3054 62.3002 81.2335 62.7778C81.2216 62.8791 81.2079 62.9802 81.1926 63.081C81.1693 63.2564 81.1537 63.4046 81.1479 63.5238C81.1576 63.7369 81.1917 63.8997 81.2578 64.0159C81.322 64.1322 81.4357 64.1903 81.5991 64.1903C81.6688 64.1834 81.7359 64.1607 81.7954 64.1239C81.8549 64.0871 81.9052 64.0373 81.9424 63.9782C82.0319 63.8503 82.1019 63.6972 82.1505 63.5228C82.2023 63.335 82.2423 63.1441 82.2701 62.9512C82.3022 62.7478 82.3285 62.5637 82.3518 62.3951ZM83.3612 58.7157L82.452 64.5158H81.9852L82.0309 64.2329H82.0153C81.8169 64.4596 81.5981 64.574 81.3579 64.574C81.1168 64.574 80.9446 64.4868 80.8435 64.3134C80.7404 64.1399 80.685 63.8968 80.6762 63.5819C80.686 63.3252 80.7404 62.8853 80.8425 62.2644C80.8863 61.997 80.9524 61.7509 81.0399 61.5232C81.1179 61.3108 81.2436 61.1189 81.4075 60.9623C81.5644 60.8163 81.7726 60.7376 81.9871 60.7433C82.238 60.7433 82.4131 60.8441 82.5103 61.0466H82.5171L82.8828 58.7157H83.3612ZM76.3167 63.0471C76.3186 62.9813 76.3507 62.7894 76.411 62.4668C76.4451 62.2266 76.5083 61.9795 76.5987 61.7238C76.6882 61.468 76.8341 61.2413 77.0305 61.0417C77.1296 60.9427 77.248 60.8652 77.3786 60.8138C77.5091 60.7625 77.6488 60.7385 77.789 60.7433C78.2898 60.7598 78.5407 61.1425 78.5407 61.8875C78.5407 62.305 78.5018 62.6683 78.425 62.9725C78.3818 63.1684 78.3279 63.3618 78.2636 63.5519C78.205 63.7282 78.1243 63.8965 78.0234 64.0527C77.9261 64.2078 77.8017 64.3318 77.6519 64.4257C77.4949 64.523 77.3136 64.5743 77.1287 64.574C76.5861 64.574 76.307 64.1816 76.2905 63.3998C76.3099 63.2264 76.3167 63.1072 76.3167 63.0471ZM78.0263 62.5085C78.0457 62.2392 78.0555 62.0541 78.0555 61.9524C78.0555 61.4351 77.9193 61.1774 77.6451 61.1774C77.534 61.1937 77.4309 61.2446 77.3504 61.3227C77.2532 61.4099 77.1598 61.5504 77.0781 61.7461C76.9799 61.9909 76.9129 62.247 76.8788 62.5085C76.8321 62.8602 76.802 63.1576 76.7913 63.3998C76.801 63.6323 76.8399 63.8106 76.9002 63.9384C76.9624 64.0673 77.0675 64.1322 77.2153 64.1322C77.4623 64.1196 77.649 63.9346 77.7725 63.5732C77.8989 63.2128 77.9816 62.8582 78.0263 62.5085ZM75.0739 60.7947H75.5455L75.4658 61.2927H75.4804C75.5611 61.1435 75.6632 61.0127 75.7896 60.9051C75.8945 60.8059 76.0322 60.7484 76.1767 60.7433L76.0989 61.2927H75.953C75.8777 61.2918 75.8031 61.3082 75.7352 61.3406C75.6672 61.373 75.6077 61.4206 75.5611 61.4796C75.4551 61.6036 75.3763 61.8381 75.3238 62.1839L74.9572 64.5158H74.5002L75.0739 60.7957V60.7947ZM72.3131 60.7947H72.7915L72.4259 63.1314C72.4171 63.2204 72.4048 63.3089 72.3889 63.3969C72.3739 63.4871 72.3629 63.5779 72.3559 63.6691C72.3714 63.9772 72.5027 64.1322 72.7487 64.1322C72.8183 64.1363 72.8878 64.1246 72.9521 64.0981C73.0165 64.0716 73.0739 64.0309 73.1202 63.9791C73.2099 63.8751 73.2732 63.7512 73.305 63.6178C73.3419 63.4763 73.3779 63.2816 73.4159 63.0307L73.7669 60.7947H74.2473L73.8253 63.4647C73.7105 64.2039 73.3332 64.574 72.6924 64.574C72.1575 64.574 71.8833 64.3124 71.8687 63.7902C71.8735 63.7592 71.8784 63.7108 71.8833 63.6478C71.8881 63.5839 71.891 63.5383 71.8959 63.5083L72.3141 60.7957L72.3131 60.7947ZM71.8823 60.7947L71.8239 61.2355H71.2084L70.691 64.5158H70.2272L70.7503 61.2355H70.3555L70.4139 60.7947H70.8009L70.9721 59.7784H71.4301L71.2803 60.7957H71.8833L71.8823 60.7947ZM67.8466 60.7947H68.325L67.9604 63.1314C67.9511 63.2204 67.9385 63.3089 67.9224 63.3969C67.9049 63.5112 67.8933 63.6013 67.8884 63.6691C67.9049 63.9772 68.0362 64.1322 68.2832 64.1322C68.4427 64.1322 68.5662 64.0818 68.6528 63.9791C68.7433 63.8754 68.8074 63.7514 68.8395 63.6178C68.8755 63.4763 68.9124 63.2816 68.9494 63.0307L69.2994 60.7947H69.7818L69.3588 63.4647C69.244 64.2039 68.8667 64.574 68.2258 64.574C67.691 64.574 67.4168 64.3124 67.4022 63.7902C67.407 63.7592 67.4119 63.7108 67.4168 63.6478L67.4294 63.5083L67.8475 60.7957L67.8466 60.7947ZM66.2547 60.7947L66.4346 59.6341C66.4881 59.2902 66.5902 59.0431 66.739 58.8862C66.8022 58.8149 66.8796 58.7576 66.9664 58.7179C67.0531 58.6782 67.1472 58.657 67.2427 58.6556C67.3691 58.6556 67.5111 58.6847 67.6657 58.7428L67.5801 59.2524C67.5401 59.2063 67.4909 59.1689 67.4357 59.1425C67.3805 59.1162 67.3204 59.1015 67.2592 59.0993C67.2171 59.0998 67.1757 59.1101 67.1382 59.1292C67.1008 59.1484 67.0683 59.176 67.0433 59.2097C66.983 59.2843 66.9402 59.4016 66.913 59.5614L66.7127 60.7947H67.3302L67.2582 61.2355H66.6407L66.1253 64.5158H65.6663L66.1817 61.2355H65.7898L65.8482 60.7947H66.2547ZM61.3243 63.0471C61.3262 62.9813 61.3554 62.7894 61.4167 62.4668C61.4552 62.2136 61.5184 61.9648 61.6053 61.7238C61.6948 61.468 61.8397 61.2413 62.0371 61.0417C62.2335 60.8431 62.4864 60.7433 62.7956 60.7433C63.2974 60.7598 63.5464 61.1425 63.5464 61.8875C63.5464 62.305 63.5084 62.6683 63.4316 62.9725C63.3893 63.1687 63.3354 63.3621 63.2702 63.5519C63.2112 63.7281 63.1305 63.8963 63.03 64.0527C62.9327 64.2078 62.8083 64.3318 62.6605 64.4257C62.5026 64.5228 62.3208 64.5741 62.1353 64.574C61.5927 64.574 61.3136 64.1816 61.2961 63.3998C61.3155 63.2264 61.3233 63.1072 61.3233 63.0471H61.3243ZM63.0329 62.5085C63.0504 62.2392 63.0601 62.0541 63.0601 61.9524C63.0601 61.4351 62.924 61.1774 62.6517 61.1774C62.5404 61.1941 62.4371 61.2449 62.3561 61.3227C62.2588 61.4099 62.1664 61.5504 62.0838 61.7461C61.986 61.991 61.919 62.2471 61.8844 62.5085C61.8387 62.8602 61.8096 63.1576 61.7979 63.3998C61.8076 63.6323 61.8436 63.8106 61.9058 63.9384C61.969 64.0673 62.0741 64.1322 62.2219 64.1322C62.4689 64.1196 62.6546 63.9346 62.7791 63.5732C62.9005 63.228 62.9855 62.8712 63.0329 62.5085ZM60.7379 61.8885L60.3392 64.5158H59.8568L60.2818 61.8148C60.3013 61.6792 60.309 61.5804 60.309 61.5164C60.309 61.252 60.1924 61.1192 59.959 61.1192C59.8724 61.1229 59.7878 61.1461 59.7115 61.1871C59.6352 61.228 59.5692 61.2856 59.5184 61.3556C59.4124 61.499 59.3356 61.7257 59.285 62.0386L58.8883 64.5158H58.4312L59.005 60.7957H59.4766L59.428 61.0911C59.6808 60.8644 59.9376 60.7492 60.1924 60.7492C60.381 60.7492 60.5249 60.8102 60.6261 60.9264C60.7291 61.0446 60.7817 61.2026 60.7817 61.4012C60.7817 61.4544 60.7787 61.5019 60.7749 61.5474L60.7593 61.6928C60.7505 61.7575 60.7433 61.8224 60.7379 61.8875V61.8885ZM55.8882 62.3535C55.9184 62.1462 55.932 61.9679 55.932 61.8148C55.932 61.3915 55.8056 61.1774 55.5527 61.1774C55.3777 61.1842 55.226 61.3052 55.0986 61.5397C54.9634 61.794 54.8717 62.0691 54.8273 62.3535H55.8882ZM55.7239 63.2564H56.2101C56.144 63.6023 56.0156 63.9084 55.827 64.1748C55.6403 64.4412 55.3942 64.574 55.0918 64.574C54.5317 64.574 54.2477 64.1816 54.2399 63.3998C54.2462 63.1333 54.2679 62.8674 54.3051 62.6034C54.3492 62.3197 54.4222 62.0412 54.5229 61.7722C54.6299 61.4893 54.7757 61.2491 54.9634 61.0456C55.0477 60.95 55.1515 60.8736 55.2679 60.8214C55.3844 60.7693 55.5107 60.7427 55.6383 60.7433C56.1391 60.7433 56.39 61.1289 56.39 61.9011C56.39 62.1646 56.3638 62.4465 56.3122 62.7507H54.7563C54.7339 62.9105 54.7155 63.1227 54.698 63.3862C54.7135 63.8716 54.8458 64.1196 55.0918 64.1322C55.4185 64.1322 55.6296 63.8416 55.7239 63.2564ZM54.2263 60.7957L54.168 61.2355H53.5514L53.036 64.5158H52.5712L53.0944 61.2355H52.7005L52.7569 60.7947H53.1459L53.3171 59.7784H53.7741L53.6224 60.7957H54.2253H54.2263ZM50.0389 64.3182L50.1264 63.7631C50.2937 63.9937 50.496 64.1157 50.7293 64.1322C50.8947 64.1206 51.0496 64.0472 51.1631 63.9268C51.2213 63.8681 51.2673 63.7985 51.2983 63.722C51.3294 63.6455 51.3449 63.5637 51.3439 63.4812C51.347 63.3383 51.3085 63.1977 51.2331 63.0762C51.1333 62.93 51.0207 62.7928 50.8966 62.6664C50.7707 62.5392 50.6568 62.4007 50.5562 62.2527C50.4789 62.1307 50.4362 61.9901 50.4327 61.8458C50.439 61.8095 50.4442 61.773 50.4483 61.7364C50.4504 61.7019 50.4546 61.6676 50.4609 61.6337C50.5222 61.3508 50.6515 61.1299 50.846 60.9759C51.0405 60.8208 51.2564 60.7433 51.4927 60.7433C51.7631 60.7433 51.9731 60.8228 52.1229 60.9817L52.0451 61.561H52.0305C51.9701 61.459 51.8913 61.3691 51.7981 61.2956C51.7086 61.2277 51.5812 61.1919 51.4149 61.1919C51.3511 61.1974 51.289 61.2154 51.2322 61.245C51.1755 61.2746 51.1252 61.3152 51.0843 61.3643C51.0013 61.4533 50.9445 61.5632 50.9199 61.6821C50.9199 61.8177 50.9443 61.9311 50.9919 62.0231C51.0405 62.1161 51.1086 62.2072 51.1961 62.2944C51.2846 62.3845 51.3926 62.493 51.5209 62.6189C51.7368 62.8301 51.8438 63.0762 51.8438 63.3581C51.8438 63.5693 51.7922 63.7708 51.6882 63.9588C51.5875 64.1422 51.4407 64.2964 51.2623 64.4064C51.0814 64.5187 50.883 64.574 50.6691 64.574C50.459 64.574 50.249 64.4906 50.0389 64.3182ZM49.257 62.3525C49.2872 62.1462 49.3018 61.9679 49.3018 61.8148C49.3018 61.3915 49.1754 61.1774 48.9225 61.1774C48.7475 61.1842 48.5938 61.3052 48.4684 61.5397C48.3337 61.7944 48.2417 62.0693 48.1961 62.3535H49.257V62.3525ZM49.0927 63.2564H49.5789C49.5199 63.5865 49.3895 63.8999 49.1967 64.1748C49.0091 64.4412 48.7621 64.574 48.4616 64.574C47.9014 64.574 47.6165 64.1816 47.6097 63.3998C47.6175 63.1043 47.6389 62.8408 47.6729 62.6034C47.7137 62.3322 47.7867 62.0541 47.8917 61.7722C47.9967 61.4893 48.1445 61.2491 48.3332 61.0456C48.4171 60.9501 48.5206 60.8737 48.6367 60.8216C48.7528 60.7694 48.8788 60.7428 49.0061 60.7433C49.5079 60.7433 49.7588 61.1289 49.7588 61.9011C49.7588 62.1646 49.7326 62.4465 49.681 62.7507H48.1251C48.1037 62.9105 48.0843 63.1227 48.0667 63.3862C48.0833 63.8716 48.2146 64.1196 48.4616 64.1322C48.7873 64.1322 48.9984 63.8416 49.0937 63.2564H49.0927ZM46.9786 60.7957H47.4745L46.0693 64.5158H45.5666L45.3166 60.7957H45.7756L45.9176 63.8202H45.9468C45.996 63.6357 46.0511 63.4529 46.1121 63.2719C46.188 63.0471 46.2726 62.8011 46.3688 62.5298C46.574 61.9524 46.7772 61.3744 46.9786 60.7957ZM44.5348 61.8875L44.1361 64.5158H43.6537L44.0787 61.8148C44.0942 61.6792 44.1049 61.5804 44.1049 61.5164C44.1049 61.252 43.9883 61.1192 43.7558 61.1192C43.6693 61.1229 43.5846 61.1461 43.5083 61.1871C43.432 61.228 43.3661 61.2856 43.3153 61.3556C43.2093 61.499 43.1315 61.7257 43.0819 62.0386L42.6852 64.5158H42.2281L42.7999 60.7957H43.2735L43.2249 61.0911C43.4777 60.8644 43.7325 60.7492 43.9892 60.7492C44.1759 60.7492 44.3218 60.8102 44.4239 60.9264C44.5313 61.0608 44.5859 61.2296 44.5776 61.4012C44.5776 61.4544 44.5746 61.5019 44.5708 61.5474L44.5562 61.6928C44.5464 61.7574 44.5392 61.8223 44.5348 61.8875ZM41.9325 59.3541C42.018 59.3541 42.089 59.3812 42.1435 59.4335C42.1715 59.4616 42.1934 59.495 42.2078 59.5319C42.2222 59.5687 42.2288 59.6081 42.2271 59.6476C42.2271 59.7542 42.1882 59.8472 42.1104 59.9286C42.0763 59.9664 42.0344 59.9965 41.9876 60.0169C41.9408 60.0372 41.8902 60.0474 41.8391 60.0468C41.7986 60.0484 41.7583 60.0407 41.7212 60.0244C41.6842 60.0081 41.6513 59.9836 41.6252 59.9528C41.5679 59.8788 41.5395 59.7865 41.5454 59.6932C41.5612 59.6 41.6098 59.5155 41.6825 59.4549C41.7501 59.3911 41.8394 59.3551 41.9325 59.3541ZM41.9471 60.7947L41.3753 64.5158H40.8997L41.4735 60.7957H41.9471V60.7947ZM36.087 60.7947L36.0384 61.1057H36.051C36.158 60.9952 36.2786 60.9051 36.4177 60.8412C36.5577 60.7763 36.6967 60.7443 36.8319 60.7443C36.972 60.7443 37.0955 60.7792 37.2015 60.8528C37.3102 60.932 37.3874 61.047 37.4193 61.1774C37.675 60.8925 37.9502 60.7492 38.2439 60.7492C38.4355 60.7492 38.5862 60.8034 38.6961 60.91C38.805 61.0185 38.8614 61.1725 38.8614 61.3731C38.8614 61.4544 38.8498 61.5668 38.8323 61.7141L38.3995 64.5158H37.9357L38.3451 61.8875C38.3585 61.769 38.3682 61.6501 38.3742 61.531C38.3742 61.3808 38.3451 61.2752 38.2887 61.2142C38.2342 61.1502 38.1379 61.1183 38.0076 61.1183C37.913 61.1223 37.8209 61.1505 37.7404 61.2002C37.6598 61.25 37.5934 61.3195 37.5476 61.4021C37.4465 61.5804 37.3687 61.8265 37.3201 62.1413L36.9613 64.5158H36.4964L36.9175 61.7722C36.9282 61.7044 36.9331 61.6191 36.9331 61.5164C36.9331 61.3721 36.9049 61.2684 36.8475 61.2093C36.7901 61.1493 36.6967 61.1183 36.5674 61.1183C36.2105 61.1493 35.9742 61.499 35.8653 62.1704L35.4977 64.5158H35.0406L35.6144 60.7957H36.087V60.7947ZM34.1304 62.3525C34.1606 62.1462 34.1742 61.9679 34.1742 61.8148C34.1742 61.3915 34.0478 61.1774 33.7949 61.1774C33.6199 61.1842 33.4672 61.3052 33.3408 61.5397C33.2061 61.7944 33.1141 62.0693 33.0685 62.3535H34.1304V62.3525ZM33.9651 63.2564H34.4513C34.3852 63.6023 34.2568 63.9084 34.0692 64.1748C33.8815 64.4412 33.6364 64.574 33.334 64.574C32.7738 64.574 32.4889 64.1816 32.4821 63.3998C32.4899 63.1043 32.5113 62.8408 32.5463 62.6034C32.5871 62.3322 32.6601 62.0541 32.7651 61.7722C32.862 61.5034 33.0114 61.2565 33.2046 61.0456C33.2889 60.9501 33.3927 60.8737 33.5092 60.8215C33.6256 60.7694 33.7519 60.7427 33.8795 60.7433C34.3803 60.7433 34.6322 61.1289 34.6322 61.9011C34.6322 62.1646 34.605 62.4465 34.5544 62.7507H32.9956C32.9761 62.9105 32.9567 63.1227 32.9382 63.3862C32.9557 63.8716 33.086 64.1196 33.333 64.1322C33.6598 64.1322 33.8708 63.8416 33.9651 63.2564ZM30.1667 60.7957H30.6451L30.2805 63.1314C30.2717 63.2204 30.2591 63.309 30.2425 63.3969C30.226 63.5112 30.2134 63.6013 30.2085 63.6691C30.226 63.9772 30.3573 64.1322 30.6014 64.1322C30.6712 64.1363 30.741 64.1247 30.8056 64.0982C30.8703 64.0717 30.9281 64.031 30.9748 63.9791C31.064 63.8748 31.1273 63.751 31.1596 63.6178C31.1955 63.4763 31.2325 63.2816 31.2694 63.0307L31.6195 60.7947H32.1009L31.6789 63.4647C31.5641 64.2039 31.1868 64.574 30.5469 64.574C30.0121 64.574 29.7369 64.3124 29.7223 63.7902C29.7271 63.7592 29.732 63.7108 29.7369 63.6478L29.7505 63.5083L30.1667 60.7957ZM28.5952 62.7642C28.6633 62.2857 28.6973 61.9602 28.6973 61.7858C28.6973 61.3421 28.5787 61.1183 28.3433 61.1183C28.2734 61.119 28.2046 61.1357 28.1422 61.1671C28.0798 61.1985 28.0255 61.2438 27.9835 61.2994C27.8781 61.4297 27.7983 61.5786 27.7482 61.7383C27.6898 61.9107 27.6461 62.089 27.6149 62.2721C27.5858 62.4533 27.5615 62.5918 27.5488 62.6771C27.5004 62.9626 27.4666 63.2503 27.4477 63.5393C27.4535 63.7737 27.4876 63.9365 27.5517 64.0266C27.5813 64.071 27.62 64.1087 27.6652 64.1371C27.7105 64.1655 27.7613 64.1839 27.8143 64.1913C28.213 64.1913 28.4717 63.7166 28.5952 62.7642ZM28.5232 65.9283H28.0642L28.3316 64.2339H28.3151C28.1342 64.4393 27.9261 64.5517 27.6859 64.574C27.4263 64.574 27.2483 64.4877 27.1452 64.3153C27.0431 64.1438 26.9867 63.9084 26.977 63.6119L27.0198 63.0752C27.0762 62.6122 27.1462 62.2227 27.224 61.9011C27.3028 61.5814 27.4234 61.3111 27.5877 61.0902C27.6621 60.9851 27.7603 60.8989 27.8743 60.8386C27.9884 60.7784 28.1151 60.7457 28.2441 60.7433C28.5184 60.7433 28.707 60.8441 28.812 61.0466H28.8169L28.8607 60.7947H29.3274L28.5232 65.9293V65.9283ZM22.6184 63.0471C22.6204 62.9813 22.6515 62.7894 22.7108 62.4668C22.7458 62.2266 22.8081 61.9795 22.8995 61.7238C22.989 61.468 23.1338 61.2413 23.3303 61.0417C23.5277 60.8431 23.7805 60.7433 24.0888 60.7433C24.5906 60.7598 24.8425 61.1425 24.8425 61.8875C24.8425 62.305 24.8036 62.6683 24.7258 62.9725C24.6825 63.1684 24.6286 63.3618 24.5643 63.5519C24.5053 63.7281 24.4247 63.8963 24.3241 64.0527C24.2269 64.2078 24.1024 64.3318 23.9527 64.4257C23.7957 64.5231 23.6144 64.5744 23.4295 64.574C22.8859 64.574 22.6077 64.1816 22.5902 63.3998C22.6097 63.2264 22.6194 63.1072 22.6194 63.0471H22.6184ZM24.3261 62.5085C24.3416 62.3235 24.3513 62.138 24.3553 61.9524C24.3553 61.4351 24.2191 61.1774 23.9468 61.1774C23.8352 61.1939 23.7315 61.2447 23.6502 61.3227C23.551 61.4099 23.4616 61.5504 23.3779 61.7461C23.281 61.9912 23.2144 62.2473 23.1796 62.5085C23.1329 62.8602 23.1047 63.1576 23.092 63.3998C23.1027 63.6323 23.1387 63.8106 23.2 63.9384C23.2622 64.0673 23.3682 64.1322 23.516 64.1322C23.763 64.1196 23.9497 63.9346 24.0732 63.5732C24.1997 63.2128 24.2804 62.8582 24.3261 62.5085ZM21.5225 62.3951C21.5624 62.1064 21.5808 61.9127 21.5808 61.8148C21.5808 61.3605 21.4544 61.1338 21.2016 61.1338H21.114C20.9098 61.1919 20.7572 61.3605 20.6599 61.6405C20.5627 61.9214 20.4761 62.3002 20.4032 62.7778C20.3922 62.8791 20.3792 62.9802 20.3643 63.081C20.3434 63.228 20.3278 63.3757 20.3176 63.5238C20.3273 63.7369 20.3623 63.8997 20.4285 64.0159C20.4926 64.1322 20.6064 64.1903 20.7688 64.1903C20.8387 64.1835 20.906 64.1609 20.9657 64.1241C21.0254 64.0873 21.0758 64.0374 21.1131 63.9782C21.2016 63.8503 21.2735 63.6972 21.3212 63.5228C21.3698 63.3465 21.4097 63.1576 21.4418 62.9512C21.4719 62.7478 21.5001 62.5637 21.5225 62.3951ZM22.5338 58.7157L21.6217 64.5158H21.1578L21.2006 64.2329H21.185C20.9876 64.4596 20.7679 64.574 20.5286 64.574C20.2865 64.574 20.1144 64.4868 20.0142 64.3134C19.9111 64.1399 19.8557 63.8968 19.846 63.5819C19.8557 63.3252 19.9111 62.8853 20.0132 62.2644C20.0525 62.011 20.1187 61.7626 20.2106 61.5232C20.2886 61.311 20.414 61.1192 20.5773 60.9623C20.7348 60.8163 20.9436 60.7376 21.1588 60.7433C21.4087 60.7433 21.5828 60.8441 21.681 61.0466H21.6878L22.0534 58.7157H22.5329H22.5338ZM19.3004 61.8875L18.9017 64.5158H18.4194L18.8443 61.8148C18.8618 61.6792 18.8716 61.5804 18.8716 61.5164C18.8716 61.252 18.7549 61.1192 18.5215 61.1192C18.4349 61.1229 18.3503 61.1461 18.274 61.1871C18.1977 61.228 18.1317 61.2856 18.0809 61.3556C17.9759 61.499 17.8981 61.7257 17.8476 62.0386L17.4508 64.5158H16.9937L17.5655 60.7957H18.0391L17.9905 61.0911C18.2433 60.8644 18.4991 60.7492 18.7558 60.7492C18.9425 60.7492 19.0874 60.8102 19.1905 60.9264C19.2917 61.0446 19.3432 61.2026 19.3432 61.4012C19.3432 61.4544 19.3403 61.5019 19.3374 61.5474L19.3218 61.6928C19.313 61.7575 19.3058 61.8224 19.3004 61.8875ZM16.0825 62.3525C16.1095 62.1745 16.1241 61.9949 16.1263 61.8148C16.1263 61.3915 15.9999 61.1774 15.747 61.1774C15.572 61.1842 15.4193 61.3052 15.2929 61.5397C15.1578 61.7942 15.0658 62.0691 15.0206 62.3535H16.0825V62.3525ZM15.9172 63.2564H16.4035C16.3444 63.5865 16.214 63.8999 16.0213 64.1748C15.8346 64.4412 15.5876 64.574 15.2851 64.574C14.725 64.574 14.441 64.1816 14.4342 63.3998C14.442 63.1043 14.4644 62.8408 14.4984 62.6034C14.5392 62.3322 14.6122 62.0541 14.7172 61.7722C14.8222 61.4893 14.97 61.2491 15.1577 61.0456C15.2417 60.95 15.3454 60.8735 15.4617 60.8214C15.5779 60.7692 15.7041 60.7426 15.8316 60.7433C16.3334 60.7433 16.5834 61.1289 16.5834 61.9011C16.5834 62.1646 16.5571 62.4465 16.5056 62.7507H14.9496C14.9282 62.9105 14.9107 63.1227 14.8913 63.3862C14.9078 63.8716 15.0401 64.1196 15.2851 64.1322C15.6138 64.1322 15.8229 63.8416 15.9172 63.2564ZM13.029 61.1183C12.9632 61.1176 12.898 61.1308 12.8376 61.157C12.7773 61.1832 12.7232 61.2219 12.6789 61.2704C12.5787 61.38 12.5013 61.5085 12.4514 61.6482C12.3913 61.8035 12.3444 61.9636 12.3113 62.1268L12.219 62.5753C12.171 62.8527 12.1376 63.1325 12.1188 63.4133C12.1363 63.8948 12.287 64.1322 12.571 64.1322C12.6418 64.131 12.7113 64.1132 12.7739 64.0804C12.8366 64.0476 12.8906 64.0006 12.9318 63.9433C13.0232 63.8222 13.0951 63.6652 13.1457 63.4724C13.1963 63.2787 13.24 63.0471 13.2819 62.7778C13.3558 62.2934 13.3947 61.966 13.3947 61.7993C13.3947 61.3702 13.2731 61.1454 13.029 61.1183ZM11.4886 64.8268H11.9554C11.9476 64.8849 11.9321 64.9799 11.9117 65.1097C11.9243 65.4042 12.0624 65.5515 12.3279 65.5515C12.4971 65.5447 12.6264 65.4972 12.713 65.4091C12.8005 65.3199 12.8618 65.1552 12.8997 64.913L12.9998 64.262C12.923 64.3436 12.83 64.4082 12.7267 64.4519C12.6234 64.4956 12.5121 64.5174 12.3998 64.5158C12.1246 64.5158 11.9331 64.4199 11.8241 64.2281C11.7143 64.0372 11.6559 63.7825 11.6472 63.4657C11.653 63.3436 11.6666 63.1915 11.687 63.0084C11.7084 62.8243 11.7211 62.7013 11.7259 62.6335C11.8057 62.1471 11.9331 61.7141 12.113 61.3304C12.2919 60.9478 12.5642 60.753 12.9298 60.7433C13.2079 60.7433 13.3995 60.8441 13.5036 61.0466H13.5162L13.559 60.7947H14.0268L13.3947 64.8249C13.3285 65.2395 13.208 65.5379 13.031 65.7229C12.854 65.908 12.5934 66 12.2491 66C11.7181 66 11.4449 65.7481 11.4322 65.2405C11.4527 65.0564 11.4721 64.9189 11.4886 64.8268ZM10.6358 62.3525C10.6659 62.1462 10.6796 61.9679 10.6796 61.8148C10.6796 61.3915 10.5531 61.1774 10.3003 61.1774C10.1253 61.1842 9.97355 61.3052 9.84616 61.5397C9.71082 61.7942 9.61819 62.0691 9.57192 62.3535H10.6358V62.3525ZM10.4705 63.2564H10.9567C10.8977 63.5865 10.7673 63.8999 10.5745 64.1748C10.3868 64.4412 10.1408 64.574 9.83935 64.574C9.27921 64.574 8.99525 64.1816 8.98747 63.3998C8.99525 63.1043 9.01665 62.8408 9.05068 62.6034C9.09504 62.3196 9.16869 62.041 9.27046 61.7722C9.37451 61.4893 9.5233 61.2491 9.71099 61.0456C9.79478 60.95 9.89827 60.8736 10.0144 60.8214C10.1305 60.7693 10.2565 60.7426 10.3839 60.7433C10.8857 60.7433 11.1376 61.1289 11.1376 61.9011C11.1376 62.1646 11.1113 62.4465 11.0598 62.7507H9.50093C9.48148 62.9105 9.46204 63.1227 9.44356 63.3862C9.46009 63.8716 9.59137 64.1196 9.83838 64.1322C10.1651 64.1322 10.3761 63.8416 10.4705 63.2564ZM8.97289 60.7957L8.91551 61.2355H8.29897L7.78357 64.5158H7.31873L7.84094 61.2355H7.4471L7.5035 60.7947H7.89248L8.06364 59.7784H8.52069L8.37093 60.7957H8.97192H8.97289ZM4.48304 63.0462C4.48596 62.9803 4.51708 62.7885 4.57737 62.4659C4.61238 62.2256 4.67461 61.9786 4.76603 61.7228C4.85549 61.467 4.99942 61.2403 5.19585 61.0408C5.39424 60.8422 5.6461 60.7424 5.95534 60.7424C6.45713 60.7588 6.70706 61.1415 6.70706 61.8865C6.70706 62.3041 6.6701 62.6674 6.59133 62.9716C6.54856 63.1676 6.49466 63.361 6.4299 63.5509C6.37123 63.7271 6.29087 63.8953 6.19068 64.0518C6.0962 64.2021 5.9693 64.3295 5.8192 64.4248C5.66182 64.522 5.48023 64.5733 5.29504 64.573C4.75144 64.573 4.47234 64.1806 4.45581 63.3988C4.47623 63.2254 4.48304 63.1062 4.48304 63.0462ZM6.19262 62.5075C6.21013 62.2382 6.21985 62.0532 6.21985 61.9514C6.21985 61.4341 6.08468 61.1764 5.81142 61.1764C5.70036 61.1929 5.59731 61.2438 5.51677 61.3217C5.41952 61.4089 5.32616 61.5494 5.24253 61.7451C5.1459 61.9903 5.07961 62.2463 5.04512 62.5075C4.99844 62.8592 4.96927 63.1566 4.9576 63.3988C4.9683 63.6313 5.00428 63.8096 5.06749 63.9375C5.09343 63.9981 5.13752 64.0492 5.19375 64.0839C5.24997 64.1186 5.31558 64.1351 5.38159 64.1312C5.6286 64.1186 5.81531 63.9336 5.93881 63.5722C6.06523 63.2118 6.14886 62.8573 6.19262 62.5075ZM3.24024 60.7937H3.71188L3.63214 61.2917H3.6477C3.72744 61.1425 3.82955 61.0117 3.95597 60.9042C4.06103 60.8053 4.19857 60.7478 4.34301 60.7424L4.26326 61.2917H4.12031C4.04482 61.2907 3.97011 61.3071 3.90199 61.3395C3.83386 61.372 3.77414 61.4196 3.72744 61.4787C3.62144 61.6027 3.54267 61.8371 3.49016 62.183L3.12451 64.5149H2.66746L3.24121 60.7947L3.24024 60.7937ZM1.26809 59.512L0.974405 61.4312H1.25447C1.41396 61.4312 1.54913 61.407 1.66582 61.3605C1.78252 61.314 1.88171 61.2132 1.96826 61.0514C2.05578 60.8925 2.11607 60.6523 2.15108 60.3297V60.1049C2.15108 59.886 2.09954 59.7319 1.99743 59.6438C1.89532 59.5566 1.69986 59.512 1.41396 59.512H1.26809ZM0.851875 59.0547H1.56177C1.99257 59.0547 2.28431 59.1381 2.44671 59.3018C2.60717 59.4665 2.68593 59.7 2.68593 60.0042C2.68593 60.1049 2.67718 60.2386 2.65676 60.4014C2.60328 60.8586 2.48561 61.1967 2.30279 61.4167C2.11802 61.6366 1.9245 61.7722 1.72223 61.8236C1.50583 61.8761 1.28368 61.9015 1.06095 61.8991H0.908278L0.500817 64.5149H0L0.851875 59.0547ZM100 58.7147L99.0888 64.5158H98.6327L99.542 58.7147H100ZM98.3381 59.3522C98.377 59.3508 98.4158 59.3572 98.4522 59.371C98.4886 59.3848 98.5219 59.4057 98.5501 59.4326C98.5778 59.4609 98.5994 59.4946 98.6134 59.5316C98.6275 59.5686 98.6337 59.6081 98.6318 59.6476C98.6323 59.7527 98.591 59.8537 98.517 59.9286C98.4823 59.966 98.4402 59.9958 98.3933 60.0161C98.3464 60.0365 98.2958 60.0469 98.2447 60.0468C98.2045 60.0486 98.1644 60.041 98.1276 60.0247C98.0908 60.0084 98.0583 59.9838 98.0327 59.9528C97.9753 59.8788 97.9469 59.7865 97.953 59.6932C97.9674 59.6003 98.0155 59.5158 98.0881 59.4558C98.1552 59.3909 98.2446 59.3539 98.3381 59.3522ZM98.3527 60.7937L97.7808 64.5158H97.3063L97.8791 60.7937H98.3527Z" fill="white"/>
<mask id="mask0" mask-type="alpha" maskUnits="userSpaceOnUse" x="0" y="24" width="34" height="20">
<path d="M0 24.8225V43.3972H33.3301V24.8225H0Z" fill="white"/>
</mask>
<g mask="url(#mask0)">
<path fill-rule="evenodd" clip-rule="evenodd" d="M16.665 41.635L33.3301 24.8225V43.3972H0V24.8225L16.665 41.635Z" fill="white"/>
</g>
<mask id="mask1" mask-type="alpha" maskUnits="userSpaceOnUse" x="0" y="0" width="34" height="34">
<path d="M0 0V33.6123H33.3301V0H0Z" fill="white"/>
</mask>
<g mask="url(#mask1)">
<path fill-rule="evenodd" clip-rule="evenodd" d="M16.665 8.05359L7.98584 16.8057L16.665 25.5587L25.3452 16.8057L16.665 8.05359ZM16.665 0L33.3301 16.8066L16.665 33.6114L0 16.8057L16.665 0Z" fill="white"/>
</g>
<path fill-rule="evenodd" clip-rule="evenodd" d="M65.501 52.8315C65.8122 51.6331 66.0689 50.5645 66.2722 49.6325C66.4735 48.6977 66.6048 47.9875 66.6612 47.5002C66.7516 47.5167 66.8216 47.5244 66.878 47.5283C66.9701 47.5382 67.063 47.5382 67.1552 47.5283C67.2086 47.5244 67.2816 47.5167 67.371 47.4993C67.4197 47.8335 67.5704 48.4903 67.8232 49.4708L67.8981 49.7595L68.4067 51.7455L69.7419 49.5851C69.7779 49.524 69.8372 49.4272 69.917 49.2983C70.3662 48.5669 70.7173 47.9672 70.9701 47.5002C71.0756 47.5186 71.1821 47.5306 71.2891 47.5361C71.413 47.5331 71.5365 47.5211 71.6586 47.5002C71.4343 48.4669 71.2352 49.4393 71.0615 50.4163C70.9176 51.217 70.8027 52.0226 70.7173 52.8315C70.6332 52.8201 70.5489 52.8104 70.4644 52.8024C70.3547 52.7937 70.2445 52.7937 70.1348 52.8024C70.0484 52.8102 69.9621 52.8199 69.8761 52.8315C69.9753 52.4537 70.0667 52.0894 70.1494 51.7406C70.232 51.3909 70.303 51.0673 70.3633 50.7622L70.8048 48.4826L69.1273 51.2863L69.0797 51.3609C68.7853 51.8403 68.5095 52.3309 68.2531 52.8315H67.9983C67.6342 51.3833 67.2568 49.9385 66.8663 48.4971L66.5357 50.1925C66.4331 50.6869 66.3423 51.1838 66.2634 51.6825C66.2012 52.0739 66.1496 52.4566 66.1117 52.8315C66.0252 52.817 65.961 52.8082 65.9211 52.8024C65.8889 52.7981 65.8564 52.7955 65.8239 52.7947C65.7859 52.7947 65.7432 52.7976 65.6906 52.8034C65.6273 52.8117 65.5641 52.8211 65.501 52.8315ZM60.8954 51.8114H61.018C61.0569 52.0584 61.1512 52.2551 61.3019 52.4014C61.4564 52.5449 61.6617 52.6216 61.8728 52.6145C62.0964 52.6145 62.2763 52.5486 62.4134 52.413C62.4825 52.3439 62.5366 52.2613 62.5722 52.1705C62.6078 52.0796 62.6243 51.9824 62.6206 51.885C62.6206 51.6254 62.393 51.3909 61.9408 51.1875L61.8689 51.1516C61.5869 51.0257 61.3865 50.8862 61.2698 50.7379C61.1489 50.5745 61.0872 50.375 61.0948 50.1722C61.0948 49.835 61.2115 49.5541 61.441 49.3322C61.6744 49.1084 61.97 48.9989 62.3308 48.9989C62.5282 48.9989 62.71 49.0212 62.8763 49.0668C63.0397 49.1152 63.1982 49.1859 63.347 49.2799C63.3008 49.375 63.2618 49.4735 63.2303 49.5744C63.1978 49.6855 63.1718 49.7984 63.1525 49.9125H63.0494C62.9843 49.7062 62.8919 49.5541 62.7713 49.4543C62.6408 49.349 62.4762 49.295 62.3084 49.3022C62.2222 49.2992 62.1364 49.314 62.0562 49.3457C61.976 49.3774 61.9033 49.4252 61.8426 49.4863C61.7827 49.5459 61.7356 49.6169 61.704 49.6952C61.6724 49.7734 61.657 49.8573 61.6588 49.9416C61.6588 50.1964 61.8757 50.4163 62.3123 50.6004C62.3386 50.6149 62.3609 50.6256 62.3775 50.6314C62.6887 50.767 62.9036 50.9084 63.0212 51.0538C63.1389 51.1991 63.1982 51.3909 63.1982 51.6244C63.1982 52.009 63.0689 52.3248 62.8112 52.569C62.5525 52.8131 62.2151 52.9342 61.795 52.9342C61.5791 52.9342 61.3719 52.9003 61.1775 52.8296C60.9881 52.763 60.8134 52.6607 60.663 52.5283C60.7206 52.2832 60.7986 52.0434 60.8964 51.8114H60.8954ZM58.0053 50.9269C57.996 51.0099 57.9895 51.0933 57.9858 51.1768C57.9806 51.2571 57.9777 51.3376 57.9771 51.418C57.9771 51.7842 58.0617 52.0652 58.2338 52.2609C58.405 52.4585 58.6491 52.5583 58.968 52.5583C59.1684 52.5583 59.359 52.5089 59.5437 52.4149C59.7285 52.3209 59.923 52.1669 60.1243 51.9596L60.2147 52.0361C60.1394 52.1993 60.0789 52.3689 60.0338 52.5428C59.8486 52.6688 59.6479 52.7707 59.4367 52.846C59.2442 52.91 59.0478 52.9429 58.8435 52.9429C58.3632 52.9429 57.98 52.7918 57.6931 52.4915C57.4082 52.1902 57.2652 51.7842 57.2652 51.2776C57.2652 50.6304 57.45 50.0859 57.8176 49.648C58.1871 49.2092 58.652 48.9893 59.2141 48.9893C59.6254 48.9893 59.9483 49.1249 60.1826 49.3942C60.416 49.6626 60.5327 50.0375 60.5327 50.5151C60.5327 50.5432 60.5308 50.5907 60.5249 50.6624C60.521 50.735 60.5152 50.8251 60.5074 50.9269H60.3372C59.9483 50.9183 59.5593 50.9132 59.1703 50.9113L58.7006 50.9162C58.4341 50.9201 58.2046 50.9249 58.0053 50.9259V50.9269ZM58.0743 50.5975C58.1444 50.6013 58.2406 50.6042 58.3632 50.6071C58.6549 50.612 58.8435 50.6139 58.9379 50.6139C59.0468 50.6139 59.2588 50.612 59.5709 50.6071C59.6945 50.6042 59.7898 50.6013 59.8559 50.5975C59.8627 50.5151 59.8705 50.4425 59.8734 50.3843C59.8773 50.3262 59.8782 50.2758 59.8782 50.2322C59.8782 49.9406 59.816 49.711 59.6945 49.5444C59.6368 49.4641 59.5601 49.3994 59.4711 49.356C59.3822 49.3125 59.2839 49.2917 59.1849 49.2954C58.9262 49.2954 58.6987 49.4117 58.4993 49.6442C58.2999 49.8757 58.1589 50.1964 58.0743 50.5984V50.5975ZM54.7777 52.8315C54.9557 52.1127 55.0986 51.4306 55.2085 50.7873C55.3184 50.1421 55.3884 49.5763 55.4205 49.0939C55.4866 49.1036 55.5498 49.1094 55.6014 49.1152C55.7049 49.1246 55.809 49.1246 55.9126 49.1152C55.966 49.1094 56.0273 49.1036 56.0886 49.0939C56.0518 49.2107 56.0213 49.3294 55.9972 49.4494C55.9708 49.5783 55.9497 49.7083 55.934 49.8389C56.0964 49.5773 56.2724 49.3768 56.46 49.2315C56.6458 49.0881 56.8267 49.0164 57.0007 49.0164C57.0319 49.0164 57.062 49.0164 57.096 49.0232C57.1281 49.029 57.1641 49.0377 57.1991 49.0484C57.138 49.2597 57.1027 49.4777 57.0941 49.6975C57.0253 49.6828 56.9563 49.6695 56.887 49.6577C56.8387 49.6502 56.7899 49.646 56.7411 49.6451C56.4017 49.6451 56.143 49.866 55.9602 50.3088C55.7793 50.7525 55.6247 51.5934 55.4963 52.8315C55.3725 52.8135 55.2479 52.8012 55.1229 52.7947C55.0957 52.7947 55.0587 52.7976 55.014 52.8024L54.7777 52.8315ZM50.6739 51.2708C50.6739 50.6411 50.8665 50.1082 51.2535 49.6664C51.6405 49.2256 52.119 49.0067 52.6869 49.0067C53.2247 49.0067 53.6458 49.1491 53.9462 49.4397C54.2496 49.7304 54.4014 50.1334 54.4014 50.6478C54.4014 51.2814 54.1991 51.8191 53.7945 52.2618C53.389 52.7056 52.8921 52.9274 52.3047 52.9274C51.8068 52.9274 51.411 52.7763 51.1154 52.4789C50.8208 52.1785 50.6729 51.7745 50.6729 51.2708H50.6739ZM52.7705 49.3041C52.3718 49.3041 52.0363 49.5163 51.7611 49.9435C51.4859 50.3717 51.3488 50.8862 51.3488 51.4907C51.3488 51.854 51.4276 52.134 51.5861 52.3316C51.7446 52.5292 51.9692 52.629 52.26 52.629C52.6568 52.629 53.001 52.413 53.2889 51.9799C53.5806 51.5498 53.7245 51.0276 53.7245 50.4124C53.7245 50.0714 53.6409 49.8011 53.4688 49.6035C53.3005 49.4049 53.073 49.3031 52.7851 49.3031H52.7705V49.3041ZM48.8224 52.8305C49.0849 51.7339 49.3047 50.6914 49.4788 49.7004C49.6558 48.7112 49.7841 47.8035 49.8677 46.9771C49.9826 46.9946 50.0981 47.0075 50.2139 47.0158C50.2577 47.0158 50.3083 47.0129 50.3656 47.0081C50.424 47.0023 50.5037 46.9935 50.6088 46.9771C50.3805 47.9811 50.1752 48.9902 49.9932 50.0036C49.8245 50.9423 49.6805 51.8853 49.5614 52.8315C49.4888 52.8198 49.4158 52.8102 49.3426 52.8024C49.2932 52.7978 49.2435 52.7952 49.1938 52.7947C49.1598 52.7947 49.116 52.7976 49.0635 52.8024C48.9827 52.8111 48.902 52.8208 48.8214 52.8315L48.8224 52.8305ZM47.4813 50.8503L46.8735 50.9985C46.5235 51.0838 46.2648 51.1991 46.1024 51.3473C46.0232 51.4196 45.9606 51.5081 45.919 51.6068C45.8774 51.7055 45.8577 51.8119 45.8612 51.9189C45.8612 52.0904 45.9108 52.2318 46.009 52.3374C46.0572 52.3907 46.1166 52.4327 46.183 52.4604C46.2495 52.488 46.3212 52.5006 46.3931 52.4973C46.6013 52.4973 46.8016 52.4188 46.9902 52.2609C47.1634 52.1252 47.2824 51.9325 47.3257 51.7174L47.4813 50.8503ZM47.2479 52.319C47.2528 52.5079 47.3024 52.6484 47.3909 52.7511C47.4784 52.8509 47.6048 52.9013 47.7643 52.9013C47.8684 52.9013 47.9714 52.8848 48.0755 52.8518C48.1805 52.8179 48.2914 52.7685 48.4081 52.6968L48.3128 52.4973C48.2356 52.525 48.1552 52.5429 48.0736 52.5505C48.0437 52.5519 48.0138 52.5471 47.9859 52.5364C47.9579 52.5257 47.9325 52.5094 47.9112 52.4885C47.8723 52.4479 47.8538 52.3917 47.8538 52.319C47.8538 52.2764 47.8567 52.2279 47.8616 52.1737C47.8684 52.1243 47.8781 52.0691 47.8907 52.009L48.1387 50.6866C48.1679 50.5374 48.1912 50.3959 48.2068 50.2652C48.2206 50.1559 48.2281 50.0459 48.2291 49.9358C48.2291 49.6296 48.1319 49.3932 47.9374 49.2286C47.741 49.0639 47.4619 48.9825 47.0982 48.9825C46.8881 48.9825 46.6897 49.0106 46.505 49.0648C46.3104 49.1231 46.125 49.2085 45.9546 49.3186L45.9585 49.3884C45.9604 49.4175 45.9633 49.4368 45.9633 49.4514C45.9606 49.5965 45.941 49.7409 45.905 49.8815L46.0314 49.9048C46.1286 49.71 46.2619 49.5579 46.433 49.4543C46.6042 49.3467 46.8026 49.2954 47.0223 49.2954C47.2188 49.2954 47.3724 49.3506 47.4842 49.463C47.5951 49.5744 47.6525 49.7294 47.6525 49.928C47.6525 50.1315 47.6272 50.2845 47.5815 50.3892C47.5348 50.4938 47.4658 50.5558 47.3685 50.5761L46.7481 50.7021C46.1841 50.8174 45.7892 50.9714 45.5666 51.17C45.3429 51.3667 45.232 51.6418 45.232 51.9993C45.232 52.2783 45.3147 52.5002 45.48 52.6629C45.6453 52.8276 45.8709 52.908 46.1578 52.908C46.362 52.908 46.5536 52.8615 46.7286 52.7676C46.9056 52.6707 47.0768 52.5215 47.247 52.319H47.2479ZM42.9244 52.8315C42.8855 52.3161 42.7863 51.6079 42.621 50.706C42.4224 49.6338 42.2009 48.5659 41.9568 47.5031C42.0957 47.519 42.2352 47.53 42.3749 47.5361C42.5094 47.5346 42.6436 47.5236 42.7766 47.5031C42.8155 47.8742 42.8612 48.2491 42.9127 48.6318C42.9642 49.0135 43.0304 49.4494 43.1101 49.9426L43.4271 51.9092L44.5075 49.7779C44.7876 49.245 44.9977 48.8091 45.1455 48.4777C45.2952 48.1454 45.4255 47.8209 45.5393 47.5031C45.6268 47.5177 45.6959 47.5244 45.7474 47.5303C45.798 47.5341 45.8418 47.5361 45.8719 47.5361C45.905 47.5361 45.9497 47.5341 46.0003 47.5303C46.0538 47.5244 46.1296 47.5177 46.2259 47.5031C45.602 48.6001 44.9945 49.7063 44.4035 50.8213C43.927 51.728 43.5993 52.3994 43.4213 52.8315L43.2472 52.8024C43.1946 52.7924 43.1406 52.7918 43.0878 52.8005C43.0329 52.8088 42.9784 52.8191 42.9244 52.8315ZM37.0702 50.9269C37.2695 50.9249 37.501 50.9201 37.7655 50.9162L38.2352 50.9113C38.4637 50.9113 38.8546 50.9162 39.4031 50.9269H39.5723C39.5831 50.7898 39.5916 50.6525 39.5976 50.5151C39.5976 50.0375 39.4809 49.6626 39.2475 49.3942C39.0141 49.1259 38.6913 48.9902 38.2789 48.9902C37.7169 48.9902 37.252 49.2092 36.8825 49.648C36.5139 50.0869 36.3311 50.6304 36.3311 51.2776C36.3311 51.7842 36.4721 52.1902 36.757 52.4915C37.0449 52.7918 37.429 52.9429 37.9094 52.9429C38.1105 52.9429 38.3102 52.9102 38.5007 52.846C38.6932 52.7782 38.8926 52.6813 39.0997 52.5428C39.123 52.4508 39.1503 52.3636 39.1814 52.2783C39.2106 52.1911 39.2446 52.1117 39.2806 52.0361L39.1892 51.9606C39.0212 52.1415 38.8256 52.2949 38.6096 52.4149C38.4319 52.5079 38.2345 52.557 38.0339 52.5583C37.7159 52.5583 37.4708 52.4585 37.2987 52.2618C37.1275 52.0652 37.0429 51.7842 37.0429 51.418C37.0429 51.3405 37.0449 51.2591 37.0497 51.1758C37.0546 51.0945 37.0624 51.0111 37.0702 50.9269ZM37.1402 50.5975C37.2092 50.6013 37.3065 50.6042 37.429 50.6071C37.7207 50.612 37.9094 50.6139 38.0047 50.6139C38.1127 50.6139 38.3237 50.612 38.6368 50.6071C38.7613 50.6042 38.8546 50.6013 38.9217 50.5975L38.9412 50.3843L38.9441 50.2322C38.9441 49.9406 38.8828 49.711 38.7613 49.5444C38.7033 49.4643 38.6264 49.3996 38.5373 49.3562C38.4483 49.3128 38.3498 49.2919 38.2507 49.2954C37.9921 49.2954 37.7645 49.4117 37.5642 49.6442C37.3658 49.8757 37.2238 50.1964 37.1402 50.5984V50.5975ZM34.215 49.4446C33.8397 49.4446 33.5256 49.6384 33.2766 50.0259C33.0267 50.4173 32.9032 50.9026 32.9032 51.4829C32.9032 51.821 32.9722 52.0797 33.1084 52.258C33.2465 52.4372 33.4429 52.5273 33.7016 52.5273C34.0944 52.5273 34.4163 52.3316 34.6701 51.9451C34.923 51.5575 35.0504 51.0683 35.0504 50.4773C35.0504 50.1431 34.9784 49.8854 34.8364 49.71C34.6906 49.5328 34.4844 49.4446 34.215 49.4446ZM34.781 52.2861C34.6102 52.4837 34.4037 52.6477 34.1722 52.7695C33.9586 52.871 33.7243 52.922 33.4876 52.9187C33.1055 52.9187 32.7972 52.7763 32.5648 52.4895C32.3323 52.2057 32.2147 51.823 32.2147 51.3492C32.2147 50.6808 32.3994 50.1218 32.769 49.6723C33.1385 49.2237 33.5965 48.9989 34.146 48.9989C34.4027 48.9989 34.6244 49.0697 34.8141 49.214C35.0056 49.3574 35.1428 49.557 35.2264 49.8098L35.3975 48.9447C35.4715 48.5591 35.5366 48.2065 35.592 47.8868C35.6484 47.5671 35.6951 47.2658 35.7379 46.9761C35.8264 46.9955 35.8964 47.0081 35.948 47.0149C35.9995 47.0207 36.0413 47.0245 36.0744 47.0245C36.2054 47.019 36.3358 47.0031 36.4643 46.9771C35.9543 48.9021 35.5681 50.8575 35.3081 52.8315C35.2439 52.8247 35.1865 52.8179 35.133 52.8141C35.0359 52.8067 34.9384 52.8067 34.8413 52.8141C34.781 52.8179 34.7178 52.8238 34.6468 52.8315L34.781 52.2861ZM26.2175 51.2698C26.2175 50.6401 26.412 50.1072 26.7971 49.6655C27.1861 49.2247 27.6626 49.0057 28.2325 49.0057C28.7693 49.0057 29.1894 49.1481 29.4918 49.4388C29.7933 49.7294 29.945 50.1324 29.945 50.6469C29.945 51.2805 29.7427 51.8181 29.3381 52.2609C28.9326 52.7046 28.4367 52.9264 27.8483 52.9264C27.3524 52.9264 26.9546 52.7753 26.66 52.4779C26.3653 52.1776 26.2175 51.7736 26.2175 51.2698ZM28.3151 49.3031C27.9164 49.3031 27.5809 49.5153 27.3057 49.9426C27.0305 50.3708 26.8934 50.8852 26.8934 51.4897C26.8934 51.853 26.9721 52.133 27.1307 52.3306C27.2882 52.5283 27.5138 52.6281 27.8036 52.6281C28.2023 52.6281 28.5436 52.412 28.8344 51.979C29.1232 51.5488 29.2681 51.0266 29.2681 50.4115C29.2681 50.0704 29.1845 49.8001 29.0133 49.6025C28.8441 49.4039 28.6166 49.3022 28.3287 49.3022H28.3151V49.3031ZM25.8033 47.6107C25.7575 47.8596 25.6739 48.0505 25.5543 48.1823C25.4993 48.2462 25.4307 48.2973 25.3535 48.3318C25.2764 48.3663 25.1925 48.3834 25.1079 48.3818C25.0124 48.3796 24.9177 48.3633 24.8269 48.3334L24.3601 48.2045C24.3215 48.1947 24.2826 48.186 24.2434 48.1784C24.2116 48.1728 24.1794 48.1696 24.1472 48.1687C24.1132 48.1673 24.0793 48.1729 24.0477 48.1853C24.016 48.1976 23.9873 48.2164 23.9634 48.2404C23.9087 48.3053 23.8725 48.3835 23.8583 48.4671H23.6317C23.6668 48.2123 23.7387 48.0195 23.8476 47.8897C23.9107 47.8121 23.9943 47.7536 24.089 47.7207C24.1836 47.6878 24.2856 47.6819 24.3835 47.7037C24.4233 47.7095 24.4749 47.7201 24.5391 47.7356L25.0292 47.8693C25.0966 47.8881 25.1656 47.9007 25.2353 47.9071C25.3202 47.9123 25.4043 47.8884 25.4736 47.8393C25.537 47.7773 25.5801 47.6976 25.5971 47.6107H25.8033ZM24.8619 50.8493L24.2541 50.9976C23.904 51.0828 23.6454 51.1981 23.4839 51.3463C23.4047 51.4187 23.3422 51.5072 23.3006 51.6058C23.2589 51.7045 23.2392 51.811 23.2428 51.9179C23.2428 52.0894 23.2914 52.2308 23.3886 52.3364C23.4372 52.3896 23.4968 52.4314 23.5633 52.459C23.6299 52.4867 23.7017 52.4994 23.7737 52.4963C23.9946 52.4922 24.2065 52.4082 24.3698 52.2599C24.5566 52.102 24.6713 51.9208 24.7063 51.7164L24.8619 50.8493ZM24.6266 52.318C24.4574 52.5205 24.2862 52.6697 24.1112 52.7666C23.9353 52.8602 23.7387 52.9084 23.5394 52.9071C23.2525 52.9071 23.0249 52.8267 22.8606 52.662C22.6953 52.4992 22.6116 52.2773 22.6116 51.9983C22.6116 51.6399 22.7235 51.3657 22.9471 51.169C23.1708 50.9704 23.5637 50.8164 24.1277 50.7011L24.7501 50.5752C24.8473 50.5548 24.9173 50.4928 24.9621 50.3882C25.0068 50.2836 25.0321 50.1305 25.0321 49.928C25.0321 49.7285 24.9747 49.5734 24.8648 49.462C24.754 49.3497 24.5984 49.2944 24.4019 49.2944C24.1954 49.2887 23.9916 49.3433 23.8159 49.4516C23.6401 49.5599 23.5 49.7171 23.4129 49.9038L23.2865 49.8806C23.322 49.7398 23.3409 49.5955 23.3429 49.4504L23.339 49.3884C23.3373 49.3652 23.3364 49.3419 23.3361 49.3186C23.517 49.2024 23.6998 49.1191 23.8846 49.0648C24.0703 49.0106 24.2687 48.9825 24.4788 48.9825C24.8425 48.9825 25.1225 49.0648 25.318 49.2295C25.5125 49.3942 25.6097 49.6296 25.6097 49.9358C25.6097 50.0249 25.6029 50.1363 25.5864 50.2652C25.5686 50.4063 25.5466 50.5468 25.5203 50.6866L25.2703 52.009C25.2495 52.1111 25.2375 52.2148 25.2344 52.319C25.2344 52.3926 25.2538 52.4479 25.2927 52.4885C25.3138 52.5095 25.3391 52.5258 25.3669 52.5364C25.3947 52.5471 25.4244 52.5519 25.4541 52.5505C25.5355 52.5429 25.6155 52.525 25.6924 52.4973L25.7877 52.6978C25.684 52.762 25.573 52.8137 25.4571 52.8518C25.3558 52.884 25.2502 52.9003 25.1439 52.9003C25.0745 52.9043 25.0051 52.8929 24.9405 52.8672C24.876 52.8414 24.8179 52.8017 24.7705 52.7511C24.683 52.6494 24.6344 52.5079 24.6266 52.319V52.318ZM19.9101 51.8104H20.0317C20.0716 52.0574 20.1649 52.2541 20.3147 52.4004C20.3913 52.4716 20.4812 52.5271 20.5793 52.5636C20.6774 52.6002 20.7818 52.6172 20.8865 52.6135C21.1102 52.6135 21.2901 52.5476 21.4272 52.412C21.4961 52.3428 21.55 52.2603 21.5855 52.1694C21.621 52.0786 21.6372 51.9814 21.6333 51.884C21.6333 51.6244 21.4058 51.3899 20.9536 51.1865L20.8826 51.1506C20.5986 51.0247 20.4003 50.8852 20.2836 50.737C20.1631 50.5733 20.1014 50.374 20.1085 50.1712C20.1085 49.834 20.2233 49.5531 20.4557 49.3312C20.6871 49.1075 20.9837 48.998 21.3445 48.998C21.5429 48.998 21.7238 49.0203 21.8891 49.0658C22.0556 49.1144 22.2144 49.1862 22.3607 49.2789C22.314 49.3737 22.2753 49.4722 22.245 49.5734C22.2129 49.6761 22.1867 49.7905 22.1653 49.9116H22.0641C21.999 49.7052 21.9066 49.5531 21.786 49.4533C21.6549 49.3479 21.4896 49.2938 21.3212 49.3012C21.2352 49.2984 21.1495 49.3133 21.0695 49.345C20.9895 49.3767 20.917 49.4244 20.8563 49.4853C20.7963 49.5448 20.749 49.6159 20.7173 49.6941C20.6855 49.7724 20.67 49.8562 20.6716 49.9406C20.6716 50.1954 20.8904 50.4153 21.327 50.5994C21.3533 50.6139 21.3737 50.6246 21.3922 50.6304C21.7014 50.766 21.9183 50.9075 22.034 51.0528C22.1526 51.1981 22.212 51.3899 22.212 51.6234C22.212 52.008 22.0836 52.3238 21.8249 52.568C21.5662 52.8121 21.2298 52.9332 20.8087 52.9332C20.5918 52.9332 20.3857 52.8993 20.1902 52.8286C20.0011 52.7627 19.827 52.6603 19.6777 52.5273C19.7079 52.3917 19.7439 52.2657 19.7818 52.1456C19.818 52.0315 19.8608 51.9195 19.9101 51.8104ZM17.0414 51.8104H17.1649C17.2038 52.0574 17.2981 52.2541 17.4488 52.4004C17.5976 52.5428 17.7892 52.6135 18.0187 52.6135C18.2424 52.6135 18.4233 52.5476 18.5594 52.412C18.6285 52.343 18.6825 52.2604 18.718 52.1695C18.7535 52.0787 18.7697 51.9814 18.7656 51.884C18.7656 51.6244 18.539 51.3899 18.0868 51.1865L18.0148 51.1506C17.7328 51.0247 17.5335 50.8852 17.4168 50.737C17.2959 50.5735 17.2342 50.3741 17.2417 50.1712C17.2417 49.834 17.3584 49.5531 17.5869 49.3312C17.8203 49.1075 18.116 48.998 18.4787 48.998C18.6751 48.998 18.856 49.0203 19.0213 49.0658C19.1866 49.1142 19.3442 49.185 19.492 49.2789C19.4469 49.3744 19.4083 49.4728 19.3763 49.5734C19.3442 49.6847 19.3182 49.7975 19.2985 49.9116H19.1973C19.1312 49.7052 19.0388 49.5531 18.9182 49.4533C18.7874 49.3479 18.6224 49.2938 18.4544 49.3012C18.369 49.2984 18.284 49.313 18.2045 49.3441C18.125 49.3751 18.0526 49.422 17.9919 49.4819C17.9312 49.5417 17.8834 49.6132 17.8514 49.6921C17.8194 49.771 17.8038 49.8556 17.8057 49.9406C17.8057 50.1954 18.0226 50.4153 18.4592 50.5994C18.48 50.6116 18.5018 50.622 18.5244 50.6304C18.8356 50.766 19.0495 50.9075 19.1672 51.0528C19.2858 51.1981 19.3451 51.3899 19.3451 51.6234C19.3451 52.008 19.2148 52.3238 18.9581 52.568C18.6985 52.8121 18.361 52.9332 17.9409 52.9332C17.725 52.9332 17.5189 52.8993 17.3234 52.8286C17.1343 52.7623 16.9599 52.6599 16.8099 52.5273C16.8653 52.2819 16.9427 52.0419 17.0414 51.8104ZM15.1791 52.8305C15.3629 52.1087 15.5199 51.3803 15.6498 50.6469C15.7626 49.9997 15.8229 49.4814 15.8346 49.0929C15.9065 49.1026 15.9727 49.1084 16.0359 49.1142C16.1592 49.124 16.2831 49.124 16.4064 49.1142C16.4725 49.1084 16.5396 49.1026 16.6106 49.0929C16.4282 49.7735 16.2757 50.4617 16.1535 51.1555C16.0527 51.7092 15.9868 52.2686 15.9561 52.8305C15.8726 52.8197 15.789 52.81 15.7052 52.8015C15.6567 52.7969 15.6081 52.7943 15.5594 52.7937C15.5234 52.7937 15.4796 52.7966 15.4252 52.8015C15.343 52.8098 15.261 52.8195 15.1791 52.8305ZM16.032 47.724C16.032 47.6107 16.066 47.5177 16.1341 47.4469C16.1692 47.4126 16.2109 47.3857 16.2567 47.3679C16.3024 47.3501 16.3514 47.3417 16.4005 47.3433C16.5133 47.3433 16.6018 47.3762 16.665 47.4402C16.7313 47.5195 16.7647 47.621 16.7584 47.724C16.7601 47.7741 16.7519 47.824 16.7342 47.8708C16.7165 47.9177 16.6897 47.9607 16.6553 47.9972C16.6217 48.0329 16.581 48.0613 16.5358 48.0804C16.4906 48.0996 16.4419 48.1092 16.3928 48.1086C16.3443 48.1095 16.2963 48.1002 16.2517 48.0813C16.2072 48.0624 16.1671 48.0345 16.1341 47.9992C16.0652 47.9243 16.0285 47.8255 16.032 47.724ZM11.0578 52.8276C11.2018 52.2434 11.3165 51.7029 11.4011 51.2088C11.4886 50.7147 11.5295 50.3562 11.5295 50.1373C11.5295 49.9183 11.4809 49.7498 11.3778 49.6374C11.2737 49.5231 11.1259 49.4659 10.9304 49.4659C10.4685 49.4659 10.1165 49.7149 9.88019 50.2148C9.64388 50.7127 9.4737 51.5856 9.37549 52.8276C9.29769 52.817 9.22767 52.8082 9.16835 52.8024C9.1157 52.7967 9.0628 52.7934 9.00984 52.7927C8.96824 52.7939 8.92671 52.7968 8.88537 52.8015C8.81227 52.8088 8.73932 52.8175 8.66656 52.8276C8.84258 52.1088 8.98553 51.4277 9.09542 50.7835C9.20531 50.1382 9.27532 49.5754 9.30741 49.0929C9.37257 49.1026 9.43772 49.1084 9.49218 49.1142C9.59699 49.1237 9.70245 49.1237 9.80726 49.1142C9.86658 49.1084 9.92979 49.1026 9.99786 49.0929C9.90756 49.3314 9.84364 49.5789 9.80726 49.8311C10.0056 49.5453 10.2167 49.3351 10.4403 49.1985C10.664 49.0629 10.912 48.998 11.1901 48.998C11.4916 48.998 11.7249 49.0658 11.8874 49.2082C12.0488 49.3438 12.1382 49.555 12.1519 49.8273C12.3367 49.5776 12.5677 49.3655 12.8326 49.2024C13.0679 49.0658 13.3237 48.998 13.595 48.998C13.9101 48.998 14.159 49.0823 14.337 49.2499C14.5149 49.4194 14.6044 49.6529 14.6044 49.9493C14.6044 50.1111 14.5461 50.5151 14.4303 51.1594C14.3156 51.8036 14.2261 52.3607 14.1658 52.8276C14.1061 52.8175 14.0461 52.8091 13.9859 52.8024C13.8728 52.7906 13.7588 52.7903 13.6456 52.8015C13.5827 52.8082 13.5201 52.8169 13.4579 52.8276C13.6037 52.2415 13.7175 51.7009 13.8012 51.2078C13.8858 50.7127 13.9276 50.3553 13.9276 50.1373C13.9276 49.9174 13.877 49.7498 13.7768 49.6374C13.6747 49.5231 13.5259 49.4659 13.3295 49.4659C12.8676 49.4659 12.5185 49.7149 12.2793 50.2138C12.0429 50.7108 11.8747 51.5837 11.7736 52.8276C11.7117 52.8165 11.6494 52.8078 11.5869 52.8015C11.4821 52.7913 11.3766 52.7913 11.2718 52.8015C11.2183 52.8073 11.1463 52.815 11.0578 52.8276ZM4.56084 51.2698C4.56084 51.7736 4.70865 52.1776 5.00331 52.4779C5.29893 52.7753 5.69375 52.9264 6.19165 52.9264C6.77902 52.9264 7.27692 52.7036 7.68243 52.2609C8.08698 51.8181 8.28925 51.2805 8.28925 50.6469C8.28925 50.1324 8.13754 49.7294 7.83511 49.4388C7.53365 49.1481 7.11257 49.0057 6.5748 49.0057C6.00494 49.0057 5.52843 49.2247 5.14042 49.6645C4.75436 50.1072 4.56084 50.6411 4.56084 51.2698ZM6.65746 49.3031C6.25972 49.3031 5.92423 49.5153 5.64902 49.9426C5.37381 50.3708 5.2367 50.8852 5.2367 51.4897C5.2367 51.853 5.31547 52.133 5.47398 52.3306C5.63249 52.5283 5.85615 52.6281 6.14789 52.6281C6.54466 52.6281 6.88793 52.412 7.17675 51.979C7.46849 51.5488 7.61242 51.0266 7.61242 50.4115C7.61242 50.0704 7.52781 49.8001 7.35763 49.6025C7.27369 49.5039 7.16834 49.4257 7.04957 49.3737C6.9308 49.3216 6.8017 49.2972 6.67205 49.3022H6.65746V49.3031ZM4.36829 48.4816C4.23365 48.249 4.03888 48.0567 3.80426 47.9246C3.57865 47.8025 3.30831 47.7434 2.99031 47.7434C2.64023 47.7434 2.32515 47.8199 2.04217 47.972C1.76015 48.1241 1.52093 48.3489 1.32352 48.6463C1.14167 48.9214 1.00261 49.2305 0.90147 49.5754C0.80206 49.9153 0.751316 50.2676 0.750739 50.6217C0.750739 51.2281 0.898553 51.7038 1.19126 52.0516C1.48397 52.4004 1.88657 52.5719 2.39711 52.5719C2.71316 52.5719 3.01365 52.507 3.3015 52.3742C3.58838 52.2425 3.86747 52.039 4.14268 51.761L4.19811 51.8336C4.14073 51.9402 4.096 52.0536 4.06002 52.1785C4.02157 52.3103 3.99264 52.4447 3.97347 52.5806C3.68173 52.7026 3.40653 52.7918 3.14396 52.8518C2.8814 52.9119 2.62564 52.9419 2.37572 52.9419C1.63276 52.9419 1.05123 52.7288 0.631126 52.3054C0.208106 51.8821 0 51.2969 0 50.5529C0 50.1499 0.0680722 49.7614 0.205189 49.3845C0.342306 49.0106 0.540688 48.6725 0.79839 48.376C1.07117 48.0552 1.41553 47.8024 1.80391 47.6378C2.22256 47.469 2.67098 47.3856 3.12257 47.3927C3.41625 47.3927 3.70118 47.4256 3.97347 47.4915C4.24576 47.5584 4.49471 47.6543 4.72032 47.7821C4.59581 47.9988 4.51148 48.2361 4.47137 48.4826H4.36732L4.36829 48.4816ZM97.5406 51.8482H97.6632C97.7021 52.0952 97.7974 52.2919 97.9471 52.4362C98.0234 52.5077 98.1131 52.5634 98.2111 52.6001C98.309 52.6368 98.4133 52.6539 98.518 52.6503C98.617 52.6548 98.7159 52.6394 98.8088 52.605C98.9017 52.5705 98.9867 52.5177 99.0587 52.4498C99.1273 52.3805 99.1808 52.2978 99.2159 52.207C99.251 52.1161 99.267 52.0191 99.2629 51.9218C99.2629 51.6622 99.0382 51.4277 98.586 51.2223C98.5612 51.2118 98.5369 51.2002 98.5131 51.1875C98.2311 51.0615 98.0317 50.922 97.916 50.7738C97.7948 50.6108 97.7327 50.4117 97.74 50.209C97.74 49.8709 97.8557 49.5909 98.0881 49.3671C98.3196 49.1443 98.6133 49.0348 98.977 49.0348C99.1744 49.0348 99.3553 49.058 99.5206 49.1045C99.6849 49.153 99.8434 49.2227 99.9922 49.3177C99.9469 49.412 99.9076 49.5091 99.8745 49.6083C99.8431 49.7204 99.8172 49.8338 99.7968 49.9484H99.6956C99.6295 49.743 99.5381 49.5909 99.4175 49.4901C99.2862 49.3857 99.1215 49.3321 98.9536 49.339C98.8675 49.3362 98.7818 49.3511 98.7018 49.383C98.6217 49.4148 98.5492 49.4629 98.4888 49.524C98.4283 49.5833 98.3806 49.6543 98.3487 49.7326C98.3168 49.8109 98.3012 49.8949 98.3031 49.9794C98.3031 50.2322 98.5219 50.4521 98.9575 50.6382L99.0227 50.6691C99.3339 50.8048 99.5478 50.9433 99.6664 51.0906C99.7851 51.2369 99.8444 51.4277 99.8444 51.6602C99.8444 52.0458 99.7141 52.3597 99.4554 52.6048C99.1987 52.8499 98.8603 52.971 98.4411 52.971C98.2304 52.9727 98.021 52.9373 97.8227 52.8664C97.6332 52.8002 97.4588 52.6975 97.3092 52.5641C97.3389 52.4359 97.3736 52.3089 97.4133 52.1834C97.4521 52.0632 97.4959 51.9509 97.5397 51.8482H97.5406ZM93.3678 51.3066C93.3678 50.6788 93.5613 50.1441 93.9474 49.7023C94.3344 49.2625 94.8119 49.0435 95.3818 49.0435C95.9196 49.0435 96.3406 49.1859 96.6411 49.4766C96.9445 49.7672 97.0953 50.1702 97.0953 50.6847C97.0953 51.3182 96.893 51.8569 96.4894 52.2987C96.0829 52.7424 95.585 52.9642 94.9986 52.9642C94.5007 52.9642 94.1059 52.8131 93.8093 52.5137C93.5147 52.2153 93.3678 51.8114 93.3678 51.3066ZM95.4635 49.34C95.0667 49.34 94.7312 49.5531 94.455 49.9794C94.1808 50.4076 94.0437 50.922 94.0437 51.5275C94.0437 51.8898 94.1215 52.1708 94.281 52.3684C94.4395 52.5661 94.6631 52.6658 94.9549 52.6658C95.3516 52.6658 95.6939 52.4498 95.9837 52.0177C96.2735 51.5856 96.4194 51.0625 96.4194 50.4492C96.4194 50.1082 96.3348 49.8389 96.1636 49.6403C96.0799 49.5417 95.9748 49.4634 95.8562 49.4114C95.7375 49.3593 95.6086 49.3349 95.479 49.34H95.4635ZM91.5445 52.8683C91.7467 52.0613 91.9043 51.3318 92.0151 50.6847C92.1279 50.0375 92.1882 49.5192 92.1989 49.1297C92.2719 49.1404 92.338 49.1462 92.4012 49.152C92.5242 49.1617 92.6477 49.1617 92.7707 49.152C92.8378 49.1462 92.9059 49.1404 92.975 49.1297C92.7926 49.8107 92.6401 50.4991 92.5179 51.1933C92.4179 51.7474 92.3523 52.3071 92.3214 52.8693C92.2116 52.8528 92.127 52.8441 92.0706 52.8383C92.0142 52.8344 91.9655 52.8305 91.9247 52.8305C91.8897 52.8305 91.8469 52.8344 91.7915 52.8383C91.7089 52.8465 91.6266 52.8565 91.5445 52.8683ZM92.3992 47.7599C92.3969 47.7096 92.4046 47.6594 92.422 47.6121C92.4393 47.5649 92.466 47.5216 92.5004 47.4847C92.5351 47.4501 92.5766 47.4231 92.6223 47.4052C92.6679 47.3874 92.7168 47.3792 92.7659 47.3811C92.8144 47.3782 92.8629 47.3854 92.9085 47.4023C92.954 47.4191 92.9955 47.4452 93.0304 47.4789C93.0936 47.5467 93.1237 47.6397 93.1237 47.7599C93.1255 47.81 93.1172 47.86 93.0993 47.9069C93.0814 47.9538 93.0544 47.9967 93.0197 48.0331C92.9869 48.0695 92.9467 48.0984 92.9017 48.118C92.8568 48.1375 92.8081 48.1472 92.7591 48.1464C92.7106 48.1476 92.6625 48.1384 92.6179 48.1195C92.5732 48.1006 92.5332 48.0725 92.5004 48.0369C92.4661 47.9996 92.4395 47.956 92.4221 47.9084C92.4048 47.8609 92.397 47.8104 92.3992 47.7599ZM89.0715 52.8683C89.2504 52.1495 89.3924 51.4665 89.5033 50.8222C89.6031 50.2621 89.6735 49.6972 89.7143 49.1297C89.7814 49.1404 89.8446 49.1462 89.8971 49.152C89.9996 49.1617 90.1029 49.1617 90.2054 49.152C90.2608 49.1462 90.3201 49.1404 90.3843 49.1297C90.3467 49.2468 90.3155 49.3658 90.291 49.4863C90.2666 49.6073 90.2452 49.7381 90.2287 49.8757C90.3911 49.6141 90.5671 49.4117 90.7538 49.2683C90.9406 49.1239 91.1214 49.0532 91.2955 49.0532C91.3626 49.0514 91.4295 49.0615 91.4929 49.0832C91.4637 49.1927 91.4385 49.3012 91.421 49.4107C91.4046 49.5179 91.3939 49.6259 91.3889 49.7343C91.3052 49.7168 91.2362 49.7023 91.1817 49.6936C91.1334 49.6861 91.0847 49.6819 91.0359 49.681C90.6974 49.681 90.4378 49.9038 90.2559 50.3456C90.0731 50.7883 89.9185 51.6302 89.7892 52.8683C89.7187 52.8581 89.648 52.8491 89.5772 52.8412C89.5169 52.8363 89.4634 52.8315 89.4177 52.8315C89.3885 52.8315 89.3525 52.8344 89.3078 52.8383C89.264 52.8441 89.1843 52.8528 89.0715 52.8683ZM87.1849 48.6134H86.8611L87.9172 47.4905C87.993 47.413 88.066 47.352 88.135 47.3084C88.1913 47.2705 88.2568 47.2488 88.3246 47.2454C88.3644 47.2451 88.4038 47.2529 88.4405 47.2682C88.4772 47.2835 88.5104 47.306 88.5381 47.3344C88.5659 47.3629 88.5875 47.3966 88.6018 47.4336C88.6161 47.4706 88.6227 47.51 88.6212 47.5496C88.6212 47.6107 88.6018 47.6669 88.5629 47.7163C88.4977 47.7871 88.4216 47.8469 88.3373 47.8936L87.1849 48.6134ZM87.7451 50.8871L87.1382 51.0354C86.7862 51.1206 86.5295 51.2359 86.3671 51.3841C86.2879 51.4564 86.2253 51.545 86.1837 51.6436C86.1421 51.7423 86.1224 51.8487 86.1259 51.9557C86.1259 52.1272 86.1745 52.2677 86.2718 52.3742C86.369 52.4808 86.4984 52.5341 86.6578 52.5341C86.865 52.5341 87.0663 52.4566 87.254 52.2977C87.4271 52.1616 87.5461 51.9686 87.5895 51.7532L87.7451 50.8871ZM87.5107 52.3539C87.3415 52.5573 87.1694 52.7075 86.9933 52.8024C86.8181 52.8977 86.6212 52.9467 86.4215 52.9448C86.1347 52.9448 85.909 52.8635 85.7447 52.6988C85.5784 52.536 85.4958 52.3151 85.4958 52.0351C85.4958 51.6786 85.6076 51.4025 85.8313 51.2059C86.053 51.0082 86.4478 50.8542 87.0118 50.7379L87.6332 50.613C87.7305 50.5936 87.7985 50.5306 87.8452 50.424C87.8995 50.2772 87.9239 50.1211 87.9172 49.9648C87.9172 49.7662 87.8588 49.6112 87.7489 49.4998C87.6371 49.3874 87.4815 49.3312 87.2861 49.3312C87.0793 49.326 86.8756 49.381 86.6997 49.4894C86.5239 49.5978 86.3836 49.7549 86.2961 49.9416L86.1697 49.9183C86.2035 49.777 86.2224 49.6325 86.2261 49.4872L86.2232 49.4252C86.2205 49.402 86.2189 49.3788 86.2183 49.3555C86.4001 49.2402 86.583 49.1549 86.7687 49.1007C86.9611 49.0447 87.1606 49.017 87.3609 49.0183C87.7256 49.0183 88.0057 49.1007 88.2011 49.2663C88.3956 49.431 88.4929 49.6664 88.4929 49.9716C88.4929 50.0607 88.4861 50.1731 88.4705 50.301C88.4522 50.4425 88.4295 50.5833 88.4024 50.7234L88.1545 52.0458C88.1428 52.1059 88.1321 52.1601 88.1253 52.2115C88.1204 52.2588 88.1181 52.3063 88.1185 52.3539C88.1185 52.4295 88.137 52.4847 88.1759 52.5244C88.1968 52.5457 88.222 52.5623 88.2498 52.5732C88.2776 52.584 88.3074 52.5889 88.3373 52.5874C88.4189 52.5791 88.4992 52.5612 88.5765 52.5341L88.6708 52.7346C88.5669 52.7982 88.456 52.8496 88.3402 52.8877C88.2394 52.9204 88.1341 52.9374 88.028 52.9381C87.9585 52.9415 87.889 52.9298 87.8245 52.9037C87.76 52.8776 87.702 52.8377 87.6546 52.7869C87.5661 52.6862 87.5165 52.5447 87.5107 52.3539ZM83.7959 52.8683C83.9797 52.1463 84.1374 51.418 84.2685 50.6847C84.3803 50.0375 84.4397 49.5192 84.4513 49.1297C84.5243 49.1404 84.5914 49.1462 84.6536 49.152C84.7766 49.1617 84.9002 49.1617 85.0231 49.152C85.0902 49.1462 85.1583 49.1404 85.2274 49.1297C85.0329 49.8689 84.8802 50.5558 84.7703 51.1933C84.6703 51.7474 84.6047 52.3071 84.5739 52.8693C84.4904 52.8573 84.4068 52.847 84.323 52.8383C84.2666 52.8344 84.2179 52.8305 84.1761 52.8305C84.1431 52.8305 84.0974 52.8344 84.0419 52.8383C83.9865 52.8441 83.9058 52.8528 83.7969 52.8683H83.7959ZM84.6507 47.7599C84.6507 47.6484 84.6838 47.5545 84.7538 47.4847C84.7883 47.4502 84.8296 47.4232 84.8752 47.4054C84.9207 47.3875 84.9694 47.3792 85.0183 47.3811C85.1321 47.3811 85.2196 47.414 85.2838 47.4789C85.346 47.5467 85.3761 47.6397 85.3761 47.7599C85.3779 47.81 85.3696 47.86 85.3517 47.9069C85.3338 47.9538 85.3068 47.9967 85.2721 48.0331C85.2394 48.0696 85.1992 48.0986 85.1542 48.1182C85.1092 48.1377 85.0605 48.1474 85.0115 48.1464C84.9632 48.1475 84.9152 48.1384 84.8707 48.1195C84.8263 48.1006 84.7864 48.0725 84.7538 48.0369C84.719 47.9999 84.6919 47.9563 84.6742 47.9087C84.6565 47.8612 84.6485 47.8106 84.6507 47.7599ZM81.9541 52.8683C82.2157 51.7697 82.4364 50.7282 82.6105 49.7362C82.7875 48.748 82.9158 47.8393 82.9985 47.0139C83.1133 47.0317 83.2288 47.0446 83.3447 47.0526C83.3884 47.0526 83.439 47.0488 83.4964 47.0439C83.5547 47.0381 83.6354 47.0294 83.7395 47.0149C83.5113 48.0186 83.3061 49.0274 83.1239 50.0404C82.9554 50.9794 82.8118 51.9227 82.6931 52.8693C82.6206 52.8566 82.5476 52.8462 82.4743 52.8383C82.4179 52.8344 82.3674 52.8305 82.3255 52.8305C82.2905 52.8305 82.2477 52.8344 82.1952 52.8383C82.1147 52.8468 82.0343 52.8568 81.9541 52.8683ZM80.1453 52.8683C80.3466 52.0613 80.5041 51.3318 80.6179 50.6847C80.7297 50.0375 80.7881 49.5192 80.7997 49.1297C80.8727 49.1404 80.9398 49.1462 81.002 49.152C81.125 49.1616 81.2486 49.1616 81.3716 49.152C81.4387 49.1462 81.5067 49.1404 81.5758 49.1297C81.3939 49.8108 81.2414 50.4992 81.1187 51.1933C81.0187 51.7474 80.9531 52.3071 80.9223 52.8693C80.8389 52.8573 80.7552 52.847 80.6714 52.8383C80.615 52.8344 80.5664 52.8305 80.5245 52.8305C80.4905 52.8305 80.4467 52.8344 80.3913 52.8383C80.3091 52.8467 80.2271 52.8567 80.1453 52.8683ZM80.9991 47.7599C80.9968 47.7095 81.0047 47.6593 81.0223 47.612C81.0398 47.5648 81.0666 47.5215 81.1012 47.4847C81.1359 47.4501 81.1774 47.4231 81.2231 47.4052C81.2688 47.3874 81.3177 47.3792 81.3667 47.3811C81.4795 47.3811 81.568 47.414 81.6322 47.4789C81.6944 47.5467 81.7246 47.6397 81.7246 47.7599C81.7265 47.81 81.7183 47.8601 81.7004 47.907C81.6825 47.9539 81.6554 47.9968 81.6205 48.0331C81.5876 48.0698 81.5471 48.099 81.5018 48.1186C81.4564 48.1381 81.4073 48.1476 81.3579 48.1464C81.3098 48.1473 81.262 48.138 81.2178 48.1191C81.1735 48.1002 81.1338 48.0722 81.1012 48.0369C81.0668 47.9997 81.04 47.9561 81.0225 47.9085C81.005 47.861 80.997 47.8105 80.9991 47.7599ZM77.6665 52.6096C78.038 52.6096 78.354 52.4062 78.6088 51.9993C78.8636 51.5924 78.9929 51.0944 78.9929 50.5025C78.9929 50.1644 78.9229 49.9038 78.7858 49.7217C78.6458 49.5405 78.4483 49.4504 78.1926 49.4504C77.7958 49.4504 77.4681 49.6539 77.2104 50.0607C76.9527 50.4696 76.8234 50.9811 76.8234 51.5963C76.8234 51.9189 76.8973 52.1688 77.0441 52.3442C77.19 52.5215 77.3981 52.6096 77.6665 52.6096ZM75.883 52.8683C76.0084 52.4324 76.1689 51.7077 76.3673 50.6992C76.5657 49.6916 76.7825 48.4632 77.0208 47.0139C77.0986 47.0294 77.1647 47.04 77.2221 47.0478C77.2824 47.0575 77.3281 47.0604 77.3621 47.0604C77.4107 47.0604 77.4652 47.0565 77.5274 47.0478C77.5897 47.04 77.6665 47.0294 77.7482 47.0139C77.5609 47.6671 77.4051 48.3289 77.2814 48.997C77.2561 49.1326 77.2347 49.2363 77.2201 49.3051L77.1491 49.6742C77.329 49.4591 77.5187 49.3002 77.717 49.1995C77.9164 49.0939 78.1391 49.0425 78.3861 49.0425C78.7897 49.0425 79.1086 49.1801 79.344 49.4591C79.5764 49.7343 79.6931 50.115 79.6931 50.5965C79.6931 51.2717 79.5073 51.8346 79.1349 52.287C78.7624 52.7375 78.2986 52.9652 77.7414 52.9652C77.5138 52.9652 77.3067 52.9206 77.118 52.8344C76.9063 52.7328 76.7151 52.5932 76.554 52.4227C76.3883 52.5455 76.2454 52.6964 76.1319 52.8683H75.883ZM71.8726 51.3066C71.8726 50.6788 72.0671 50.1441 72.4531 49.7023C72.8402 49.2625 73.3176 49.0435 73.8875 49.0435C74.4243 49.0435 74.8454 49.1859 75.1468 49.4766C75.4483 49.7672 75.601 50.1702 75.601 50.6847C75.601 51.3182 75.3987 51.8569 74.9932 52.2987C74.5886 52.7424 74.0917 52.9642 73.5044 52.9642C73.0065 52.9642 72.6097 52.8131 72.316 52.5137C72.0214 52.2153 71.8726 51.8114 71.8726 51.3066ZM73.9702 49.34C73.5734 49.34 73.236 49.5531 72.9607 49.9794C72.6855 50.4076 72.5494 50.922 72.5494 51.5275C72.5494 51.8898 72.6272 52.1708 72.7867 52.3684C72.9442 52.5661 73.1689 52.6658 73.4577 52.6658C73.8564 52.6658 74.1987 52.4498 74.4885 52.0177C74.7802 51.5856 74.9241 51.0625 74.9241 50.4492C74.9241 50.1082 74.8395 49.8389 74.6684 49.6403C74.5002 49.4417 74.2726 49.34 73.9838 49.34H73.9702Z" fill="white"/>
<mask id="mask2" mask-type="alpha" maskUnits="userSpaceOnUse" x="0" y="0" width="100" height="66">
<path d="M0 65.9991H100V0.000976562H0V65.9991Z" fill="white"/>
</mask>
<g mask="url(#mask2)">
<path fill-rule="evenodd" clip-rule="evenodd" d="M0 56.6416H99.9903V55.3144H0V56.6416ZM76.6979 43.3837C76.9284 43.3101 77.1365 43.2616 77.3242 43.2287C77.506 43.2025 77.6889 43.187 77.8658 43.187C78.0321 43.187 78.2101 43.2025 78.3968 43.2296C78.5893 43.2616 78.8266 43.3101 79.1067 43.3837C79.3177 41.9014 79.5258 40.5781 79.7232 39.3942C79.9197 38.22 80.1074 37.2619 80.2746 36.513L81.743 30.1751C82.4498 32.2783 83.0791 34.4066 83.6296 36.5556C84.2318 38.8892 84.7605 41.2409 85.2147 43.6075H86.0997C87.3868 41.3937 88.7504 39.2249 90.1879 37.1049C91.6632 34.9149 93.2142 32.7765 94.8382 30.6934C94.2985 34.2295 93.8618 36.9712 93.5127 38.9137C93.1685 40.8658 92.8612 42.35 92.5869 43.3837C92.9422 43.3193 93.3001 43.2698 93.6596 43.2355C94.3972 43.1698 95.1392 43.1698 95.8768 43.2355C96.2307 43.2723 96.5546 43.3168 96.8687 43.3837C96.8833 41.7145 97.1672 39.1752 97.7079 35.7612C98.2505 32.3462 99.0081 28.378 99.9912 23.8538C99.7642 23.9099 99.5344 23.9545 99.3027 23.9875C98.8495 24.0506 98.3897 24.0506 97.9364 23.9875C97.7132 23.9545 97.4918 23.9099 97.2732 23.8538C95.6759 26.2355 94.0564 28.6024 92.4148 30.9541C90.9186 33.0993 89.3917 35.2231 87.8345 37.3248C87.1227 35.1561 86.4548 32.9733 85.8313 30.7777C85.1757 28.4832 84.572 26.1743 84.0205 23.8528C83.793 23.9109 83.5596 23.9535 83.3369 23.9865C82.8921 24.0489 82.4407 24.0489 81.9959 23.9865C81.7644 23.9525 81.5347 23.9079 81.3074 23.8528C80.5779 27.4155 79.7937 30.9669 78.955 34.5057C78.257 37.478 77.5048 40.4376 76.6989 43.3827L76.6979 43.3837ZM55.4477 42.753C54.6075 43.1115 53.7634 43.3721 52.9193 43.5494C52.0674 43.7257 51.2078 43.8148 50.3267 43.8148C47.6146 43.8148 45.4936 43.0524 43.961 41.5265C42.4275 40.0016 41.6641 37.8935 41.6641 35.2003C41.6641 31.6739 42.7211 28.8353 44.8372 26.6846C46.9474 24.5416 49.7335 23.4633 53.2013 23.4633C54.4616 23.4633 55.6062 23.5912 56.6322 23.847C57.6601 24.0989 58.5508 24.4864 59.2996 24.995C59.0487 25.5257 58.8207 26.0668 58.616 26.6168C58.4151 27.1494 58.2367 27.6901 58.0811 28.2376L57.8575 28.0574C57.4625 27.1388 56.7893 26.3662 55.932 25.8475C55.0636 25.3195 54.0678 25.0531 52.9485 25.0531C51.8146 25.0531 50.813 25.304 49.9417 25.8156C49.0616 26.3232 48.2817 27.107 47.5795 28.163C46.9416 29.1511 46.4418 30.2982 46.0956 31.5983C45.7441 32.9249 45.5675 34.2914 45.5704 35.6634C45.5704 37.7453 46.0304 39.3661 46.9513 40.5131C47.8723 41.666 49.1724 42.2415 50.8373 42.2415C51.7144 42.2415 52.5887 42.0758 53.46 41.7561C54.3352 41.4413 55.191 40.9617 56.0147 40.3262L56.2529 40.549C56.0876 40.9927 55.9398 41.388 55.8027 41.7406C55.6714 42.0923 55.5537 42.4285 55.4477 42.754V42.753ZM65.0284 43.3837C64.6229 40.2238 64.1538 37.0723 63.6212 33.9312C63.0519 30.5615 62.4242 27.2019 61.7386 23.8538C62.1032 23.9119 62.4621 23.9545 62.8219 23.9875C63.1759 24.0204 63.5415 24.0349 63.911 24.0349C64.2884 24.0349 64.6793 24.0204 65.0683 23.9865C65.4631 23.9545 65.8686 23.9119 66.2838 23.8538C66.5211 26.5054 66.7944 29.03 67.0988 31.4181C67.3963 33.8139 67.7406 36.1022 68.1208 38.2898C69.623 35.9443 71.0341 33.5422 72.351 31.0887C73.6209 28.7292 74.7861 26.3152 75.8431 23.8538C76.0668 23.9119 76.2827 23.9545 76.4956 23.9875C76.7135 24.0204 76.9303 24.0349 77.154 24.0349C77.3806 24.0349 77.614 24.0204 77.8474 23.9865C78.071 23.9545 78.3015 23.9119 78.531 23.8538C76.8133 26.7729 75.1228 29.7079 73.4596 32.6582C71.4448 36.2212 69.4512 39.7961 67.479 43.3827C67.2748 43.3271 67.0668 43.2866 66.8566 43.2616C66.6538 43.2317 66.449 43.2175 66.244 43.219C66.0563 43.219 65.8628 43.2287 65.6605 43.2616C65.4472 43.2875 65.236 43.3283 65.0284 43.3837ZM2.00035 28.1717L0 25.5249V16.8077H2.00035V28.1717ZM31.3297 28.1717L33.3301 25.5249V16.8077H31.3297V28.1717Z" fill="white"/>
</g>
</svg>
